<svg width="407" height="554" viewBox="0 0 407 554" fill="none" xmlns="http://www.w3.org/2000/svg">
<path opacity="0.3" fill-rule="evenodd" clip-rule="evenodd" d="M124.094 553.663C125.49 553.422 125.48 551.235 125.026 549.758C124.324 547.475 122.63 546.156 121.668 547.144C120.262 548.587 121.674 553.636 124.088 553.664L124.089 553.664C124.089 553.663 124.089 553.663 124.09 553.664L124.09 553.664C124.09 553.664 124.091 553.664 124.091 553.663L124.092 553.663L124.093 553.664C124.093 553.664 124.093 553.664 124.094 553.663L124.094 553.663ZM164.149 546.637C165.751 546.773 166.333 544.861 165.953 543.011C165.473 540.679 163.696 539.153 162.431 539.985C160.679 541.137 161.515 546.062 164.149 546.637ZM87.1592 552.622C88.1302 552.43 88.3173 550.475 87.5596 548.436C86.7579 546.278 85.31 545.156 84.5819 546.13C83.3376 547.792 85.3613 552.888 87.1592 552.622ZM208.327 531.129C210.162 531.384 211.096 529.371 210.787 527.404C210.417 525.048 208.526 523.559 207.04 524.454C204.997 525.682 205.46 530.429 208.327 531.129ZM54.5174 543.457C55.3032 543.145 55.152 541.078 54.5617 539.341C53.843 537.225 52.6902 536.033 52.1435 536.84C51.1418 538.318 53.1165 543.822 54.5174 543.457ZM256.863 506.855C259.166 507.368 260.29 505.176 260.216 503.397C260.115 500.976 258.116 499.285 256.328 500.107C253.944 501.202 253.884 505.692 256.863 506.855ZM28.4052 525.596C28.9209 525.18 28.6677 522.997 28.1362 521.215C27.9431 520.566 27.7114 519.967 27.4856 519.529C27.1182 518.82 26.6106 518.262 26.3855 519.024C25.9522 520.493 27.3844 526.074 28.4052 525.596ZM309.73 473.905C312.145 474.505 313.58 472.4 313.686 470.649C313.842 468.075 311.617 466.175 309.509 467.084C306.868 468.22 306.56 472.695 309.73 473.905ZM10.2551 498.697C10.4864 498.179 10.229 495.88 9.85686 494.047C9.58839 492.723 9.29093 491.787 9.09982 491.661C8.60266 491.336 9.11183 496.259 9.93864 498.388L9.93921 498.386C10.0903 498.72 10.1673 498.796 10.2551 498.697ZM364.725 432.269C367.221 432.944 368.883 430.917 369.124 429.196C369.52 426.363 366.843 424.245 364.429 425.48C361.828 426.811 361.568 431.094 364.725 432.269ZM1.64435 458.048L1.76203 459.786C1.72308 459.233 1.68573 458.68 1.64927 458.126L1.64435 458.048ZM418.192 382.118C420.575 382.8 422.447 381.142 422.816 379.214C423.369 376.324 420.632 374.038 418.015 375.206C415.167 376.476 414.794 380.891 418.192 382.118ZM465.467 324.033C467.921 324.759 469.905 322.973 470.151 320.916C470.489 318.086 467.674 315.952 465.13 317.113C462.353 318.378 462.091 322.867 465.467 324.033ZM501.573 261.541C503.683 262.168 505.742 260.907 505.979 258.844C506.028 258.407 505.989 257.965 505.863 257.53C505.021 254.647 500.854 253.686 499.238 256.749L499.244 256.751C498.338 258.994 499.717 260.949 501.573 261.541ZM522.666 200.408C525.18 201.267 526.693 199.827 526.965 198.53C527.167 197.562 527.444 196.239 526.212 195.079C524.443 193.415 522.618 193.981 522.271 194.112C520.278 194.86 520.317 197.119 520.345 197.565C520.365 197.877 520.569 199.481 522.666 200.408ZM529.653 143.431C531.834 144.139 533.359 143.097 533.523 141.726C533.78 139.566 530.926 137.734 528.751 138.663C526.742 139.522 526.921 142.324 529.653 143.431ZM524.586 94.8186C526.575 95.4205 527.998 94.5032 528.032 93.3026C528.036 93.1726 528.009 92.9997 527.987 92.8711C527.987 92.8725 527.987 92.8734 527.987 92.8748C527.482 91.0774 525.07 90.2865 523.569 90.986C521.924 91.7517 522.183 93.9408 524.586 94.8186ZM511.889 56.2449C513.827 56.8195 515.013 56.0167 515.123 55.2158C515.316 53.8317 512.809 52.7083 511.179 53.4469C510.01 53.9771 509.789 55.417 511.889 56.2449ZM496.908 28.9914C498.459 29.3856 499.615 28.8784 499.852 28.3618C499.866 28.3329 499.882 28.2917 499.89 28.2599C500.165 27.2243 497.631 26.5296 496.275 27.2686C495.559 27.6588 495.373 28.4964 496.908 28.9914ZM483.557 12.4783C484.748 12.7233 485.946 12.4885 486.353 12.2247C486.463 12.1533 486.528 12.0793 486.549 12.0054C486.724 11.3608 484.002 11.1498 483.041 11.7318C482.773 11.8948 482.579 12.2358 483.557 12.4783ZM473.919 4.68884C474.81 4.82233 476.112 4.80847 476.711 4.75732C477.193 4.716 477.223 4.66492 477.237 4.64062C477.125 4.37982 473.654 4.29846 473.522 4.55249C473.543 4.60101 473.612 4.63684 473.919 4.68884ZM124.901 510.887C126.858 510.925 127.248 508.248 126.778 506.302C126.188 503.862 124.415 502.421 123.13 503.336C121.163 504.736 121.989 510.347 124.901 510.887ZM85.7052 511.723C86.8619 511.54 87.3865 509.488 86.852 507.243C86.2949 504.904 84.8429 503.41 83.744 504.045C81.9395 505.088 82.7526 511.209 85.4435 511.728L85.4445 511.728C85.445 511.728 85.4456 511.727 85.4465 511.728C85.5668 511.738 85.6134 511.733 85.7052 511.723ZM168.532 500.84C170.513 501.028 171.487 498.702 171.123 496.498C170.685 493.848 168.619 492.243 167.028 493.315C164.832 494.799 165.409 500.169 168.532 500.84ZM51.2858 503.434C52.3032 503.106 52.4519 500.72 51.9517 498.698C51.3383 496.215 49.9768 494.873 49.2039 495.989C47.8854 497.89 49.5396 503.805 51.2858 503.434ZM217.889 480.997C219.798 479.918 219.789 477.723 219.741 477.076C219.526 474.206 217.155 472.438 215.211 473.697C212.841 475.233 213.186 480.437 216.4 481.2C216.905 481.273 217.292 481.262 217.884 480.996C217.886 480.996 217.887 480.996 217.889 480.997ZM24.641 485.423C25.3654 484.971 25.371 482.497 24.9607 480.464C24.5751 478.556 24.0647 477.941 23.8955 477.736L23.894 477.735L23.8926 477.729C23.8886 477.721 23.4177 477.139 23.0523 477.915C22.2786 479.558 23.267 485.923 24.641 485.423ZM270.359 451.507C271.836 450.452 272.161 449.009 272.174 447.985C272.211 445.085 269.69 443.115 267.442 444.287C264.712 445.709 264.565 450.633 267.949 451.868C268.654 452.022 269.322 452.1 270.36 451.501C270.36 451.503 270.36 451.505 270.359 451.507ZM7.29436 457.399C7.69367 456.846 7.70137 454.274 7.47923 452.209C7.33035 450.827 7.08601 449.752 6.85578 449.471C6.59594 449.154 6.45773 449.809 6.39863 450.229C6.07479 452.525 6.62467 457.886 7.29436 457.399ZM321.949 413.138C324.799 413.823 326.548 411.417 326.715 409.417C326.967 406.4 324.159 404.254 321.621 405.527C318.673 407.005 318.375 411.879 321.949 413.138ZM0.95436 419.175C1.04714 418.478 1.15695 415.593 1.20561 413.768L1.2058 413.767C1.27258 411.245 1.22733 411.096 1.21246 411.048C1.12328 411.419 0.801759 418.779 0.943246 419.222C0.94471 419.215 0.946742 419.207 0.948792 419.198C0.950802 419.19 0.95283 419.182 0.95436 419.175ZM374.963 365.34C377.609 366.019 379.773 364.002 380.061 361.766C380.457 358.68 377.553 356.411 374.791 357.651C371.622 359.074 371.192 364.065 374.963 365.34ZM422.569 309.276C425.218 309.981 427.435 308.022 427.769 305.821C428.271 302.507 424.937 300.162 422.014 301.775C419.043 303.413 418.874 308.096 422.569 309.276ZM459.778 248.837C462.097 249.454 464.421 248.041 464.752 245.812C465.21 242.729 461.768 240.477 458.907 241.986C455.893 243.576 456.438 247.865 459.778 248.837ZM482.969 189.754C485.719 190.339 487.19 188.713 487.506 187.478C487.538 187.355 487.559 187.229 487.6 187.11C488.596 184.215 485.018 181.61 482.051 183.07C479.788 184.183 480.129 186.899 480.133 186.926C480.18 187.267 480.534 189.007 482.958 189.751L482.959 189.752L482.961 189.752L482.962 189.752L482.964 189.753L482.965 189.753L482.966 189.753L482.968 189.754L482.969 189.754ZM491.809 134.76C494.195 135.459 496.077 134.287 496.339 132.754C496.744 130.392 493.604 128.512 491.091 129.612C488.765 130.63 488.747 133.621 491.809 134.76ZM489.289 88.284C491.393 88.8523 493.113 87.9221 493.399 86.6964C493.864 84.7076 490.745 83.1131 488.492 84.1865C486.575 85.1005 486.665 87.4155 489.289 88.284ZM479.282 51.8645C481.42 52.4245 482.889 51.5188 483.209 50.7299C483.851 49.1442 480.968 47.9179 478.864 48.8819C477.498 49.5079 477.062 51.0705 479.282 51.8645ZM466.792 26.4369C468.543 26.8187 470.016 26.2092 470.459 25.6766C470.543 25.5764 470.618 25.4358 470.641 25.3353C470.895 24.2245 468.099 23.7427 466.427 24.6081C465.527 25.0745 465.153 25.9694 466.792 26.4369ZM454.988 11.0651C456.205 11.2675 457.817 11.0132 458.561 10.6487C458.898 10.4838 458.984 10.3425 458.998 10.253C459.104 9.54022 455.573 9.60492 454.5 10.3364C454.383 10.4164 453.854 10.8277 454.988 11.0651ZM444.951 3.52295C445.906 3.62451 447.58 3.52917 448.585 3.38147C449.381 3.26471 449.421 3.17169 449.435 3.14142C449.43 3.13159 449.422 3.12201 449.412 3.11346C449.406 3.10797 449.4 3.10291 449.394 3.09845C449.391 3.09625 449.388 3.09424 449.385 3.09241C449.384 3.09229 449.384 3.09241 449.383 3.09247L449.382 3.09253C448.805 2.86261 444.67 3.00879 444.535 3.38904C444.561 3.43835 444.608 3.479 444.951 3.52295ZM435.21 0.993713C435.761 1.01312 436.906 1.02008 439.038 1.01447C440.335 1.01135 440.355 1.0069 440.403 0.997681C439.883 0.959473 435.169 0.883484 434.984 0.979431C435.059 0.987488 435.135 0.990967 435.21 0.993713ZM132.785 461.427C133.059 463.545 132.241 466.428 129.991 466.33C126.71 465.717 126.198 459.632 128.571 457.933C130.276 456.711 132.403 458.474 132.785 461.427ZM90.4711 464.382C90.9014 466.937 90.0125 469.338 88.5688 469.522C85.9626 469.762 84.4702 463.736 86.5472 461.36C87.9381 459.768 89.9554 461.322 90.4711 464.382ZM179.987 447.94C180.162 450.405 178.79 452.884 176.469 452.646C173.031 451.922 172.642 446.141 175.171 444.339C175.34 444.219 175.59 444.096 175.779 444.009L175.779 444.002C177.972 443.215 179.809 445.431 179.987 447.94ZM54.0531 457.062C54.4315 459.364 53.9471 462.06 52.6235 462.407C50.4923 462.775 49.1826 456.567 50.8934 454.205C51.9803 452.705 53.5746 454.148 54.0531 457.062ZM231.168 423.701C231.184 425.942 229.639 428.754 226.693 428.202C222.897 426.856 223.185 421.191 226.318 419.713C228.652 418.611 231.145 420.661 231.168 423.701ZM26.476 439.007C26.7275 441.297 26.3657 444.058 25.4265 444.516C23.6386 445.014 23.2258 437.889 24.4096 436.093C25.0499 435.121 25.8572 435.867 26.2866 437.829C26.3573 438.153 26.4356 438.637 26.476 439.007ZM284.714 388.993C284.606 391.253 282.777 394.031 279.621 393.367C275.734 392.061 276.129 386.489 279.375 384.916C282.021 383.633 284.865 385.805 284.714 388.993ZM9.90081 409.915C9.92886 412.193 9.58928 415.006 8.98991 415.576C7.96019 416.079 7.99347 409.48 8.78271 407.27C8.89307 406.961 9.18227 406.303 9.48314 406.874C9.72673 407.336 9.88323 408.474 9.90081 409.915ZM337.562 344.846C337.309 346.306 336.51 347.154 336.125 347.563L336.123 347.565L336.125 347.559L336.124 347.56C335.51 348.085 334.237 349.176 332.086 348.687C327.955 347.373 328.496 341.795 332.004 340.225C335.094 338.842 338.158 341.388 337.562 344.846ZM5.9131 369.501C5.66918 371.623 5.16887 374.954 4.86535 375.689C4.8602 375.696 4.85402 375.704 4.84784 375.711C4.84166 375.719 4.83548 375.726 4.83034 375.733C4.49749 375.056 5.80942 367.003 6.06339 366.684C6.10522 366.771 6.2038 366.978 5.9131 369.501ZM385.592 291.466C385.141 293.823 382.759 295.895 379.934 295.225C375.91 294.032 376.185 288.844 379.47 287.05C382.67 285.302 386.276 287.903 385.592 291.466ZM423.65 233.875C423.186 236.289 420.66 237.823 418.135 237.224C414.599 236.29 413.959 231.966 417.065 229.996C420.263 227.966 424.325 230.359 423.65 233.875ZM448.046 177.709C447.51 179.308 445.68 180.799 442.928 180.298L442.927 180.297L442.926 180.297L442.924 180.297L442.923 180.296L442.922 180.296L442.921 180.296L442.919 180.295L442.918 180.295C438.663 179.118 439.504 174.789 441.856 173.348C444.878 171.498 448.918 173.662 448.31 176.804L448.305 176.829C448.29 176.903 448.268 176.975 448.047 177.704L448.046 177.709ZM458.939 125.096C458.614 126.571 456.623 128.211 453.732 127.455C450.464 126.342 450.653 123.126 453.24 121.947C456.097 120.645 459.506 122.528 458.939 125.096ZM458.172 81.2717C457.772 82.6336 455.689 83.7628 453.34 83.2046C450.534 82.3682 450.623 79.9405 452.802 78.862C454.851 77.847 457.854 78.4726 458.236 80.5256L458.232 80.5244L458.232 80.531C458.244 80.7306 458.258 80.9787 458.172 81.2717ZM450.107 47.537C449.652 48.4737 447.708 49.5374 445.385 49.0094C443.055 48.2625 443.702 46.6054 445.275 45.8531C447.659 44.7129 450.732 45.6521 450.182 47.3539C450.163 47.4104 450.133 47.4834 450.107 47.537ZM438.813 24.5315C438.145 25.1205 436.278 25.8353 434.395 25.4969C432.859 25.1204 433.083 24.2808 434.073 23.6802C436.023 22.4987 439.61 22.7351 439.19 24.0176C439.135 24.1868 439.008 24.3595 438.813 24.5315ZM427.053 10.7703C426.026 11.2345 424.05 11.6279 422.651 11.4536C421.505 11.2663 422.025 10.83 422.212 10.7004C423.28 9.96069 426.84 9.40558 427.683 10.0042L427.681 10.0038L427.68 10.004L427.68 10.0042C427.757 10.0885 427.996 10.3459 427.053 10.7703ZM414.764 4.14453C413.447 4.43457 411.305 4.70319 410.215 4.64124C409.843 4.61365 409.697 4.55035 409.783 4.45453C410.241 3.93958 416.032 3.26672 415.917 3.74109C415.894 3.83929 415.463 3.9906 414.764 4.14453ZM399.724 2.26831C398.039 2.47711 395.781 2.70734 394.925 2.72992C394.659 2.7359 394.648 2.72632 394.622 2.69946C395.134 2.46625 400.6 1.94055 401.344 1.99872C401.319 2.0343 401.291 2.07379 399.724 2.26831ZM95.6565 426.207C97.4505 426.029 98.7392 423.302 98.4138 420.374C98.0303 416.914 95.6075 415.358 93.8661 417.454C91.5103 420.289 92.7648 426.424 95.6565 426.207ZM138.881 420.069C141.291 420.202 142.704 417.476 142.631 414.875C142.55 411.991 140.788 409.967 138.783 410.454L138.783 410.451C138.783 410.45 138.783 410.449 138.784 410.448C138.514 410.537 138.18 410.649 137.811 410.921C134.993 413 135.179 419.383 138.881 420.069ZM58.5634 420.688C60.2025 420.342 61.0968 417.274 60.8748 414.737C60.7783 413.626 60.4086 411.669 59.0271 411.042L59.0272 411.044C59.0273 411.046 59.0274 411.047 59.027 411.049C58.3755 410.849 57.7688 411.112 57.2225 411.831C55.0722 414.664 56.0369 421.039 58.5634 420.688ZM189.112 401.8C191.588 400.451 191.795 397.759 191.799 396.966C191.818 393.449 189.058 391.31 186.524 392.88C183.335 394.855 183.277 401.249 187.325 402.072C187.849 402.128 188.313 402.143 189.113 401.792L189.113 401.796L189.113 401.798L189.112 401.8ZM30.902 403.245C32.1566 402.762 32.8753 399.746 32.8224 397.228C32.8066 396.461 32.723 395.881 32.6557 395.53C32.251 393.417 31.2732 392.861 30.3812 394.237C28.763 396.735 28.7961 403.691 30.902 403.245ZM238.552 372.326C241.886 372.928 243.862 369.751 243.952 367.325C244.083 363.822 241.044 361.618 238.245 363.187C234.822 365.108 234.43 370.987 238.552 372.326ZM15.5402 373.675C16.5003 373.018 17.204 369.476 17.3432 367.173C17.4484 365.422 17.2566 364.621 17.1695 364.358C16.9389 363.662 16.5617 363.717 16.1349 364.508C14.8642 366.864 14.1308 374.127 15.5402 373.675ZM290.246 331.713C293.563 332.372 295.793 329.518 296.127 327.205C296.686 323.335 293.204 320.815 289.917 322.711C286.424 324.726 286.034 330.445 290.246 331.713ZM13.9571 332.471C14.5218 331.731 15.4597 328.169 15.9162 325.994C16.1611 324.826 16.5346 322.836 16.2792 322.649C15.5115 323.073 13.3241 332.103 13.8907 332.508C13.9005 332.503 13.9122 332.496 13.9239 332.49L13.9454 332.478L13.9571 332.471ZM338.133 281.548C341.272 282.203 343.901 279.723 344.296 277.088C344.857 273.344 341.248 270.904 337.861 272.737C334.264 274.682 333.822 280.366 338.133 281.548ZM382.626 224.086C382.8 223.758 383.016 223.351 383.141 222.834C384.065 219.013 379.793 216.496 376.216 218.752C372.728 220.951 373.264 225.586 377.111 226.5C377.692 226.621 380.686 227.071 382.632 224.087C382.631 224.086 382.628 224.086 382.626 224.086ZM403.262 172.038C406.226 172.488 408.285 170.836 408.945 169.111C409.155 168.511 409.188 168.418 409.211 168.324C409.216 168.307 409.22 168.289 409.225 168.269C410.031 164.887 405.738 162.695 402.369 164.769C399.51 166.529 398.849 170.95 403.252 172.036L403.253 172.036L403.254 172.036L403.256 172.037L403.257 172.037L403.258 172.037L403.259 172.038L403.261 172.038C403.261 172.038 403.262 172.038 403.262 172.038ZM415.639 121.648C418.515 122.31 421.057 120.719 421.54 118.877C422.265 116.109 418.609 114.272 415.426 115.805C412.545 117.194 412.156 120.57 415.639 121.648ZM416.837 79.8151C419.351 80.3293 421.645 79.1247 422.328 77.7122C422.401 77.5628 422.475 77.351 422.507 77.1883C422.983 74.784 419.077 73.6823 416.268 75.4292C414.158 76.7413 414.003 79.0696 416.837 79.8151ZM410.121 48.0504C412.576 48.5173 414.869 47.348 415.58 46.3237C415.726 46.1129 415.825 45.8629 415.855 45.721C416.233 43.8878 412.574 43.3678 410.01 44.8901C408.545 45.7599 407.741 47.3856 410.121 48.0504ZM399.369 26.7279C401.207 26.9822 403.502 26.2609 404.574 25.4466C405.075 25.0666 405.207 24.7642 405.23 24.577C405.388 23.2749 401.383 23.455 399.194 24.8481C398.094 25.5484 397.802 26.4188 399.369 26.7279ZM385.951 14.5213C387.468 14.6362 389.909 14.0431 391.236 13.4189C391.85 13.1302 392.492 12.7218 392.064 12.4174L392.068 12.4163C391.012 11.9039 386.698 12.7941 385.473 13.7766C385.244 13.9599 384.832 14.4009 385.951 14.5213ZM315.645 16.1633C316.392 15.9829 318.245 15.4778 321.455 14.6022C323.737 13.9802 323.747 13.9763 323.855 13.937C323.098 14.1049 315.914 15.9891 315.519 16.1908C315.541 16.1862 315.568 16.1804 315.594 16.1748L315.645 16.1633ZM369.041 9.46088C370.313 9.45563 372.972 8.89801 374.563 8.3996C375.398 8.1377 375.91 7.90356 375.933 7.77325C376.04 7.14166 369.067 8.55157 368.545 9.26697C368.454 9.39252 368.621 9.45758 369.041 9.46088ZM346.213 10.0513C347.555 9.93085 350.726 9.18243 351.834 8.90399C353.078 8.59222 353.782 8.38129 353.928 8.27576C353.659 8.01001 346.243 9.65601 345.994 10.0368C346.045 10.0558 346.072 10.0561 346.213 10.0513ZM110.315 375.88C110.318 378.153 109.164 381.534 106.587 381.936L106.587 381.935L106.586 381.936L106.585 381.936L106.584 381.936L106.583 381.936L106.582 381.936L106.582 381.936L106.582 381.936L106.581 381.936L106.58 381.936H106.58C106.58 381.936 106.58 381.936 106.58 381.937C102.932 381.935 102.592 375.277 105.28 372.438C107.533 370.06 110.309 371.959 110.315 375.88ZM155.641 366.667C155.468 369.456 153.61 372.36 150.91 372.189C146.695 371.431 147.055 364.374 150.513 362.193C153.196 360.502 155.879 362.844 155.641 366.667ZM72.0807 372.001C72.1396 375.182 70.6117 378.239 68.8107 378.545C66.0187 378.852 65.3802 372.354 67.8872 369.148C69.58 366.983 71.5822 367.901 72.0083 371.036C72.0475 371.323 72.075 371.71 72.0807 372.001ZM205.433 343.689C205.266 346.344 203.187 349.747 199.718 349.228C195.319 347.812 196.142 341.088 199.991 339.189C202.862 337.773 205.659 340.086 205.433 343.689ZM43.9897 355.447C43.8065 358.187 42.6368 361.439 41.0678 361.916C38.7167 362.279 39.051 355.461 41.0323 352.492C42.23 350.698 43.486 351.005 43.8917 353.19C44.0066 353.805 44.0426 354.649 43.9897 355.447ZM256.344 308.845C255.983 311.376 253.609 314.565 250.092 313.972C245.637 312.688 246.339 306.281 250.177 304.176C253.502 302.352 256.903 304.927 256.344 308.845ZM29.8893 325.258C29.5077 327.71 28.313 331.441 27.0614 332.07C25.3578 332.412 26.6483 325.13 28.428 322.363C29.1146 321.296 29.6935 321.193 29.9397 322.094C30.0244 322.403 30.1894 323.332 29.8893 325.258ZM304.18 263.446C303.875 264.841 303.189 265.677 302.736 266.229L302.734 266.229C302.732 266.229 302.731 266.229 302.73 266.228L302.73 266.229C302.019 266.936 300.355 268.591 297.632 268.104C293.066 266.944 293.766 260.77 297.688 258.682C301.354 256.73 305.055 259.445 304.18 263.446ZM31.4605 283.148C30.7334 285.61 29.2563 289.403 28.376 290.117C28.3586 290.121 28.3379 290.126 28.3175 290.131L28.2903 290.137L28.268 290.142C27.4861 289.534 30.8517 280.041 31.9432 279.777C32.308 280.054 31.7977 282.008 31.4605 283.148ZM343.68 212.276C343.123 215.157 340.035 217.221 337.071 216.694C333.042 215.839 332.668 210.826 336.454 208.443C340.099 206.148 344.421 208.44 343.68 212.276ZM48.2427 234.389C47.2441 236.442 45.5561 239.733 44.9301 240.622C44.916 240.638 44.8981 240.66 44.8836 240.677C44.7232 240.089 49.2439 231.603 49.6279 231.151C49.6522 231.238 49.6972 231.399 48.2427 234.389ZM370.468 161.817C369.853 163.381 367.685 165.558 364.233 165.142L364.232 165.141L364.23 165.141L364.229 165.141C364.228 165.14 364.228 165.141 364.227 165.141L364.226 165.141L364.225 165.14L364.224 165.14L364.222 165.14C359.62 164.136 360.504 159.483 363.597 157.551C367.302 155.239 371.785 157.423 370.758 161.038L370.751 161.061L370.744 161.086C370.719 161.172 370.686 161.256 370.472 161.808L370.469 161.814L370.468 161.817ZM384.185 114.619C383.393 116.473 380.699 118.109 377.725 117.519C374.239 116.554 374.607 113.306 377.426 111.585C380.934 109.446 385.246 111.125 384.311 114.268C384.306 114.286 384.3 114.305 384.294 114.325C384.29 114.338 384.286 114.351 384.281 114.364C384.273 114.389 384.264 114.414 384.255 114.44C384.232 114.503 384.207 114.566 384.185 114.619ZM386.084 75.8247C385.346 77.2975 382.675 79.0109 379.581 78.399C376.456 77.397 377.712 74.7144 380.188 73.4932C383.494 71.8639 387.094 73.0896 386.207 75.5418C386.176 75.6289 386.126 75.742 386.084 75.8247ZM379.494 47.4216C378.55 48.5465 375.871 49.901 373.295 49.5154C370.906 48.9586 371.799 47.2628 373.362 46.2529C376.232 44.399 380.367 44.5796 379.965 46.5405C379.906 46.8217 379.748 47.1186 379.494 47.4216ZM367.323 29.2114C365.983 30.198 363.301 31.1505 361.302 30.9675C359.685 30.739 360.085 29.8208 361.141 29.0658C363.658 27.2674 368.598 26.6625 368.189 28.2036C368.133 28.4128 367.938 28.7574 367.323 29.2114ZM257.372 37.0829C255.987 37.7302 252.135 39.4988 250.963 39.9131C250.935 39.9202 250.898 39.9306 250.87 39.9376C251.092 39.613 258.939 36.1222 259.756 35.8932C259.714 35.944 259.65 36.0201 257.372 37.0829ZM350.513 19.8558C348.939 20.707 345.995 21.6342 344.288 21.6049C343.081 21.5571 343.547 21.0314 343.803 20.8076C345.42 19.3956 351.659 17.8508 351.657 18.8624C351.656 19.1014 351.239 19.4631 350.513 19.8558ZM296.241 23.7703C294.421 24.5052 291.274 25.6423 289.977 25.8726C289.827 25.8908 289.799 25.8917 289.727 25.8799C289.72 25.8652 289.712 25.8456 289.705 25.8309C290.194 25.228 297.711 22.4976 298.544 22.6203C298.546 22.6279 298.549 22.6365 298.552 22.645L298.559 22.6661C298.4 22.8424 297.62 23.2145 296.241 23.7703ZM327.278 18.2706C325.648 18.9507 322.484 19.9934 320.874 20.0688C320.678 20.0619 320.27 20.0467 320.619 19.7418C321.797 18.7111 328.853 16.6111 329.008 17.2437C329.051 17.4171 328.404 17.8007 327.278 18.2706ZM120.49 336.831C123.25 336.872 125.294 333.61 125.604 330.563C126.018 326.504 123.447 324.234 120.691 326.226C117.198 328.752 116.426 336.173 120.49 336.831ZM83.0809 336.199C85.0729 335.93 87.0391 332.902 87.3744 329.586C87.4238 329.101 87.4316 328.456 87.3939 328.018C87.1 324.601 84.6587 323.797 82.5562 326.425C79.6331 330.078 79.9765 336.472 83.0809 336.199ZM165.202 322.8C168.233 323.004 170.54 319.875 170.939 316.857C171.505 312.569 168.279 310.106 165.088 312.388C161.35 315.062 160.789 322.051 165.202 322.8ZM55.917 320.858C57.7712 320.42 59.5021 316.961 59.9554 314.006C60.0932 313.108 60.0948 312.424 60.0712 312.009C59.9172 309.3 58.3688 308.705 56.6883 310.708C54.0739 313.828 53.088 321.158 55.917 320.858ZM212.761 294.591C216.503 295.109 218.914 291.532 219.366 288.953C220.113 284.671 216.69 282.053 213.155 284.204C209.2 286.612 208.293 293.331 212.761 294.591ZM43.6388 291.254C45.1084 290.712 46.8292 287.215 47.5816 284.285C47.9041 283.028 48.0452 281.873 47.9688 281.118C47.8316 279.745 47.0737 279.636 46.0389 280.838C43.5894 283.684 41.4515 291.474 43.6388 291.254ZM259.176 254.435C262.554 254.935 265.51 252.123 266.153 249.181C267.119 244.758 263.065 242.207 259.155 244.778C255.245 247.349 254.612 253.356 259.176 254.435ZM47.9459 250.291C49.0958 249.579 51.0774 245.969 52.1374 243.172C52.3628 242.577 52.5019 242.127 52.603 241.798C52.6023 241.798 52.6014 241.799 52.6012 241.799L52.6015 241.798C52.7181 241.378 52.9901 240.399 52.8404 239.987C52.4601 238.938 50.0302 242.515 48.4339 246.473C47.586 248.576 47.0715 250.668 47.9459 250.291ZM298.526 207.612C301.824 208.097 304.886 205.52 305.571 202.904C305.606 202.77 305.645 202.59 305.669 202.449L305.672 202.428C306.334 198.309 301.781 196.367 297.94 199.13C294.428 201.655 294.188 206.802 298.526 207.612ZM67.6362 203.445C68.5678 202.72 70.8493 199.369 72.3144 196.816C73.8006 194.226 73.6385 193.961 73.5849 193.874C72.9301 193.979 66.9109 202.545 67.4822 203.504C67.531 203.497 67.5929 203.469 67.6362 203.445ZM326.187 159.65C329.492 159.937 331.95 157.997 332.919 155.947C333.243 155.21 333.289 155.067 333.362 154.731C334.141 151.114 329.668 149.329 325.884 151.746C322.557 153.871 321.41 158.761 326.176 159.648L326.178 159.649L326.179 159.649L326.18 159.649C326.181 159.649 326.181 159.649 326.181 159.649L326.183 159.649L326.184 159.65L326.185 159.65L326.186 159.65L326.187 159.65ZM100.118 155.881C100.87 155.241 103.071 152.772 105.025 150.375C106.455 148.622 107.162 147.645 107.125 147.471C106.212 147.938 99.8133 155.524 99.918 156.014L99.9207 156.013C99.9994 155.976 100.007 155.972 100.118 155.881ZM340.152 115.331C343.268 115.843 346.357 113.955 347.286 111.87C347.383 111.653 347.482 111.347 347.529 111.112C348.145 107.981 343.72 106.811 340.131 109.154C337.187 111.078 336.658 114.483 340.152 115.331ZM140.92 112.879C141.857 112.242 144.73 109.728 146.825 107.779C148.919 105.831 148.943 105.672 148.951 105.612C148.168 105.893 140.809 112.49 140.748 112.967L140.748 112.966L140.772 112.958C140.788 112.953 140.8 112.948 140.811 112.943C140.837 112.931 140.861 112.916 140.92 112.879ZM342.024 79.551C345.172 80.0503 348.196 78.154 349.167 76.5935C349.339 76.3164 349.499 75.9395 349.554 75.6779C350.07 73.2425 346.252 72.5385 342.858 74.4432C340.292 75.8832 338.811 78.662 342.024 79.551ZM185.306 78.1498C186.483 77.6157 189.84 75.3362 191.81 73.8965C193.742 72.4847 193.971 72.1871 194.046 72.0897L194.046 72.089C194.042 72.0726 194.037 72.0493 194.033 72.0331C193.753 72.0824 192.852 72.6035 191.194 73.6728C188.234 75.6101 185.511 77.6139 185.124 78.139L185.134 78.1772L185.139 78.1976C185.191 78.1893 185.258 78.1678 185.306 78.1498ZM334.69 54.2051C337.42 54.4895 340.474 52.856 341.63 51.5681C342.157 50.9806 342.265 50.528 342.287 50.3612C342.556 48.3036 337.858 48.643 334.783 50.9016C332.997 52.2133 332.473 53.8072 334.69 54.2051ZM228.567 53.5455C230.129 53.153 233.888 51.084 235.553 50.0641C237.661 48.7732 237.662 48.5343 237.663 48.4558C236.871 48.1798 228.326 52.8295 228.333 53.5323C228.399 53.5561 228.497 53.5526 228.567 53.5455ZM319.779 39.4946C321.897 39.5702 325.105 38.2494 326.658 37.0171C327.287 36.5181 327.652 36.0313 327.663 35.6805C327.706 34.0939 321.942 35.4841 319.44 37.665C318.559 38.4319 318.119 39.372 319.779 39.4946ZM266.896 39.2396C268.629 39.0198 272.113 37.4404 273.961 36.384C275.15 35.7047 275.839 35.1658 275.803 34.942C275.666 34.09 267.713 37.4697 266.553 38.8723C266.224 39.2711 266.678 39.2502 266.896 39.2396ZM297.467 34.696C299.104 34.6111 302.316 33.4294 304.341 32.1658C305.299 31.5692 305.823 31.0424 305.746 30.7576C305.454 29.677 298.371 32.1879 296.83 33.9185C296.357 34.4493 296.59 34.7326 297.467 34.696ZM143.567 284.427C142.965 287.638 140.433 291.059 137.395 290.986C133.111 290.316 134.19 283.046 138.076 280.041C141.229 277.602 144.152 279.579 143.66 283.818C143.638 284.002 143.602 284.245 143.567 284.427ZM106.444 286.57C105.883 290.168 103.356 293.543 101.036 293.792C97.5231 294.049 97.6131 287.397 101.174 283.475C103.715 280.679 106.373 281.399 106.542 284.927C106.564 285.384 106.524 286.058 106.444 286.57ZM187.183 265.68C186.66 268.667 183.914 272.584 180.118 272.175C175.55 270.848 177.054 263.688 181.387 261.11C184.828 259.063 187.916 261.497 187.183 265.68ZM80.5553 273.265C79.8041 276.385 77.6035 280.002 75.3607 280.406C72.2744 280.598 73.5308 273.67 76.5637 270.153C78.7002 267.676 80.6539 267.921 80.8321 270.686C80.8771 271.396 80.7743 272.36 80.5553 273.265ZM231.241 234.053C230.7 236.204 229.331 237.513 228.746 238.072L228.748 238.065C227.482 239.098 226.016 240.018 223.876 239.771C219.164 238.722 220.346 232.165 224.645 229.538C228.659 227.085 232.358 229.617 231.241 234.053ZM70.3083 245.188C69.431 247.883 67.1324 251.905 65.0976 252.445C62.631 252.516 64.924 245.627 67.9382 242.354C68.3745 241.879 70.5656 239.652 70.8135 242.394C70.8151 242.393 70.816 242.393 70.8169 242.392L70.8168 242.397C70.8099 242.909 70.7993 243.682 70.3083 245.188ZM269.661 193.487C268.937 196.382 265.655 199.325 262.105 198.921C257.64 198.198 258.25 192.675 262.078 189.978C265.998 187.217 270.378 188.936 269.761 192.993C269.738 193.143 269.698 193.34 269.661 193.487ZM77.579 207.075C76.2713 209.911 73.7303 213.522 72.1756 214.17C70.8339 214.508 71.7733 211.606 73.4927 208.685C75.5723 205.153 78.0032 202.775 78.4007 203.884C78.5807 204.388 78.2813 205.551 77.579 207.075ZM296.651 151.433C295.53 153.616 292.873 155.742 289.467 155.57C289.466 155.571 289.465 155.57 289.465 155.57L289.464 155.57L289.462 155.57C289.462 155.57 289.461 155.57 289.461 155.57L289.46 155.57L289.458 155.569L289.458 155.569C289.457 155.569 289.456 155.57 289.456 155.57C284.866 154.872 285.882 150.17 289.095 147.73C292.935 144.813 297.798 146.046 297.225 149.791C297.124 150.451 296.895 150.927 296.653 151.429L296.651 151.433ZM100.486 164.897C99.0023 167.121 96.1679 170.557 94.7042 171.223C93.8252 171.431 94.6805 169.835 95.2685 168.866C96.614 166.648 99.5956 162.883 101.396 161.793L101.397 161.792C101.397 161.792 101.398 161.792 101.398 161.792L101.399 161.791L101.4 161.791C101.659 161.672 102.198 161.426 101.869 162.389C101.778 162.656 101.461 163.435 100.486 164.897ZM310.825 111.308C309.802 113.613 306.35 115.887 303.033 115.465C299.3 114.7 300.27 110.938 303.693 108.792C307.51 106.399 311.725 107.374 311.085 110.503C311.034 110.752 310.928 111.076 310.825 111.308ZM135.298 123.952C133.38 126.154 130.277 129.054 128.89 129.694C128.504 129.85 128.38 129.756 128.513 129.407C128.587 129.21 129.113 128.076 132.129 125.048L132.13 125.047L132.131 125.047L132.133 125.045C134.735 122.493 136.825 120.934 136.995 121.421C137.062 121.612 136.657 122.391 135.298 123.952ZM311.57 80.4484C310.401 82.1612 307.059 84.3378 303.824 83.9676C300.596 83.2434 302.198 80.3768 304.718 78.7201C308.302 76.3658 312.532 76.6045 312.138 79.1382C312.074 79.5483 311.883 79.9892 311.57 80.4484ZM175.896 90.1674C173.775 92.076 170.551 94.4373 169.044 94.9269L169.043 94.9271C168.826 94.9729 168.376 95.0678 168.854 94.3669C170.342 92.194 177.558 86.9283 177.94 87.7381C178.06 87.9944 177.277 88.9253 175.896 90.1674ZM301.465 60.2052C299.881 61.8275 296.586 63.4966 294.027 63.3653C291.748 63.1082 292.355 61.3807 294.259 59.8584C297.552 57.2249 302.759 56.4111 302.451 58.5782C302.405 58.9081 302.195 59.4577 301.465 60.2052ZM217.351 65.8981C215.743 67.1687 211.88 69.693 209.813 70.0558C209.543 70.0558 208.911 70.0548 209.957 68.9663C212.224 66.6031 218.934 62.9143 219.161 63.9046C219.211 64.1255 218.767 64.7791 217.351 65.8981ZM282.19 50.9359C280.216 52.6416 276.721 54.1908 274.712 54.2491C273.337 54.2637 273.128 53.5492 274.181 52.4285C276.566 49.8907 283.096 47.5667 283.375 49.1577C283.448 49.574 283.016 50.2225 282.19 50.9359ZM253.579 53.0339C251.53 54.5547 248.103 56.2991 246.138 56.4665C244.986 56.4547 245.457 55.7356 246.054 55.1343C248.478 52.6964 255.245 49.7435 255.336 51.0838C255.349 51.2682 255.203 51.8281 253.579 53.0339ZM129.657 251.567C132.997 251.078 135.446 247.145 136.118 244.508C136.606 242.594 136.63 239.358 133.624 239.37L133.623 239.371L133.622 239.37L133.621 239.371L133.62 239.371L133.62 239.371L133.619 239.371L133.618 239.371C133.618 239.371 133.617 239.371 133.617 239.371L133.616 239.371C133.043 239.454 131.7 239.651 129.997 241.385C126.363 245.086 125.562 251.584 129.648 251.568C129.648 251.568 129.649 251.568 129.649 251.568L129.649 251.568L129.651 251.568L129.652 251.567L129.652 251.568L129.654 251.568C129.654 251.568 129.654 251.567 129.654 251.567L129.655 251.567L129.655 251.568C129.656 251.567 129.656 251.567 129.657 251.567ZM174.148 235.703C178.019 236.019 181.103 232.046 181.84 229.057C182.868 224.889 179.874 222.545 176.219 224.656C171.594 227.327 169.556 234.492 174.148 235.703ZM98.7102 241.579C101.183 241.247 103.947 237.655 104.979 234.506C105.276 233.598 105.449 232.625 105.44 231.907C105.401 228.868 102.818 228.82 100.124 231.808C96.7823 235.513 95.4328 241.673 98.7102 241.579ZM220.466 198.982C223.971 199.265 227.263 196.271 228.301 193.336C228.41 193.029 228.524 192.607 228.579 192.286C229.289 188.176 225.242 186.579 221.24 189.391C217.048 192.335 215.923 198.267 220.466 198.982ZM91.7789 209.111C94.2391 208.65 97.1683 204.626 98.3358 201.898C98.8879 200.607 99.0072 199.764 99.0284 199.376C99.1334 197.481 97.6964 197.387 95.6857 199.156C92.0644 202.343 89.0785 208.931 91.7789 209.111ZM254.331 153.014C257.791 153.047 260.638 150.713 261.925 148.387C262.159 147.942 262.55 147.2 262.639 146.282C262.989 142.673 258.298 141.908 254.41 144.939C251.009 147.592 249.705 152.486 254.322 153.014C254.322 153.014 254.322 153.014 254.322 153.014L254.323 153.014L254.324 153.014L254.325 153.014L254.326 153.014L254.326 153.014L254.327 153.014L254.328 153.015C254.329 153.014 254.329 153.014 254.329 153.014C254.329 153.014 254.33 153.014 254.33 153.014L254.331 153.014ZM111.291 164.307C113.377 163.753 116.568 160.185 118.07 157.822C118.87 156.563 119.325 155.485 119.319 154.865C119.303 153.262 116.524 154.924 113.707 158.219C111.446 160.864 109.433 164.46 111.291 164.307ZM266.962 111.19C270.634 111.589 274.251 108.83 275.45 106.685C275.659 106.31 275.855 105.81 275.926 105.467C276.54 102.479 272.61 101.852 268.675 104.31C265.396 106.358 263.325 110.255 266.962 111.19ZM149.78 120.632C151.646 120.157 155.001 117.418 156.962 115.156C158.042 113.912 158.674 112.856 158.655 112.332C158.589 110.522 152.484 114.823 149.827 118.551C149.434 119.103 148.269 120.884 149.78 120.632ZM259.569 84.3979C262.375 84.4801 265.91 82.3951 267.576 80.4163C268.345 79.5027 268.55 78.8405 268.586 78.4467C268.819 75.9447 263.731 76.788 260.081 79.8568C257.711 81.8482 256.939 84.1486 259.569 84.3979ZM194.717 89.4931C197.107 89.2188 200.929 86.498 202.768 84.6395C203.748 83.6479 204.296 82.8109 204.271 82.3414C204.196 80.9557 199.66 83.0306 196.315 85.9811C196.16 86.1182 192.534 89.341 194.717 89.4931ZM234.332 76.8839C237.186 76.5368 240.607 74.2261 242.125 72.6967C243.039 71.7759 243.501 70.9773 243.426 70.4469C243.157 68.5359 236.859 71.1006 233.935 74.3114C233.532 74.7547 231.655 76.9612 234.325 76.8843L234.325 76.8845C234.326 76.8838 234.326 76.884 234.326 76.884L234.327 76.8842C234.327 76.8842 234.328 76.8843 234.328 76.8836L234.329 76.8838L234.329 76.884L234.33 76.8839L234.33 76.8835L234.332 76.8839ZM160.062 203.189C158.869 206.404 155.558 209.879 152.287 209.885C148.06 209.363 150.027 202.633 154.395 199.364C155.562 198.49 156.454 198.213 156.987 198.047L156.989 198.041C159.961 197.31 161.368 199.667 160.062 203.189ZM132.561 198.542C131.26 201.671 128.014 205.193 125.255 205.453C121.88 205.452 123.231 200.016 126.693 196.333C129.772 193.057 132.993 192.65 133.197 195.51C133.239 196.096 133.163 197.098 132.561 198.542ZM198.767 182.039C197.707 184.756 194.244 188.43 190.499 188.261C186.131 187.59 187.754 181.582 192.138 178.42C195.962 175.662 199.652 176.721 199.188 180.443C199.132 180.892 198.959 181.549 198.767 182.039ZM130.721 170.343C129.232 173.381 125.747 177.041 123.123 177.436C120.425 177.529 121.926 173.175 125.057 169.733C128.148 166.336 131.391 165.273 131.483 167.628C131.498 168.03 131.42 168.915 130.721 170.343ZM229.066 146.85C227.62 149.311 224.611 151.853 221.146 151.984L221.146 151.984L221.144 151.984L221.143 151.984L221.142 151.984L221.141 151.984C221.14 151.984 221.14 151.984 221.14 151.984L221.139 151.984L221.138 151.984C216.757 151.672 218.073 147.015 221.252 144.14C225.153 140.613 230.103 140.683 229.933 144.263C229.885 145.275 229.415 146.224 229.066 146.85ZM154.531 134.376C153.933 135.215 153.42 135.771 152.876 136.359L152.88 136.354C149.757 139.541 147.695 140.19 146.954 140.321C144.855 140.575 145.548 138.233 147.431 135.823C150.75 131.575 155.822 128.841 155.91 131.252C155.936 131.972 155.433 133.111 154.531 134.376ZM238.437 113.82C237.049 116.089 233.232 119.138 229.673 118.959C226.021 118.31 228.232 114.202 231.448 111.855C234.213 109.837 238.553 108.495 239.166 111.347L239.17 111.343C239.187 111.825 239.212 112.553 238.437 113.82ZM191.8 106.322C190.083 108.539 186.16 111.71 183.26 111.898C180.599 111.577 183.44 107.83 186.487 105.494C189.859 102.906 193.023 102.11 192.997 103.854C192.993 104.137 192.869 104.943 191.8 106.322ZM223.972 98.6478C222.041 101.274 218.117 103.685 215.574 103.809C213.218 103.87 213.202 101.884 215.539 99.382C219.171 95.4945 225.061 93.661 224.946 96.4529C224.929 96.8745 224.746 97.5971 223.972 98.6478ZM154.419 172.123C157.533 171.939 161.137 168.528 162.69 165.474C163.14 164.588 163.446 163.634 163.508 162.919C163.793 159.646 160.148 159.738 156.418 163.096C152.463 166.657 150.731 172.022 154.419 172.123ZM190.192 152.625C193.577 152.307 196.798 149.45 198.359 146.929C198.651 146.438 199.427 145.131 199.432 143.806C199.446 140.507 194.825 140.93 190.908 144.587C187.584 147.689 185.934 152.524 190.175 152.626C190.176 152.625 190.177 152.626 190.178 152.626C190.178 152.626 190.179 152.625 190.18 152.626C190.181 152.626 190.181 152.626 190.182 152.625C190.183 152.626 190.184 152.626 190.184 152.625L190.186 152.626C190.186 152.625 190.187 152.625 190.187 152.625L190.188 152.626C190.189 152.625 190.189 152.625 190.19 152.625C190.19 152.625 190.191 152.625 190.191 152.625C190.191 152.625 190.192 152.625 190.192 152.625ZM175.447 137.263C178.876 137.187 182.876 133.547 184.444 130.948C185.001 130.026 185.2 129.362 185.269 129.049C185.9 126.178 182.788 126.057 178.986 128.804C175.142 131.581 171.898 136.685 175.447 137.263Z" fill="#FF7800"/>
</svg>
