<svg width="399" height="838" viewBox="0 0 399 838" fill="none" xmlns="http://www.w3.org/2000/svg">
<path fill-rule="evenodd" clip-rule="evenodd" d="M211.712 0.936269C209.592 1.30099 209.61 4.61431 210.3 6.85152C211.368 10.3113 213.943 12.3114 215.403 10.8152C217.536 8.63054 215.387 0.980593 211.721 0.935346L211.72 0.935059C211.72 0.93613 211.72 0.93613 211.719 0.935844L211.718 0.935558C211.718 0.935558 211.717 0.935273 211.716 0.936342L211.715 0.936057L211.714 0.935771C211.714 0.935771 211.713 0.935485 211.713 0.936555L211.712 0.936269ZM150.9 11.5399C148.467 11.3311 147.586 14.2274 148.165 17.0313C148.896 20.5638 151.596 22.8783 153.517 21.6188C156.175 19.8751 154.901 12.4132 150.9 11.5399ZM267.806 2.55142C266.332 2.84086 266.05 5.80331 267.203 8.89237C268.422 12.1633 270.622 13.8637 271.727 12.3894C273.615 9.87336 270.536 2.15036 267.806 2.55142ZM83.8265 34.9897C81.0405 34.6006 79.6241 37.6498 80.0951 40.63C80.659 44.1993 83.5324 46.457 85.789 45.1037C88.8887 43.2453 88.1813 36.0528 83.8265 34.9897ZM317.391 16.4687C316.198 16.94 316.43 20.073 317.328 22.7053C318.422 25.9116 320.173 27.7181 321.003 26.496C322.522 24.2577 319.518 15.918 317.391 16.4687ZM10.1497 71.715C6.65302 70.9364 4.94836 74.256 5.06241 76.9516C5.21805 80.6194 8.25464 83.1833 10.969 81.9397C14.5891 80.2823 14.6759 73.4798 10.1497 71.715ZM357.056 43.5562C356.274 44.1865 356.66 47.4928 357.469 50.193C357.763 51.1775 358.116 52.0848 358.459 52.7488C359.018 53.8236 359.789 54.6697 360.13 53.5154C360.787 51.2895 358.606 42.8328 357.056 43.5562ZM-70.1005 121.581C-73.7678 120.67 -75.9439 123.857 -76.104 126.511C-76.3385 130.41 -72.9579 133.29 -69.7568 131.916C-65.7476 130.197 -65.285 123.417 -70.1005 121.581ZM384.64 84.3266C384.289 85.1114 384.682 88.5949 385.249 91.3714C385.658 93.3787 386.111 94.7967 386.401 94.9878C387.156 95.4799 386.378 88.0218 385.12 84.7946L385.119 84.7978C384.89 84.2915 384.773 84.1765 384.64 84.3266ZM-153.563 184.603C-157.354 183.579 -159.875 186.648 -160.24 189.255C-160.838 193.547 -156.771 196.758 -153.107 194.889C-149.158 192.875 -148.768 186.387 -153.563 184.603ZM397.76 145.918L397.581 143.286C397.64 144.124 397.697 144.962 397.752 145.802L397.76 145.918ZM-234.707 260.528C-238.325 259.493 -241.166 262.003 -241.725 264.924C-242.561 269.301 -238.404 272.767 -234.43 271.001C-230.107 269.079 -229.544 262.39 -234.707 260.528ZM-306.44 348.479C-310.167 347.377 -313.178 350.081 -313.55 353.197C-314.061 357.485 -309.784 360.719 -305.922 358.964C-301.706 357.049 -301.313 350.249 -306.44 348.479ZM-361.209 443.119C-364.414 442.167 -367.54 444.074 -367.897 447.2C-367.971 447.862 -367.912 448.532 -367.72 449.19C-366.438 453.559 -360.109 455.02 -357.659 450.38L-357.668 450.378C-356.294 446.98 -358.39 444.018 -361.209 443.119ZM-393.176 535.714C-396.995 534.411 -399.291 536.591 -399.702 538.555C-400.008 540.02 -400.428 542.025 -398.555 543.784C-395.867 546.306 -393.097 545.45 -392.569 545.253C-389.544 544.121 -389.605 540.699 -389.648 540.023C-389.679 539.551 -389.99 537.12 -393.176 535.714ZM-403.725 622.029C-407.037 620.954 -409.353 622.53 -409.599 624.608C-409.988 627.88 -405.652 630.658 -402.35 629.253C-399.3 627.954 -399.574 623.708 -403.725 622.029ZM-395.986 695.682C-399.006 694.768 -401.166 696.156 -401.217 697.975C-401.223 698.172 -401.182 698.434 -401.148 698.629C-401.148 698.628 -401.148 698.627 -401.148 698.626C-401.148 698.625 -401.148 698.624 -401.148 698.623C-400.38 701.347 -396.716 702.548 -394.436 701.489C-391.94 700.331 -392.335 697.014 -395.986 695.682ZM-376.661 754.134C-379.604 753.261 -381.403 754.476 -381.571 755.689C-381.861 757.786 -378.054 759.491 -375.58 758.373C-373.805 757.571 -373.47 755.39 -376.661 754.134ZM-353.886 795.439C-356.242 794.84 -357.997 795.607 -358.357 796.39C-358.377 796.433 -358.401 796.496 -358.414 796.544C-358.831 798.113 -354.982 799.168 -352.923 798.05C-351.836 797.459 -351.555 796.19 -353.886 795.439ZM-333.592 820.469C-335.401 820.097 -337.219 820.452 -337.837 820.851C-337.864 820.869 -337.89 820.886 -337.914 820.905C-337.949 820.931 -337.98 820.957 -338.007 820.984C-338.025 821.002 -338.042 821.021 -338.057 821.039C-338.063 821.047 -338.069 821.055 -338.075 821.063C-338.104 821.103 -338.123 821.143 -338.135 821.183C-338.399 822.159 -334.266 822.482 -332.807 821.601C-332.401 821.354 -332.106 820.838 -333.592 820.469ZM-318.954 832.28C-320.307 832.077 -322.284 832.096 -323.193 832.173C-323.927 832.235 -323.971 832.313 -323.993 832.35C-323.823 832.745 -318.551 832.872 -318.352 832.487C-318.382 832.413 -318.487 832.359 -318.954 832.28ZM210.514 65.7107C207.543 65.6517 206.953 69.7061 207.669 72.6557C208.567 76.3521 211.261 78.5375 213.211 77.153C216.198 75.0337 214.937 66.5317 210.514 65.7107ZM270.033 64.4857C268.277 64.7618 267.482 67.8693 268.297 71.2715C269.145 74.8148 271.351 77.08 273.02 76.1199C275.759 74.5412 274.518 65.2669 270.431 64.4785C270.43 64.4782 270.428 64.479 270.426 64.4784C270.244 64.4628 270.173 64.4703 270.033 64.4857ZM144.259 80.8895C141.25 80.6026 139.773 84.1252 140.329 87.4652C140.997 91.4798 144.136 93.9139 146.55 92.2908C149.884 90.0455 149.001 81.9093 144.259 80.8895ZM322.299 77.079C320.755 77.5744 320.531 81.1891 321.293 84.2527C322.227 88.015 324.296 90.0496 325.468 88.3607C327.469 85.4814 324.951 76.5182 322.299 77.079ZM69.3269 110.902C66.4303 112.533 66.4463 115.859 66.52 116.839C66.8494 121.188 70.4506 123.869 73.4014 121.963C76.9999 119.639 76.4693 111.754 71.5891 110.594C70.822 110.483 70.2341 110.499 69.3358 110.903C69.3323 110.903 69.3301 110.902 69.3269 110.902ZM362.789 104.393C361.69 105.076 361.684 108.825 362.309 111.906C362.896 114.796 363.672 115.729 363.929 116.039L363.931 116.041C363.932 116.044 363.933 116.048 363.934 116.05C363.94 116.062 364.655 116.945 365.21 115.769C366.383 113.28 364.875 103.637 362.789 104.393ZM-10.3146 155.524C-12.5563 157.121 -13.0484 159.307 -13.0675 160.859C-13.1205 165.252 -9.28949 168.239 -5.87662 166.466C-1.7338 164.314 -1.5144 156.855 -6.65536 154.98C-7.72632 154.745 -8.7402 154.627 -10.3161 155.534C-10.3152 155.53 -10.3155 155.527 -10.3146 155.524ZM389.16 146.866C388.554 147.704 388.545 151.601 388.884 154.729C389.112 156.824 389.484 158.452 389.834 158.878C390.229 159.358 390.438 158.366 390.527 157.731C391.017 154.252 390.176 146.13 389.16 146.866ZM-88.6277 213.601C-92.9554 212.561 -95.6092 216.204 -95.8613 219.234C-96.2406 223.805 -91.9733 227.059 -88.1206 225.134C-83.6456 222.897 -83.1982 215.512 -88.6277 213.601ZM398.825 204.783C398.685 205.838 398.521 210.208 398.449 212.974L398.449 212.975C398.35 216.796 398.419 217.022 398.441 217.095C398.576 216.533 399.057 205.383 398.842 204.712C398.84 204.722 398.836 204.735 398.833 204.747C398.83 204.76 398.827 204.772 398.825 204.783ZM-169.069 285.961C-173.087 284.93 -176.372 287.984 -176.807 291.371C-177.405 296.045 -172.992 299.486 -168.8 297.61C-163.99 295.458 -163.341 287.897 -169.069 285.961ZM-241.314 370.85C-245.336 369.78 -248.702 372.746 -249.206 376.08C-249.965 381.1 -244.9 384.656 -240.463 382.216C-235.954 379.737 -235.701 372.642 -241.314 370.85ZM-297.753 462.379C-301.276 461.441 -304.804 463.581 -305.304 466.956C-305.997 471.627 -300.767 475.043 -296.424 472.759C-291.849 470.353 -292.681 463.854 -297.753 462.379ZM-332.911 551.867C-337.088 550.979 -339.319 553.44 -339.799 555.31C-339.847 555.497 -339.878 555.687 -339.941 555.869C-341.451 560.253 -336.014 564.203 -331.51 561.995C-328.075 560.311 -328.596 556.196 -328.602 556.154C-328.673 555.638 -329.212 553.001 -332.894 551.871L-332.897 551.871L-332.899 551.87L-332.901 551.87L-332.903 551.869L-332.905 551.868L-332.907 551.868L-332.909 551.867L-332.911 551.867ZM-346.277 635.174C-349.9 634.114 -352.758 635.887 -353.154 638.209C-353.766 641.787 -348.996 644.639 -345.181 642.975C-341.65 641.435 -341.626 636.903 -346.277 635.174ZM-342.401 705.588C-345.596 704.725 -348.208 706.132 -348.641 707.989C-349.345 711.002 -344.607 713.42 -341.187 711.797C-338.277 710.414 -338.416 706.906 -342.401 705.588ZM-327.17 760.776C-330.417 759.925 -332.647 761.296 -333.132 762.491C-334.105 764.893 -329.726 766.753 -326.532 765.295C-324.459 764.348 -323.798 761.981 -327.17 760.776ZM-308.173 799.312C-310.834 798.731 -313.069 799.653 -313.742 800.46C-313.869 800.612 -313.982 800.824 -314.018 800.977C-314.403 802.659 -310.156 803.392 -307.619 802.083C-306.252 801.377 -305.685 800.022 -308.173 799.312ZM-290.237 822.613C-292.084 822.305 -294.532 822.688 -295.661 823.24C-296.173 823.489 -296.304 823.703 -296.325 823.839C-296.485 824.919 -291.123 824.824 -289.495 823.717C-289.317 823.596 -288.514 822.973 -290.237 822.613ZM-274.989 834.049C-276.439 833.894 -278.981 834.036 -280.508 834.259C-281.71 834.434 -281.775 834.575 -281.797 834.621L-281.797 834.622C-281.793 834.631 -281.786 834.641 -281.778 834.65C-281.774 834.653 -281.771 834.657 -281.767 834.661C-281.753 834.674 -281.736 834.687 -281.721 834.696C-281.72 834.696 -281.719 834.696 -281.719 834.696H-281.718L-281.718 834.696C-280.841 835.045 -274.562 834.828 -274.356 834.252C-274.396 834.177 -274.468 834.115 -274.989 834.049ZM-260.19 837.891C-261.027 837.861 -262.765 837.849 -266.003 837.855C-267.967 837.859 -268.003 837.865 -268.075 837.879L-268.075 837.879C-267.286 837.938 -260.127 838.058 -259.846 837.913C-259.961 837.9 -260.075 837.895 -260.19 837.891ZM198.565 140.612C198.146 137.402 199.386 133.035 202.802 133.186C207.786 134.118 208.57 143.337 204.969 145.909C202.379 147.759 199.149 145.085 198.565 140.612ZM262.821 136.177C262.165 132.306 263.512 128.669 265.704 128.392C269.662 128.031 271.934 137.162 268.782 140.759C266.672 143.169 263.607 140.813 262.821 136.177ZM126.913 160.997C126.645 157.262 128.725 153.506 132.25 153.869C137.473 154.971 138.069 163.729 134.231 166.456C133.974 166.639 133.594 166.824 133.307 166.956L133.308 166.966C129.978 168.157 127.187 164.797 126.913 160.997ZM318.136 147.304C317.559 143.817 318.292 139.732 320.301 139.208C323.537 138.652 325.533 148.06 322.937 151.635C321.288 153.907 318.865 151.72 318.136 147.304ZM49.2121 197.667C49.1852 194.271 51.5283 190.013 56.0031 190.851C61.7685 192.894 61.3376 201.477 56.5817 203.713C53.0383 205.38 49.2503 202.271 49.2121 197.667ZM360.026 174.685C359.642 171.216 360.188 167.034 361.614 166.34C364.328 165.588 364.963 176.382 363.167 179.102C362.196 180.575 360.969 179.443 360.315 176.47C360.207 175.979 360.088 175.245 360.026 174.685ZM-32.0638 250.194C-31.9028 246.769 -29.1274 242.562 -24.3341 243.572C-18.4308 245.554 -19.0242 253.996 -23.9519 256.376C-27.9693 258.317 -32.2901 255.023 -32.0638 250.194ZM385.233 218.779C385.188 215.327 385.7 211.066 386.61 210.202C388.173 209.441 388.129 219.439 386.933 222.786C386.766 223.255 386.327 224.252 385.87 223.385C385.5 222.685 385.261 220.962 385.233 218.779ZM-112.274 317.024C-111.891 314.812 -110.679 313.527 -110.094 312.908L-110.092 312.905L-110.094 312.915L-110.092 312.913C-109.161 312.117 -107.229 310.466 -103.962 311.21C-97.687 313.204 -98.5028 321.654 -103.828 324.03C-108.519 326.122 -113.176 322.261 -112.274 317.024ZM391.32 280.012C391.687 276.795 392.441 271.747 392.902 270.633C392.917 270.613 392.939 270.587 392.955 270.567C393.464 271.594 391.485 283.799 391.099 284.281C391.034 284.149 390.884 283.835 391.32 280.012ZM-185.158 397.845C-184.475 394.275 -180.861 391.138 -176.57 392.157C-170.458 393.968 -170.87 401.827 -175.856 404.542C-180.715 407.187 -186.193 403.243 -185.158 397.845ZM-242.887 485.059C-242.186 481.403 -238.352 479.081 -234.516 479.99C-229.145 481.41 -228.169 487.961 -232.884 490.943C-237.739 494.014 -243.909 490.385 -242.887 485.059ZM-279.882 570.126C-279.07 567.704 -276.293 565.446 -272.114 566.209L-272.112 566.209L-272.11 566.21L-272.108 566.211L-272.106 566.211L-272.105 566.211L-272.103 566.212L-272.101 566.213L-272.098 566.213C-265.636 568.001 -266.909 574.559 -270.479 576.739C-275.066 579.539 -281.203 576.257 -280.282 571.496L-280.275 571.458C-280.252 571.347 -280.219 571.237 -279.882 570.126ZM-296.369 649.823C-295.877 647.589 -292.855 645.107 -288.465 646.256C-283.501 647.945 -283.785 652.818 -287.713 654.6C-292.05 656.571 -297.227 653.713 -296.369 649.823ZM-295.157 716.219C-294.551 714.156 -291.389 712.447 -287.821 713.295C-283.559 714.565 -283.691 718.243 -287 719.875C-290.11 721.41 -294.672 720.46 -295.253 717.349L-295.247 717.351C-295.265 717.046 -295.289 716.667 -295.157 716.219ZM-282.878 767.337C-282.187 765.919 -279.237 764.309 -275.708 765.112C-272.169 766.246 -273.149 768.755 -275.537 769.893C-279.157 771.619 -283.824 770.192 -282.99 767.615C-282.963 767.529 -282.917 767.419 -282.878 767.337ZM-265.696 802.202C-264.682 801.31 -261.848 800.229 -258.988 800.744C-256.655 801.316 -256.994 802.587 -258.497 803.497C-261.457 805.284 -266.904 804.923 -266.269 802.98C-266.185 802.724 -265.992 802.462 -265.696 802.202ZM-247.827 823.062C-246.267 822.36 -243.267 821.766 -241.142 822.031C-239.402 822.316 -240.192 822.977 -240.475 823.173C-242.095 824.293 -247.5 825.13 -248.782 824.222C-248.781 824.223 -248.778 824.223 -248.777 824.222C-248.895 824.094 -249.257 823.704 -247.827 823.062ZM-229.165 833.114C-227.166 832.676 -223.913 832.271 -222.258 832.366C-221.692 832.408 -221.47 832.504 -221.601 832.649C-222.297 833.429 -231.089 834.442 -230.916 833.724C-230.88 833.575 -230.226 833.346 -229.165 833.114ZM-206.32 835.971C-203.76 835.656 -200.333 835.31 -199.033 835.277C-198.628 835.268 -198.612 835.282 -198.572 835.323C-199.35 835.676 -207.649 836.467 -208.78 836.378C-208.741 836.324 -208.699 836.264 -206.32 835.971ZM254.981 193.988C252.257 194.256 250.302 198.385 250.799 202.822C251.385 208.063 255.066 210.423 257.708 207.25C261.283 202.958 259.372 193.661 254.981 193.988ZM189.346 203.242C185.686 203.039 183.543 207.167 183.657 211.108C183.782 215.476 186.461 218.545 189.504 217.809C189.505 217.812 189.505 217.815 189.504 217.819C189.913 217.684 190.421 217.514 190.98 217.103C195.258 213.956 194.968 204.285 189.346 203.242ZM311.31 202.386C308.822 202.909 307.467 207.556 307.807 211.401C307.954 213.083 308.518 216.048 310.616 216.999L310.616 216.997C310.616 216.995 310.616 216.993 310.616 216.99C311.606 217.293 312.527 216.895 313.356 215.807C316.618 211.516 315.147 201.858 311.31 202.386ZM113.087 230.869C109.329 232.911 109.018 236.989 109.012 238.191C108.987 243.519 113.181 246.761 117.027 244.386C121.867 241.396 121.949 231.709 115.801 230.459C115.005 230.374 114.301 230.35 113.086 230.88C113.086 230.878 113.087 230.877 113.087 230.875L113.087 230.872V230.869ZM353.338 228.841C351.434 229.571 350.345 234.139 350.428 237.954C350.453 239.117 350.581 239.995 350.683 240.527C351.3 243.728 352.785 244.571 354.138 242.488C356.593 238.706 356.536 228.168 353.338 228.841ZM38.0336 275.472C32.9706 274.557 29.9733 279.368 29.838 283.043C29.6425 288.351 34.261 291.693 38.5085 289.318C43.706 286.411 44.2946 277.506 38.0336 275.472ZM376.692 273.656C375.235 274.65 374.17 280.015 373.961 283.503C373.803 286.157 374.095 287.371 374.227 287.77C374.578 288.823 375.151 288.74 375.798 287.543C377.725 283.975 378.832 272.972 376.692 273.656ZM-40.4174 336.948C-45.4549 335.946 -48.839 340.268 -49.3444 343.772C-50.1889 349.634 -44.899 353.456 -39.9088 350.587C-34.6064 347.538 -34.0206 338.873 -40.4174 336.948ZM379.14 336.082C378.283 337.203 376.863 342.597 376.172 345.892C375.801 347.663 375.236 350.676 375.624 350.961C376.789 350.318 380.102 336.641 379.241 336.026C379.226 336.034 379.208 336.044 379.19 336.054L379.187 336.056C379.17 336.065 379.154 336.074 379.14 336.082ZM-113.09 412.899C-117.858 411.904 -121.847 415.659 -122.445 419.651C-123.293 425.322 -117.809 429.022 -112.667 426.249C-107.208 423.305 -106.542 414.695 -113.09 412.899ZM-180.591 499.91C-180.855 500.406 -181.182 501.022 -181.372 501.806C-182.77 507.593 -176.281 511.411 -170.851 507.997C-165.557 504.669 -166.375 497.646 -172.219 496.258C-173.1 496.074 -177.647 495.389 -180.6 499.909C-180.597 499.909 -180.594 499.91 -180.591 499.91ZM-211.871 578.743C-216.371 578.057 -219.497 580.559 -220.498 583.171C-220.612 583.498 -220.692 583.725 -220.749 583.889C-220.85 584.181 -220.878 584.272 -220.901 584.363C-220.908 584.389 -220.914 584.416 -220.921 584.446C-222.142 589.57 -215.62 592.894 -210.506 589.755C-206.166 587.092 -205.168 580.395 -211.855 578.746L-211.856 578.745L-211.858 578.745L-211.861 578.744L-211.863 578.744L-211.864 578.743L-211.866 578.743L-211.868 578.742C-211.869 578.742 -211.869 578.743 -211.87 578.743H-211.871ZM-230.619 655.071C-234.987 654.064 -238.845 656.472 -239.577 659.263C-240.675 663.456 -235.121 666.243 -230.29 663.923C-225.915 661.822 -225.329 656.708 -230.619 655.071ZM-232.395 718.448C-236.212 717.666 -239.694 719.489 -240.731 721.628C-240.841 721.854 -240.954 722.175 -241.001 722.421C-241.723 726.063 -235.789 727.737 -231.526 725.093C-228.323 723.107 -228.09 719.58 -232.395 718.448ZM-222.162 766.578C-225.891 765.868 -229.371 767.638 -230.45 769.188C-230.672 769.508 -230.821 769.886 -230.867 770.101C-231.439 772.878 -225.882 773.67 -221.99 771.366C-219.766 770.05 -218.548 767.588 -222.162 766.578ZM-205.81 798.892C-208.602 798.505 -212.087 799.596 -213.713 800.828C-214.474 801.404 -214.674 801.862 -214.708 802.145C-214.948 804.118 -208.865 803.849 -205.542 801.74C-203.874 800.681 -203.43 799.362 -205.81 798.892ZM-185.42 817.399C-187.725 817.224 -191.43 818.12 -193.445 819.064C-194.377 819.501 -195.351 820.119 -194.701 820.581L-194.707 820.582C-193.103 821.36 -186.553 820.015 -184.694 818.528C-184.346 818.251 -183.721 817.583 -185.42 817.399ZM-78.6633 814.983C-79.7971 815.256 -82.6096 816.019 -87.4838 817.342C-90.9479 818.282 -90.9644 818.288 -91.1282 818.348C-89.9789 818.094 -79.0713 815.247 -78.471 814.942L-78.5452 814.957C-78.5857 814.966 -78.6277 814.975 -78.6633 814.983ZM-159.734 825.083C-161.665 825.09 -165.702 825.932 -168.117 826.685C-169.386 827.081 -170.163 827.435 -170.197 827.633C-170.359 828.589 -159.771 826.46 -158.98 825.377C-158.842 825.187 -159.095 825.088 -159.734 825.083ZM-125.073 824.212C-127.111 824.393 -131.926 825.524 -133.609 825.945C-135.497 826.416 -136.566 826.734 -136.787 826.894C-136.379 827.297 -125.12 824.811 -124.741 824.234C-124.819 824.205 -124.859 824.205 -125.073 824.212ZM232.749 270.198C232.741 266.756 234.491 261.634 238.403 261.029L238.404 261.029C238.405 261.028 238.405 261.028 238.406 261.028L238.407 261.029L238.409 261.028L238.411 261.028C238.411 261.028 238.411 261.027 238.412 261.028L238.413 261.028H238.414C238.414 261.028 238.415 261.028 238.415 261.027C243.953 261.033 244.477 271.121 240.398 275.418C236.979 279.018 232.761 276.14 232.749 270.198ZM163.921 284.111C164.182 279.886 167 275.488 171.101 275.75C177.503 276.903 176.963 287.593 171.713 290.894C167.641 293.453 163.564 289.903 163.921 284.111ZM290.811 276.116C290.718 271.296 293.035 266.666 295.77 266.205C300.009 265.742 300.985 275.588 297.182 280.443C294.613 283.721 291.572 282.327 290.922 277.577C290.862 277.142 290.82 276.556 290.811 276.116ZM88.3347 318.872C88.5851 314.849 91.7384 309.696 97.0072 310.485C103.689 312.635 102.447 322.821 96.6033 325.695C92.2444 327.836 87.9944 324.33 88.3347 318.872ZM333.484 301.223C333.759 297.073 335.532 292.146 337.914 291.426C341.484 290.878 340.984 301.206 337.978 305.702C336.161 308.42 334.253 307.953 333.635 304.643C333.46 303.71 333.404 302.432 333.484 301.223ZM11.0654 371.608C11.6124 367.775 15.2133 362.945 20.5549 363.848C27.3212 365.797 26.2621 375.503 20.4358 378.689C15.3878 381.448 10.2208 377.544 11.0654 371.608ZM354.934 346.974C355.511 343.26 357.321 337.608 359.221 336.656C361.808 336.14 359.856 347.172 357.156 351.362C356.114 352.977 355.236 353.134 354.861 351.767C354.732 351.299 354.48 349.893 354.934 346.974ZM-61.5323 440.341C-61.07 438.227 -60.0295 436.961 -59.3418 436.126L-59.3403 436.126L-59.3383 436.126C-59.3366 436.126 -59.3347 436.126 -59.333 436.127L-59.3327 436.127C-58.2538 435.056 -55.7289 432.55 -51.593 433.291C-44.6591 435.052 -45.7143 444.406 -51.6688 447.565C-57.2331 450.518 -62.8564 446.401 -61.5323 440.341ZM352.59 410.77C353.692 407.041 355.931 401.296 357.267 400.215C357.316 400.203 357.382 400.189 357.431 400.177C358.619 401.099 353.518 415.478 351.861 415.877C351.306 415.456 352.079 412.497 352.59 410.77ZM-121.463 517.822C-120.62 513.458 -115.933 510.334 -111.431 511.136C-105.312 512.435 -104.739 520.03 -110.486 523.637C-116.019 527.109 -122.584 523.633 -121.463 517.822ZM327.154 484.624C328.668 481.513 331.229 476.529 332.178 475.183C332.196 475.163 332.218 475.137 332.238 475.113L332.249 475.1C332.493 475.992 325.637 488.843 325.054 489.527C325.017 489.395 324.949 489.151 327.154 484.624ZM-162.095 594.241C-161.163 591.872 -157.872 588.576 -152.63 589.21L-152.628 589.211L-152.626 589.211L-152.624 589.212C-152.623 589.212 -152.623 589.212 -152.622 589.211C-152.622 589.211 -152.622 589.211 -152.621 589.211L-152.619 589.212L-152.618 589.212L-152.616 589.213L-152.614 589.213C-145.623 590.739 -146.961 597.787 -151.657 600.711C-157.279 604.209 -164.09 600.897 -162.534 595.421C-162.527 595.393 -162.52 595.37 -162.513 595.347C-162.475 595.217 -162.425 595.09 -162.095 594.241ZM-182.87 665.733C-181.669 662.925 -177.58 660.449 -173.064 661.345C-167.768 662.811 -168.325 667.733 -172.604 670.337C-177.928 673.574 -184.477 671.026 -183.062 666.265C-183.015 666.102 -182.936 665.889 -182.87 665.733ZM-185.719 724.504C-184.6 722.274 -180.546 719.681 -175.847 720.611C-171.099 722.132 -173.005 726.195 -176.763 728.043C-181.781 730.508 -187.249 728.647 -185.905 724.933C-185.894 724.9 -185.88 724.864 -185.865 724.828L-185.849 724.788L-185.838 724.761C-185.8 724.671 -185.757 724.58 -185.719 724.504ZM-175.683 767.542C-174.251 765.839 -170.183 763.79 -166.272 764.377C-162.643 765.223 -163.997 767.791 -166.37 769.319C-170.727 772.125 -177.005 771.847 -176.397 768.877C-176.309 768.451 -176.068 768.001 -175.683 767.542ZM-157.178 795.143C-155.145 793.65 -151.073 792.21 -148.037 792.489C-145.582 792.837 -146.188 794.228 -147.791 795.37C-151.611 798.092 -159.112 799.004 -158.492 796.669C-158.408 796.352 -158.112 795.831 -157.178 795.143ZM9.77936 783.33C11.8827 782.351 17.7301 779.675 19.5094 779.049C19.5303 779.043 19.555 779.037 19.5797 779.03C19.6044 779.024 19.6291 779.017 19.65 779.012C19.3139 779.503 7.40173 784.784 6.16101 785.13C6.22522 785.053 6.32156 784.938 9.77936 783.33ZM-131.645 809.334C-129.256 808.046 -124.786 806.645 -122.193 806.691C-120.36 806.765 -121.068 807.56 -121.456 807.899C-123.911 810.037 -133.384 812.371 -133.381 810.838C-133.38 810.476 -132.747 809.929 -131.645 809.334ZM-49.2282 803.459C-46.4657 802.348 -41.688 800.628 -39.7188 800.281C-39.4912 800.253 -39.4485 800.252 -39.3387 800.27C-39.3336 800.281 -39.3279 800.294 -39.3222 800.307C-39.3165 800.32 -39.3109 800.333 -39.3058 800.344C-40.0475 801.257 -51.4588 805.386 -52.7238 805.199C-52.7318 805.178 -52.7407 805.151 -52.7476 805.13C-52.5062 804.863 -51.3219 804.3 -49.2282 803.459ZM-96.361 811.76C-93.8854 810.731 -89.0831 809.155 -86.6381 809.042C-86.3406 809.053 -85.7209 809.076 -86.2507 809.538C-88.0378 811.098 -98.7512 814.272 -98.9867 813.314C-99.0515 813.051 -98.0699 812.471 -96.361 811.76ZM217.327 329.333C213.136 329.267 210.036 334.208 209.568 338.823C208.943 344.973 212.851 348.415 217.033 345.4C222.335 341.576 223.5 330.333 217.327 329.333ZM274.139 330.329C271.114 330.734 268.132 335.32 267.626 340.344C267.551 341.078 267.54 342.055 267.598 342.719C268.048 347.896 271.756 349.116 274.946 345.137C279.381 339.605 278.853 329.918 274.139 330.329ZM149.449 350.544C144.846 350.232 141.346 354.971 140.743 359.543C139.887 366.037 144.788 369.773 149.632 366.319C155.307 362.271 156.151 351.684 149.449 350.544ZM315.403 353.597C312.587 354.26 309.962 359.499 309.277 363.975C309.069 365.336 309.067 366.371 309.103 367C309.34 371.104 311.692 372.008 314.242 368.974C318.209 364.25 319.698 353.147 315.403 353.597ZM77.252 393.232C71.5691 392.444 67.9103 397.86 67.2277 401.767C66.0964 408.254 71.2983 412.225 76.6642 408.969C82.6672 405.325 84.038 395.147 77.252 393.232ZM334.084 398.461C331.853 399.28 329.244 404.577 328.104 409.015C327.616 410.919 327.403 412.668 327.519 413.813C327.729 415.892 328.88 416.059 330.451 414.239C334.167 409.929 337.406 398.13 334.084 398.461ZM6.80969 454.022C1.67905 453.261 -2.80692 457.519 -3.78015 461.974C-5.24274 468.674 0.917175 472.544 6.85147 468.653C12.7857 464.762 13.7422 455.661 6.80969 454.022ZM327.591 460.516C325.846 461.593 322.84 467.062 321.234 471.297C320.892 472.198 320.681 472.88 320.528 473.378C320.529 473.378 320.53 473.378 320.531 473.377L320.53 473.378C320.353 474.014 319.941 475.498 320.169 476.122C320.748 477.711 324.434 472.295 326.854 466.299C328.14 463.114 328.919 459.945 327.591 460.516ZM-52.8982 524.92C-57.9067 524.182 -62.5538 528.084 -63.5918 532.046C-63.6479 532.259 -63.7097 532.549 -63.7452 532.766C-64.7462 539.007 -57.8301 541.953 -51.9991 537.772C-46.6692 533.95 -46.3106 526.152 -52.8982 524.92ZM297.733 531.469C296.319 532.567 292.858 537.641 290.635 541.508C288.381 545.431 288.628 545.833 288.709 545.964C289.703 545.806 298.835 532.834 297.966 531.38C297.892 531.391 297.798 531.434 297.733 531.469ZM-94.8496 597.556C-99.8695 597.116 -103.599 600.053 -105.069 603.158C-105.56 604.274 -105.631 604.49 -105.74 605C-106.92 610.48 -100.125 613.188 -94.3822 609.53C-89.3322 606.315 -87.5955 598.906 -94.834 597.557L-94.8362 597.557L-94.8383 597.556L-94.8394 597.556C-94.8407 597.557 -94.8418 597.556 -94.8418 597.556L-94.8439 597.556L-94.845 597.556L-94.8471 597.555H-94.848L-94.8487 597.555L-94.8496 597.556ZM248.452 603.496C247.311 604.465 243.971 608.204 241.006 611.832C238.837 614.488 237.764 615.967 237.82 616.231C239.206 615.523 248.916 604.037 248.756 603.295L248.752 603.297C248.633 603.353 248.621 603.358 248.452 603.496ZM-116.006 664.685C-120.74 663.906 -125.427 666.764 -126.836 669.92C-126.983 670.25 -127.134 670.713 -127.204 671.069C-128.136 675.811 -121.416 677.589 -115.968 674.043C-111.5 671.132 -110.7 665.973 -116.006 664.685ZM186.536 668.604C185.114 669.568 180.754 673.374 177.574 676.325C174.396 679.273 174.36 679.514 174.348 679.604C175.537 679.18 186.706 669.193 186.798 668.471L186.797 668.471C186.753 668.486 186.727 668.495 186.701 668.507C186.663 668.524 186.626 668.547 186.536 668.604ZM-118.816 718.889C-123.598 718.13 -128.187 721 -129.66 723.363C-129.922 723.783 -130.163 724.353 -130.247 724.75C-131.028 728.439 -125.229 729.509 -120.077 726.627C-116.182 724.448 -113.937 720.24 -118.816 718.889ZM119.171 721.173C117.384 721.981 112.289 725.431 109.299 727.61C106.366 729.747 106.019 730.197 105.906 730.345L105.905 730.346C105.91 730.363 105.915 730.385 105.92 730.405L105.926 730.431C106.35 730.356 107.718 729.568 110.235 727.949C114.728 725.017 118.861 721.984 119.448 721.189C119.441 721.163 119.432 721.128 119.425 721.1C119.347 721.113 119.245 721.145 119.171 721.173ZM-107.648 757.297C-111.793 756.863 -116.43 759.335 -118.183 761.285C-118.983 762.174 -119.146 762.86 -119.18 763.112C-119.587 766.229 -112.453 765.72 -107.785 762.301C-105.074 760.316 -104.281 757.902 -107.648 757.297ZM53.5064 758.404C51.1342 758.997 45.4282 762.128 42.9004 763.671C39.7018 765.625 39.6998 765.987 39.6988 766.106C40.9014 766.525 53.872 759.489 53.8611 758.424C53.7607 758.388 53.6125 758.393 53.5064 758.404ZM-85.0023 779.598C-88.2193 779.482 -93.0889 781.479 -95.4463 783.345C-96.4002 784.1 -96.9548 784.837 -96.9703 785.369C-97.0346 787.772 -88.2838 785.672 -84.4857 782.371C-83.1488 781.21 -82.482 779.786 -85.0023 779.598ZM-4.68665 780.039C-7.31763 780.37 -12.6066 782.759 -15.4129 784.358C-17.2174 785.386 -18.2632 786.202 -18.2087 786.541C-17.9994 787.832 -5.92496 782.72 -4.16544 780.596C-3.66611 779.992 -4.35559 780.023 -4.68665 780.039ZM-51.1073 786.892C-53.5929 787.019 -58.4701 788.806 -61.5441 790.718C-62.9975 791.621 -63.7931 792.419 -63.6762 792.85C-63.2309 794.488 -52.4775 790.691 -50.1386 788.071C-49.4216 787.267 -49.7752 786.837 -51.1073 786.892ZM182.342 408.691C183.253 403.826 187.094 398.646 191.708 398.76C198.214 399.78 196.584 410.792 190.685 415.341C185.899 419.033 181.459 416.034 182.202 409.613C182.234 409.335 182.29 408.966 182.342 408.691ZM238.708 405.482C239.556 400.031 243.389 394.92 246.912 394.545C252.247 394.159 252.117 404.238 246.713 410.176C242.858 414.409 238.821 413.316 238.56 407.97C238.527 407.279 238.587 406.257 238.708 405.482ZM116.128 437.047C116.919 432.524 121.086 426.591 126.851 427.215C133.789 429.23 131.513 440.076 124.935 443.978C119.711 447.076 115.02 443.384 116.128 437.047ZM278.031 425.664C279.168 420.939 282.506 415.462 285.912 414.851C290.598 414.564 288.697 425.059 284.096 430.384C280.854 434.133 277.886 433.761 277.613 429.571C277.544 428.497 277.699 427.036 278.031 425.664ZM49.2503 484.919C50.0693 481.661 52.1472 479.679 53.035 478.833L53.0324 478.843C54.9532 477.279 57.179 475.887 60.428 476.264C67.5848 477.857 65.797 487.791 59.2715 491.766C53.1788 495.478 47.5587 491.639 49.2503 484.919ZM293.621 468.213C294.951 464.131 298.437 458.041 301.526 457.224C305.272 457.119 301.797 467.554 297.223 472.51C296.561 473.229 293.236 476.6 292.857 472.446C292.854 472.447 292.853 472.447 292.852 472.448L292.852 472.442C292.862 471.666 292.877 470.494 293.621 468.213ZM-9.05365 546.337C-7.95618 541.953 -2.97662 537.497 2.41528 538.114C9.19681 539.213 8.27576 547.58 2.46579 551.662C-3.48401 555.841 -10.1376 553.232 -9.20435 547.086C-9.16974 546.859 -9.10889 546.56 -9.05365 546.337ZM282.615 525.948C284.598 521.653 288.453 516.184 290.813 515.205C292.85 514.694 291.427 519.089 288.819 523.513C285.664 528.862 281.975 532.462 281.371 530.782C281.097 530.017 281.55 528.256 282.615 525.948ZM-49.9941 610.023C-48.2932 606.717 -44.2607 603.499 -39.088 603.762C-39.0867 603.762 -39.0856 603.762 -39.0856 603.762L-39.0835 603.762L-39.0813 603.763C-39.0813 603.763 -39.0803 603.763 -39.08 603.762L-39.0778 603.763L-39.0757 603.763L-39.0746 603.764C-39.0735 603.764 -39.0722 603.763 -39.0722 603.763C-32.1006 604.825 -33.6388 611.947 -38.5158 615.641C-44.3443 620.056 -51.7297 618.183 -50.8639 612.509C-50.7108 611.51 -50.3638 610.79 -49.9971 610.029L-49.9941 610.023ZM247.883 589.825C250.134 586.456 254.435 581.254 256.657 580.247C257.991 579.931 256.694 582.348 255.802 583.816C253.761 587.176 249.238 592.876 246.504 594.526L246.503 594.527L246.503 594.527L246.502 594.528C246.502 594.528 246.502 594.528 246.502 594.528L246.5 594.529L246.499 594.529C246.106 594.709 245.288 595.082 245.785 593.623C245.924 593.218 246.404 592.039 247.883 589.825ZM-71.4759 670.797C-69.9249 667.307 -64.6858 663.866 -59.6482 664.508C-53.9786 665.67 -55.4475 671.369 -60.6438 674.617C-66.4379 678.238 -72.8384 676.758 -71.8712 672.017C-71.794 671.64 -71.6325 671.15 -71.4759 670.797ZM195.061 651.821C197.971 648.488 202.679 644.097 204.785 643.129C205.372 642.892 205.559 643.035 205.359 643.563C205.245 643.862 204.448 645.579 199.872 650.163C199.871 650.165 199.87 650.165 199.869 650.166L199.866 650.169C195.917 654.033 192.745 656.391 192.487 655.654C192.384 655.364 192.998 654.185 195.061 651.821ZM-72.5757 717.55C-70.8023 714.956 -65.7289 711.662 -60.8159 712.226C-55.914 713.326 -58.3437 717.668 -62.1692 720.175C-67.6096 723.738 -74.0331 723.372 -73.4366 719.534C-73.3408 718.913 -73.0502 718.245 -72.5757 717.55ZM133.439 702.964C136.659 700.074 141.552 696.5 143.841 695.76L143.842 695.76C144.171 695.691 144.855 695.547 144.129 696.609C141.872 699.899 130.919 707.869 130.339 706.642C130.156 706.254 131.344 704.844 133.439 702.964ZM-57.2132 748.229C-54.8094 745.773 -49.8072 743.247 -45.9205 743.449C-42.4598 743.841 -43.3794 746.457 -46.2698 748.762C-51.2677 752.748 -59.1731 753.976 -58.7086 750.693C-58.6386 750.193 -58.3209 749.361 -57.2132 748.229ZM70.5139 739.689C72.9546 737.766 78.8183 733.945 81.9568 733.398C82.3661 733.398 83.3264 733.4 81.7393 735.048C78.2982 738.626 68.1133 744.208 67.7677 742.707C67.6913 742.373 68.3643 741.383 70.5139 739.689ZM-27.9281 762.292C-24.9321 759.709 -19.6267 757.366 -16.5766 757.28C-14.4876 757.259 -14.1696 758.342 -15.7674 760.039C-19.3863 763.881 -29.3001 767.395 -29.7258 764.984C-29.8372 764.354 -29.1824 763.372 -27.9281 762.292ZM15.5212 759.142C18.6311 756.84 23.8336 754.201 26.8181 753.949C28.5673 753.968 27.8528 755.057 26.9467 755.968C23.2676 759.659 12.9959 764.125 12.8557 762.095C12.8356 761.815 13.0565 760.967 15.5212 759.142ZM203.473 458.481C198.401 459.218 194.686 465.175 193.668 469.17C192.929 472.069 192.897 476.972 197.461 476.956L197.462 476.955L197.465 476.956L197.466 476.955L197.467 476.955L197.468 476.955L197.468 476.955L197.469 476.955L197.47 476.955H197.471C197.471 476.955 197.472 476.955 197.472 476.954L197.474 476.955C198.344 476.829 200.383 476.533 202.967 473.907C208.481 468.304 209.692 458.46 203.486 458.48C203.486 458.48 203.485 458.48 203.484 458.481L203.482 458.48L203.481 458.481L203.48 458.481L203.478 458.48C203.477 458.481 203.477 458.481 203.476 458.481L203.475 458.481C203.474 458.481 203.474 458.481 203.474 458.481L203.473 458.481ZM135.929 482.47C130.051 481.988 125.372 488.004 124.256 492.531C122.699 498.844 127.247 502.4 132.796 499.205C139.816 495.163 142.904 484.31 135.929 482.47ZM250.483 473.646C246.729 474.146 242.534 479.585 240.971 484.354C240.52 485.73 240.259 487.203 240.274 488.292C240.336 492.896 244.259 492.971 248.346 488.447C253.417 482.837 255.46 473.507 250.483 473.646ZM65.6364 538.056C60.313 537.624 55.3176 542.156 53.7437 546.602C53.579 547.066 53.406 547.706 53.3226 548.191C52.2498 554.417 58.3969 556.841 64.4703 552.586C70.8328 548.13 72.5358 539.143 65.6364 538.056ZM261.042 522.842C257.306 523.538 252.862 529.632 251.092 533.763C250.255 535.718 250.075 536.996 250.043 537.584C249.886 540.453 252.068 540.597 255.119 537.92C260.615 533.095 265.143 523.117 261.042 522.842ZM14.2531 607.663C8.99854 607.611 4.67761 611.143 2.72568 614.666C2.37051 615.339 1.77823 616.464 1.64319 617.855C1.11603 623.321 8.24036 624.485 14.1406 619.897C19.3035 615.881 21.2786 608.469 14.2668 607.663C14.2665 607.664 14.2654 607.664 14.2654 607.664L14.2633 607.663L14.2622 607.663L14.2608 607.664L14.2598 607.664L14.2587 607.663L14.2566 607.663C14.2563 607.664 14.2552 607.664 14.2542 607.663L14.2531 607.663ZM231.457 590.7C228.289 591.537 223.447 596.94 221.17 600.518C219.956 602.424 219.267 604.056 219.275 604.997C219.302 607.425 223.521 604.91 227.795 599.921C231.225 595.915 234.278 590.47 231.457 590.7ZM-4.88437 671.014C-10.4611 670.406 -15.9503 674.582 -17.7687 677.83C-18.0862 678.398 -18.3827 679.156 -18.4901 679.675C-19.4203 684.201 -13.4517 685.155 -7.47882 681.436C-2.50122 678.336 0.640198 672.434 -4.88437 671.014ZM173.051 656.829C170.217 657.546 165.125 661.693 162.15 665.118C160.512 667.001 159.553 668.6 159.582 669.394C159.684 672.136 168.951 665.626 172.981 659.981C173.578 659.146 175.346 656.449 173.051 656.829ZM6.37357 711.612C2.11264 711.484 -3.25363 714.639 -5.78183 717.636C-6.948 719.019 -7.2587 720.022 -7.31348 720.618C-7.66434 724.409 0.0604248 723.136 5.60004 718.491C9.19714 715.476 10.367 711.992 6.37357 711.612ZM104.844 703.959C101.215 704.372 95.4147 708.491 92.6237 711.304C91.1357 712.806 90.3045 714.073 90.3439 714.784C90.4587 716.884 97.3445 713.745 102.421 709.278C102.657 709.071 108.16 704.192 104.844 703.959ZM44.7003 723.021C40.3667 723.544 35.1734 727.041 32.8694 729.356C31.4824 730.751 30.7815 731.96 30.8958 732.763C31.3071 735.659 40.8683 731.78 45.3044 726.918C45.9169 726.247 48.7647 722.906 44.7108 723.02L44.7097 723.02C44.7094 723.021 44.7084 723.021 44.7084 723.021L44.7073 723.02L44.7066 723.02C44.7063 723.02 44.7061 723.021 44.7059 723.021L44.7049 723.021L44.7038 723.021C44.7027 723.02 44.7024 723.021 44.7024 723.021L44.7003 723.021ZM157.35 531.736C159.158 526.866 164.183 521.605 169.15 521.598C175.569 522.393 172.589 532.588 165.96 537.536C164.188 538.858 162.835 539.277 162.025 539.528L162.022 539.537C157.51 540.642 155.371 537.069 157.35 531.736ZM199.117 538.803C201.089 534.065 206.015 528.732 210.204 528.341C215.329 528.346 213.284 536.581 208.031 542.157C203.358 547.116 198.466 547.729 198.155 543.396C198.09 542.508 198.205 540.991 199.117 538.803ZM98.5959 563.738C100.204 559.623 105.458 554.061 111.146 554.321C117.78 555.342 115.32 564.443 108.666 569.228C102.863 573.402 97.2585 571.795 97.959 566.157C98.0432 565.476 98.3059 564.481 98.5959 563.738ZM201.944 581.527C204.201 576.926 209.491 571.385 213.475 570.789C217.571 570.651 215.296 577.246 210.545 582.457C205.855 587.601 200.932 589.207 200.79 585.64C200.766 585.031 200.884 583.69 201.944 581.527ZM52.6221 617.019C54.8157 613.293 59.3821 609.444 64.6434 609.25L64.6444 609.25L64.6466 609.251L64.6479 609.25L64.6501 609.25L64.6512 609.251C64.6519 609.25 64.6523 609.25 64.6526 609.25L64.6536 609.25L64.6546 609.25L64.656 609.25C71.3087 609.727 69.3151 616.782 64.4908 621.133C58.5699 626.473 51.0539 626.362 51.3079 620.939C51.3793 619.405 52.092 617.968 52.6221 617.019ZM165.823 635.993C166.73 634.723 167.509 633.882 168.334 632.991L168.332 632.994L168.328 632.999C173.068 628.174 176.198 627.193 177.323 626.995C180.51 626.612 179.46 630.16 176.603 633.808C171.567 640.24 163.868 644.378 163.733 640.726C163.692 639.633 164.454 637.909 165.823 635.993ZM38.4187 667.051C40.5241 663.614 46.3182 658.999 51.7225 659.274C57.2684 660.261 53.9153 666.482 49.0338 670.035C44.8378 673.089 38.2491 675.118 37.3141 670.796L37.3123 670.798L37.3103 670.801L37.3089 670.803C37.2827 670.072 37.2442 668.969 38.4187 667.051ZM109.253 678.457C111.859 675.101 117.813 670.301 122.216 670.019C126.257 670.509 121.947 676.181 117.323 679.718C112.205 683.636 107.401 684.838 107.438 682.196C107.444 681.767 107.632 680.546 109.253 678.457ZM60.403 690.051C63.3333 686.074 69.2897 682.425 73.1507 682.24C76.7292 682.151 76.7547 685.159 73.2088 688.948C67.6972 694.833 58.7556 697.605 58.9263 693.375C58.9523 692.737 59.2291 691.642 60.403 690.051ZM165.948 578.804C161.219 579.079 155.749 584.244 153.394 588.87C152.712 590.21 152.249 591.657 152.155 592.739C151.726 597.697 157.26 597.562 162.921 592.478C168.923 587.088 171.548 578.96 165.948 578.804ZM111.642 608.307C106.502 608.786 101.614 613.111 99.2457 616.929C98.8028 617.673 97.6267 619.652 97.6196 621.659C97.6025 626.657 104.619 626.021 110.564 620.485C115.608 615.788 118.108 608.465 111.668 608.306C111.667 608.307 111.667 608.307 111.666 608.307L111.664 608.306C111.664 608.306 111.663 608.306 111.663 608.307C111.662 608.307 111.662 608.307 111.661 608.307C111.66 608.306 111.659 608.306 111.658 608.307C111.657 608.307 111.656 608.307 111.656 608.307C111.655 608.307 111.655 608.307 111.655 608.307L111.652 608.307C111.651 608.307 111.649 608.307 111.648 608.307C111.648 608.307 111.647 608.307 111.647 608.307L111.646 608.307C111.645 608.307 111.644 608.308 111.642 608.307ZM134.046 631.597C128.838 631.708 122.767 637.219 120.388 641.154C119.544 642.551 119.242 643.557 119.139 644.031C118.182 648.38 122.908 648.566 128.679 644.409C134.514 640.205 139.436 632.477 134.046 631.597Z" fill="url(#paint0_linear_500_481)" fill-opacity="0.44"/>
<defs>
<linearGradient id="paint0_linear_500_481" x1="-20.0037" y1="-16.9998" x2="412.097" y2="361.541" gradientUnits="userSpaceOnUse">
<stop stop-color="#D1D1D1"/>
<stop offset="1" stop-color="#550EC5"/>
</linearGradient>
</defs>
</svg>
