<svg width="236" height="270" viewBox="0 0 236 270" fill="none" xmlns="http://www.w3.org/2000/svg">
<path fill-rule="evenodd" clip-rule="evenodd" d="M175.56 0.000389125C174.88 0.117821 174.886 1.18465 175.107 1.90499C175.45 3.01898 176.277 3.66296 176.746 3.18122C177.431 2.47781 176.741 0.0146606 175.563 9.20672e-05L175.563 0C175.563 0.000344511 175.563 0.000344508 175.563 0.000252443L175.562 0.000160376C175.562 0.000160376 175.562 6.83706e-05 175.562 0.000412882L175.562 0.000320815L175.561 0.000228747C175.561 0.000228747 175.561 0.000136681 175.561 0.000481192L175.56 0.000389125ZM156.028 3.41443C155.246 3.34719 154.963 4.27976 155.149 5.18256C155.384 6.31997 156.251 7.06521 156.868 6.65964C157.722 6.09823 157.313 3.6956 156.028 3.41443ZM193.575 0.520445C193.102 0.613638 193.011 1.56749 193.381 2.56211C193.773 3.6153 194.48 4.16279 194.835 3.6881C195.441 2.87797 194.452 0.39131 193.575 0.520445ZM134.485 10.9649C133.59 10.8396 133.135 11.8213 133.287 12.7809C133.468 13.9302 134.391 14.6571 135.116 14.2214C136.111 13.623 135.884 11.3071 134.485 10.9649ZM209.5 5.0015C209.117 5.15324 209.191 6.16202 209.48 7.00956C209.831 8.04193 210.394 8.6236 210.66 8.23009C211.148 7.50939 210.183 4.82416 209.5 5.0015ZM110.823 22.7898C109.699 22.5391 109.152 23.6079 109.189 24.4759C109.239 25.6568 110.214 26.4823 111.086 26.0819C112.248 25.5483 112.276 23.358 110.823 22.7898ZM222.24 13.7231C221.988 13.9261 222.113 14.9907 222.372 15.8601C222.467 16.177 222.58 16.4692 222.69 16.683C222.87 17.029 223.118 17.3015 223.227 16.9298C223.438 16.2131 222.738 13.4902 222.24 13.7231ZM85.0476 38.8455C83.8697 38.552 83.1708 39.5784 83.1194 40.4328C83.0441 41.6883 84.1299 42.6155 85.158 42.1731C86.4456 41.6198 86.5942 39.4367 85.0476 38.8455ZM231.1 26.8505C230.987 27.1031 231.113 28.2247 231.295 29.1187C231.427 29.7651 231.572 30.2216 231.665 30.2832C231.908 30.4416 231.658 28.0402 231.254 27.0011L231.254 27.0022C231.18 26.8391 231.142 26.8021 231.1 26.8505ZM58.2396 59.1381C57.0221 58.8082 56.2123 59.7964 56.0953 60.6358C55.9033 62.0177 57.2093 63.0519 58.3862 62.45C59.6545 61.8014 59.7797 59.7125 58.2396 59.1381ZM235.313 46.6821L235.254 45.8341C235.274 46.104 235.292 46.3741 235.31 46.6445L235.313 46.6821ZM32.1802 83.584C31.0182 83.2508 30.1056 84.059 29.9262 84.9994C29.6575 86.4089 30.9929 87.5247 32.2691 86.9561C33.6575 86.3375 33.8384 84.1838 32.1802 83.584ZM9.14148 111.903C7.94432 111.548 6.97716 112.418 6.85782 113.422C6.69374 114.802 8.06741 115.844 9.30782 115.279C10.6617 114.662 10.7881 112.473 9.14148 111.903ZM-8.45018 142.375C-9.47983 142.069 -10.4837 142.683 -10.5983 143.689C-10.6222 143.902 -10.6031 144.118 -10.5413 144.33C-10.1298 145.737 -8.09712 146.207 -7.31015 144.713L-7.3129 144.713C-6.8717 143.619 -7.54486 142.665 -8.45018 142.375ZM-18.7163 172.189C-19.9429 171.77 -20.6804 172.472 -20.8123 173.104C-20.9108 173.576 -21.0454 174.221 -20.4441 174.788C-19.5808 175.6 -18.6909 175.324 -18.5214 175.261C-17.5499 174.896 -17.5695 173.794 -17.5834 173.577C-17.5931 173.425 -17.6931 172.642 -18.7163 172.189ZM-22.1052 199.981C-23.1692 199.635 -23.9128 200.142 -23.9919 200.811C-24.1169 201.865 -22.7241 202.759 -21.6638 202.307C-20.6841 201.888 -20.7722 200.522 -22.1052 199.981ZM-19.6207 223.696C-20.5907 223.402 -21.2845 223.849 -21.3008 224.434C-21.3027 224.498 -21.2896 224.582 -21.2788 224.645C-21.2786 224.644 -21.2788 224.644 -21.2787 224.643C-21.032 225.52 -19.8551 225.907 -19.123 225.566C-18.3212 225.193 -18.4482 224.125 -19.6207 223.696ZM-13.4128 242.516C-14.3579 242.235 -14.936 242.627 -14.9898 243.017C-15.0831 243.692 -13.8602 244.241 -13.0656 243.881C-12.4955 243.623 -12.388 242.921 -13.4128 242.516ZM-6.09592 255.816C-6.8526 255.623 -7.41631 255.87 -7.53168 256.122C-7.53839 256.136 -7.54599 256.156 -7.55016 256.172C-7.68401 256.677 -6.44783 257.016 -5.78644 256.656C-5.43759 256.466 -5.34726 256.058 -6.09592 255.816ZM0.418503 263.875C-0.162537 263.755 -0.746628 263.87 -0.944931 263.998C-0.998444 264.033 -1.03058 264.069 -1.0406 264.105C-1.12558 264.419 0.201797 264.523 0.670349 264.24C0.80101 264.16 0.895645 263.994 0.418503 263.875ZM5.1223 267.678C4.68797 267.613 4.05286 267.619 3.76082 267.644C3.52531 267.664 3.51089 267.689 3.50404 267.701C3.5587 267.828 5.25169 267.869 5.31583 267.745C5.30597 267.721 5.27235 267.704 5.1223 267.678ZM175.175 20.857C174.221 20.838 174.032 22.1434 174.262 23.0931C174.55 24.2833 175.415 24.987 176.042 24.5412C177.001 23.8588 176.596 21.1213 175.175 20.857ZM194.291 20.4626C193.727 20.5514 193.472 21.552 193.733 22.6475C194.006 23.7883 194.715 24.5177 195.25 24.2085C196.13 23.7002 195.732 20.7141 194.419 20.4602L194.418 20.4602L194.417 20.4602C194.359 20.4552 194.336 20.4576 194.291 20.4626ZM153.899 25.7444C152.933 25.652 152.458 26.7862 152.637 27.8617C152.851 29.1543 153.859 29.938 154.635 29.4154C155.705 28.6925 155.422 26.0728 153.899 25.7444ZM211.081 24.5175C210.585 24.677 210.513 25.8408 210.758 26.8273C211.058 28.0387 211.722 28.6938 212.099 28.15C212.741 27.2229 211.932 24.3369 211.081 24.5175ZM129.832 35.4074C128.902 35.9328 128.907 37.0035 128.931 37.3193C129.036 38.7193 130.193 39.5828 131.141 38.969C132.296 38.2208 132.126 35.682 130.559 35.3085C130.312 35.2728 130.123 35.2779 129.835 35.4078L129.833 35.4077L129.832 35.4074ZM224.083 33.3121C223.73 33.532 223.728 34.739 223.929 35.731C224.118 36.6615 224.367 36.9621 224.449 37.0617L224.45 37.0626L224.451 37.0653C224.453 37.0692 224.683 37.3534 224.861 36.975C225.237 36.1735 224.753 33.0684 224.083 33.3121ZM104.251 49.7753C103.531 50.2895 103.373 50.9934 103.367 51.4932C103.35 52.9076 104.58 53.8695 105.676 53.2984C107.007 52.6055 107.077 50.204 105.426 49.6002C105.082 49.5247 104.757 49.4865 104.251 49.7785C104.251 49.7775 104.251 49.7763 104.251 49.7753ZM232.553 46.9874C232.359 47.2572 232.356 48.5119 232.465 49.5192C232.538 50.1935 232.657 50.7177 232.77 50.8549C232.897 51.0096 232.964 50.6901 232.992 50.4855C233.15 49.3656 232.88 46.7503 232.553 46.9874ZM79.1012 68.4753C77.7112 68.1405 76.8589 69.3135 76.7779 70.2891C76.6561 71.7608 78.0267 72.8085 79.2641 72.1885C80.7013 71.4685 80.845 69.0906 79.1012 68.4753ZM235.658 65.6358C235.613 65.9756 235.56 67.3828 235.537 68.2731L235.537 68.2735C235.505 69.5038 235.527 69.5765 235.535 69.6003C235.578 69.4191 235.732 65.829 235.663 65.6129L235.661 65.6244L235.658 65.6358ZM53.2631 91.7736C51.9726 91.4414 50.9176 92.4249 50.7779 93.5155C50.5857 95.0204 52.0031 96.1283 53.3496 95.5243C54.8945 94.8313 55.1027 92.3968 53.2631 91.7736ZM30.0606 119.107C28.7687 118.762 27.6879 119.717 27.5258 120.79C27.282 122.407 28.909 123.552 30.334 122.766C31.7823 121.968 31.8634 119.683 30.0606 119.107ZM11.9342 148.577C10.8029 148.275 9.66963 148.964 9.50914 150.051C9.28665 151.555 10.9662 152.655 12.3612 151.919C13.8304 151.144 13.5632 149.052 11.9342 148.577ZM0.64151 177.39C-0.700027 177.104 -1.41652 177.897 -1.57054 178.499L-1.57617 178.522L-1.58504 178.561C-1.59398 178.6 -1.60289 178.64 -1.61613 178.679C-2.10118 180.09 -0.355011 181.362 1.09161 180.651C2.19475 180.109 2.02759 178.784 2.02567 178.771C2.00275 178.605 1.82961 177.755 0.647003 177.392L0.646317 177.391L0.64563 177.391L0.644943 177.391L0.644257 177.391L0.64357 177.391L0.642883 177.391L0.642197 177.39L0.64151 177.39ZM-3.65138 204.214C-4.81496 203.872 -5.7328 204.443 -5.86018 205.191C-6.05661 206.343 -4.52467 207.261 -3.29919 206.726C-2.16536 206.23 -2.15742 204.771 -3.65138 204.214ZM-2.40591 226.885C-3.43217 226.607 -4.27097 227.061 -4.41016 227.658C-4.6362 228.628 -3.11443 229.407 -2.01611 228.884C-1.08148 228.439 -1.12616 227.31 -2.40591 226.885ZM2.48515 244.655C1.44234 244.381 0.726028 244.823 0.570282 245.207C0.257751 245.981 1.66417 246.58 2.69 246.11C3.35577 245.805 3.56808 245.043 2.48515 244.655ZM8.58673 257.063C7.73235 256.876 7.01424 257.173 6.79811 257.433C6.75739 257.481 6.72098 257.55 6.70967 257.599C6.58588 258.141 7.95004 258.377 8.76491 257.955C9.20399 257.728 9.38611 257.291 8.58673 257.063ZM14.3481 264.566C13.7549 264.467 12.9687 264.59 12.6059 264.768C12.4415 264.848 12.3994 264.917 12.3929 264.96C12.3413 265.308 14.0634 265.278 14.5864 264.921C14.6436 264.882 14.9014 264.682 14.3481 264.566ZM19.2454 268.248C18.7796 268.198 17.9631 268.244 17.4728 268.316C17.085 268.372 17.0654 268.418 17.0585 268.433C17.0634 268.442 17.0743 268.451 17.0831 268.456C17.0834 268.457 17.0838 268.456 17.0842 268.456C17.3656 268.569 19.3826 268.499 19.4484 268.313C19.4357 268.289 19.4127 268.269 19.2454 268.248ZM23.9981 269.485C23.7293 269.475 23.1709 269.471 22.1311 269.473C21.4986 269.475 21.4888 269.477 21.4655 269.481C21.7189 269.5 24.0183 269.539 24.1086 269.492C24.0914 269.49 24.0743 269.489 24.0572 269.488C24.0375 269.486 24.0178 269.486 23.9981 269.485ZM171.34 44.9742C171.205 43.9409 171.603 42.5348 172.701 42.5832C174.301 42.8833 174.553 45.8518 173.396 46.68C172.565 47.2754 171.527 46.4147 171.34 44.9742ZM191.976 43.5463C191.766 42.3001 192.199 41.1289 192.903 41.0398C194.174 40.9237 194.903 43.8635 193.891 45.0216C193.213 45.7978 192.229 45.0392 191.976 43.5463ZM148.325 51.538C148.239 50.3355 148.907 49.1262 150.039 49.2431C151.717 49.5977 151.908 52.4176 150.675 53.2958C150.593 53.3546 150.471 53.4142 150.379 53.4567L150.379 53.4601C149.31 53.8434 148.413 52.7616 148.325 51.538ZM209.743 47.129C209.558 46.0064 209.793 44.691 210.439 44.5224C211.478 44.3434 212.119 47.3723 211.285 48.5237C210.756 49.255 209.978 48.551 209.743 47.129ZM123.371 63.3446C123.362 62.2512 124.115 60.8802 125.552 61.1501C127.403 61.808 127.265 64.5717 125.738 65.2915C124.599 65.8281 123.383 64.8271 123.371 63.3446ZM223.196 55.945C223.073 54.8279 223.249 53.4814 223.706 53.2581C224.578 53.0157 224.782 56.4914 224.205 57.367C223.893 57.8414 223.499 57.477 223.289 56.5197C223.255 56.3616 223.216 56.1254 223.196 55.945ZM97.266 80.2576C97.3177 79.1549 98.209 77.8004 99.7486 78.1254C101.645 78.7638 101.454 81.4817 99.8713 82.2481C98.581 82.8731 97.1933 81.8126 97.266 80.2576ZM231.292 70.1422C231.277 69.0306 231.442 67.6587 231.734 67.3807C232.236 67.1356 232.222 70.3546 231.838 71.4325C231.784 71.5835 231.643 71.9043 231.496 71.6253C231.377 71.4 231.301 70.8451 231.292 70.1422ZM71.5045 101.776C71.6273 101.063 72.0167 100.65 72.2044 100.45L72.2052 100.449L72.2044 100.453L72.205 100.452C72.5041 100.196 73.1246 99.6641 74.174 99.9035C76.1894 100.546 75.9274 103.266 74.2169 104.031C72.7103 104.705 71.2147 103.462 71.5045 101.776ZM233.249 89.8582C233.366 88.8226 233.608 87.1971 233.756 86.8384L233.774 86.8171C233.937 87.1478 233.302 91.0776 233.177 91.233C233.157 91.1902 233.108 91.0894 233.249 89.8582ZM48.0968 127.799C48.316 126.649 49.4767 125.639 50.8549 125.967C52.818 126.55 52.6857 129.081 51.0841 129.955C49.5235 130.807 47.7644 129.537 48.0968 127.799ZM29.5544 155.879C29.7797 154.702 31.0111 153.955 32.2429 154.247C33.968 154.704 34.2815 156.814 32.7673 157.774C31.2079 158.763 29.2264 157.594 29.5544 155.879ZM17.674 183.27C17.9349 182.49 18.8268 181.763 20.1688 182.008L20.1695 182.008L20.1702 182.009L20.1709 182.009L20.1716 182.009L20.1719 182.009L20.1726 182.009L20.1733 182.01L20.174 182.01C22.2496 182.585 21.8407 184.697 20.694 185.399C19.2209 186.3 17.2497 185.244 17.5455 183.711L17.5455 183.71L17.5456 183.71C17.5486 183.695 17.5506 183.685 17.5571 183.661C17.569 183.617 17.5962 183.527 17.6722 183.275L17.674 183.27ZM12.3785 208.931C12.5366 208.211 13.5072 207.412 14.9172 207.782C16.5115 208.326 16.4203 209.895 15.1588 210.469C13.7658 211.103 12.1029 210.183 12.3785 208.931ZM12.7672 230.309C12.9618 229.645 13.9775 229.095 15.1233 229.368C16.4923 229.777 16.4497 230.961 15.3872 231.486C14.3882 231.981 12.9232 231.675 12.7364 230.673L12.7384 230.674C12.7326 230.576 12.7248 230.454 12.7672 230.309ZM16.7103 246.768C16.9322 246.312 17.8797 245.793 19.0132 246.052C20.1498 246.417 19.835 247.225 19.068 247.591C17.9054 248.147 16.4066 247.688 16.6743 246.858C16.6831 246.83 16.6978 246.795 16.7103 246.768ZM22.2296 257.994C22.5555 257.707 23.4655 257.359 24.3841 257.524C25.1335 257.708 25.0246 258.118 24.5418 258.411C23.591 258.986 21.8417 258.87 22.0457 258.244C22.0726 258.162 22.1346 258.078 22.2296 257.994ZM27.9684 264.711C28.4695 264.485 29.4329 264.293 30.1156 264.379C30.6743 264.471 30.4207 264.683 30.3298 264.746C29.8093 265.107 28.0732 265.377 27.6618 265.084C27.6621 265.084 27.6628 265.085 27.6633 265.084C27.6253 265.043 27.5091 264.917 27.9684 264.711ZM33.9628 267.947C34.6049 267.806 35.6496 267.676 36.1812 267.706C36.3628 267.72 36.4341 267.751 36.3921 267.798C36.1687 268.049 33.3447 268.375 33.4005 268.144C33.4118 268.096 33.6219 268.022 33.9628 267.947ZM41.3 268.867C42.1222 268.766 43.223 268.654 43.6405 268.643C43.7705 268.641 43.7755 268.645 43.7886 268.658C43.5387 268.772 40.8731 269.027 40.5099 268.998C40.5223 268.981 40.5359 268.961 41.3 268.867ZM189.459 62.1593C188.584 62.2457 187.956 63.5752 188.116 65.0038C188.304 66.6914 189.486 67.4513 190.335 66.4295C191.483 65.0475 190.869 62.0542 189.459 62.1593ZM168.377 65.1392C167.202 65.0739 166.513 66.403 166.55 67.6718C166.59 69.0784 167.45 70.0666 168.428 69.8297L168.428 69.8313L168.428 69.8326C168.559 69.7892 168.722 69.7346 168.902 69.6022C170.276 68.589 170.183 65.475 168.377 65.1392ZM207.55 64.8636C206.751 65.032 206.316 66.5283 206.425 67.7661C206.472 68.3079 206.653 69.2625 207.327 69.5686L207.327 69.568C207.327 69.5672 207.327 69.5665 207.327 69.5657C207.645 69.6634 207.941 69.5352 208.207 69.1848C209.255 67.8032 208.782 64.6935 207.55 64.8636ZM143.886 74.0345C142.68 74.6919 142.58 76.0051 142.578 76.3919C142.57 78.1075 143.917 79.1515 145.152 78.3866C146.707 77.424 146.733 74.305 144.758 73.9026C144.503 73.8751 144.276 73.8673 143.886 74.0382C143.886 74.0367 143.887 74.0357 143.886 74.0345ZM221.048 73.3817C220.437 73.617 220.087 75.0878 220.114 76.316C220.122 76.6904 220.163 76.9731 220.195 77.1444C220.394 78.1752 220.871 78.4467 221.305 77.7759C222.094 76.5582 222.075 73.165 221.048 73.3817ZM119.78 88.3962C118.154 88.1016 117.191 89.6507 117.148 90.8339C117.085 92.543 118.568 93.6191 119.933 92.8544C121.602 91.9185 121.791 89.051 119.78 88.3962ZM228.55 87.8109C228.082 88.1312 227.74 89.8585 227.673 90.9818C227.622 91.8363 227.716 92.227 227.758 92.3555C227.871 92.6947 228.055 92.6679 228.263 92.2824C228.882 91.1337 229.237 87.5908 228.55 87.8109ZM94.582 108.19C92.964 107.868 91.8771 109.259 91.7148 110.387C91.4436 112.275 93.1426 113.506 94.7453 112.582C96.4483 111.6 96.6365 108.81 94.582 108.19ZM229.334 107.911C229.058 108.272 228.601 110.009 228.379 111.071C228.26 111.641 228.079 112.611 228.204 112.703C228.58 112.497 229.644 108.091 229.366 107.893L229.35 107.902L229.334 107.911ZM71.242 132.645C69.7104 132.325 68.4294 133.534 68.2374 134.819C67.965 136.645 69.7262 137.837 71.3776 136.944C73.1312 135.996 73.3449 133.224 71.242 132.645ZM49.5641 160.661C49.4793 160.821 49.3742 161.019 49.3131 161.272C48.864 163.135 50.9482 164.365 52.6922 163.265C54.3927 162.194 54.1299 159.932 52.253 159.485C51.9698 159.426 50.5094 159.206 49.5612 160.661C49.5619 160.661 49.5629 160.661 49.5641 160.661ZM39.5165 186.044C38.0709 185.823 37.067 186.628 36.7455 187.469L36.7452 187.471L36.7444 187.473C36.6432 187.763 36.6276 187.808 36.6161 187.853L36.6097 187.88C36.2174 189.53 38.3121 190.6 39.9547 189.59C41.3486 188.732 41.6693 186.576 39.5214 186.045L39.521 186.045L39.5203 186.044L39.5197 186.044L39.519 186.044L39.5186 186.044L39.5179 186.044L39.5172 186.044C39.5168 186.044 39.5165 186.044 39.5165 186.044ZM33.4972 210.62C32.0945 210.296 30.8552 211.071 30.6204 211.97C30.2675 213.32 32.0513 214.217 33.603 213.47C35.008 212.794 35.1963 211.147 33.4972 210.62ZM32.9231 231.026C31.6972 230.774 30.5788 231.361 30.2458 232.05C30.2105 232.123 30.1743 232.226 30.159 232.305C29.9272 233.478 31.833 234.017 33.2023 233.166C34.2309 232.526 34.3058 231.391 32.9231 231.026ZM36.2119 246.523C35.0144 246.295 33.8965 246.864 33.5499 247.364C33.4789 247.466 33.4307 247.588 33.4162 247.658C33.2323 248.552 35.0171 248.807 36.2672 248.065C36.9814 247.641 37.3728 246.848 36.2119 246.523ZM41.4641 256.928C40.5676 256.803 39.4483 257.154 38.9259 257.551C38.6814 257.736 38.6172 257.884 38.6064 257.975C38.5294 258.61 40.483 258.524 41.5502 257.845C42.0861 257.504 42.2286 257.079 41.4641 256.928ZM48.0108 262.887C47.2706 262.83 46.0804 263.119 45.4333 263.423C45.1342 263.563 44.8212 263.762 45.03 263.911L45.028 263.912C45.5432 264.162 47.647 263.729 48.2441 263.25C48.3557 263.161 48.5565 262.946 48.0108 262.887ZM82.2987 262.109C81.9346 262.197 81.0313 262.443 79.4658 262.869C78.3532 263.172 78.3479 263.173 78.2953 263.193C78.6644 263.111 82.1677 262.194 82.3605 262.096L82.3265 262.103L82.2987 262.109ZM56.2601 265.361C55.6398 265.363 54.3434 265.634 53.5676 265.877C53.16 266.004 52.9104 266.118 52.8996 266.182C52.8476 266.49 56.2481 265.804 56.5021 265.456C56.5465 265.394 56.4651 265.363 56.2601 265.361ZM67.3942 265.081C66.7397 265.139 65.1934 265.503 64.6529 265.638C64.0463 265.79 63.7032 265.893 63.6319 265.944C63.7633 266.074 67.3794 265.273 67.5009 265.088C67.4909 265.084 67.4829 265.082 67.4725 265.081C67.4678 265.08 67.4626 265.08 67.4566 265.08L67.446 265.079C67.4332 265.079 67.4167 265.08 67.3942 265.081ZM182.318 86.6978C182.315 85.5894 182.877 83.9403 184.134 83.7453L184.134 83.7454L184.134 83.7451L184.135 83.7452L184.135 83.7453L184.135 83.745L184.136 83.7452C184.136 83.7452 184.136 83.7449 184.137 83.745L184.137 83.7451C184.137 83.7451 184.137 83.7451 184.137 83.7448C185.916 83.7466 186.084 86.9949 184.774 88.3785C183.676 89.5377 182.322 88.6109 182.318 86.6978ZM160.212 91.1771C160.295 89.8167 161.2 88.4006 162.518 88.4851C164.574 88.8562 164.4 92.2984 162.714 93.3612C161.406 94.185 160.097 93.0421 160.212 91.1771ZM200.967 88.6032C200.938 87.0514 201.682 85.5604 202.56 85.4121C203.922 85.2629 204.235 88.4331 203.014 89.9963C202.189 91.0517 201.212 90.6031 201.003 89.0735C200.984 88.9336 200.97 88.745 200.967 88.6032ZM135.936 102.37C136.017 101.074 137.03 99.4154 138.722 99.6694C140.868 100.361 140.469 103.641 138.592 104.567C137.192 105.256 135.827 104.127 135.936 102.37ZM214.672 96.6871C214.76 95.3509 215.33 93.7647 216.095 93.5329C217.241 93.3564 217.081 96.6819 216.115 98.1296C215.532 99.0045 214.919 98.8544 214.72 97.7883C214.664 97.4882 214.646 97.0765 214.672 96.6871ZM111.119 119.35C111.294 118.115 112.451 116.56 114.166 116.851C116.34 117.479 115.999 120.604 114.128 121.629C112.507 122.518 110.847 121.261 111.119 119.35ZM221.562 111.418C221.748 110.222 222.329 108.402 222.939 108.096C223.77 107.93 223.143 111.482 222.276 112.831C221.941 113.351 221.659 113.401 221.539 112.961C221.497 112.811 221.416 112.358 221.562 111.418ZM87.8021 141.48C87.9506 140.8 88.2847 140.392 88.5056 140.123L88.5068 140.123L88.5085 140.123L88.5086 140.123C88.8551 139.779 89.666 138.972 90.9944 139.21C93.2214 139.778 92.8825 142.789 90.97 143.806C89.1829 144.757 87.3768 143.432 87.8021 141.48ZM220.807 131.959C221.161 130.758 221.88 128.909 222.309 128.561L222.335 128.555L222.362 128.548C222.743 128.845 221.105 133.475 220.573 133.604C220.395 133.468 220.643 132.515 220.807 131.959ZM68.5526 166.429C68.8234 165.023 70.3288 164.017 71.7747 164.276C73.7399 164.694 73.924 167.139 72.0782 168.301C70.3012 169.419 68.1927 168.299 68.5526 166.429ZM212.64 155.739C213.126 154.737 213.948 153.132 214.253 152.699L214.261 152.69L214.273 152.676L214.276 152.672C214.355 152.959 212.152 157.097 211.965 157.317C211.953 157.275 211.931 157.196 212.64 155.739ZM55.5031 191.034C55.8025 190.271 56.8594 189.21 58.5429 189.414L58.5436 189.414L58.5443 189.414L58.545 189.415C58.5453 189.415 58.5454 189.414 58.5458 189.414L58.5465 189.415L58.5468 189.415L58.5475 189.415L58.5482 189.415C60.7933 189.906 60.3638 192.176 58.8554 193.117C57.0497 194.244 54.8622 193.177 55.3619 191.414L55.3687 191.39C55.3811 191.348 55.397 191.307 55.5031 191.034ZM48.8312 214.053C49.2167 213.149 50.5303 212.352 51.9805 212.64C53.6813 213.112 53.5027 214.697 52.1284 215.535C50.4184 216.578 48.3149 215.757 48.7694 214.224C48.7846 214.172 48.8099 214.103 48.8312 214.053ZM47.9156 232.976C48.2753 232.258 49.5773 231.423 51.0864 231.723C52.6113 232.213 51.9993 233.521 50.7922 234.116C49.1805 234.909 47.4242 234.31 47.8559 233.114C47.8709 233.072 47.8953 233.017 47.9156 232.976ZM51.1406 246.834C51.6005 246.285 52.9068 245.626 54.1631 245.814C55.3286 246.087 54.8938 246.914 54.1315 247.406C52.7323 248.309 50.7158 248.22 50.9113 247.263C50.9396 247.126 51.0167 246.982 51.1406 246.834ZM57.084 255.721C57.7369 255.24 59.0448 254.776 60.0197 254.866C60.8084 254.978 60.6136 255.426 60.0989 255.794C58.872 256.67 56.4626 256.964 56.6618 256.212C56.6888 256.11 56.7839 255.942 57.084 255.721ZM110.706 251.917C111.381 251.602 113.26 250.74 113.831 250.538C113.844 250.535 113.863 250.53 113.876 250.527C113.768 250.685 109.942 252.385 109.544 252.497C109.564 252.472 109.595 252.435 110.706 251.917ZM65.2827 260.29C66.0501 259.875 67.4857 259.424 68.3184 259.439C68.9072 259.463 68.6798 259.719 68.5551 259.828C67.7668 260.516 64.7243 261.268 64.7251 260.774C64.7254 260.658 64.9287 260.481 65.2827 260.29ZM91.7524 258.398C92.6396 258.04 94.1741 257.487 94.8066 257.375C94.8797 257.366 94.8934 257.366 94.9287 257.371L94.9392 257.395C94.701 257.689 91.036 259.019 90.6297 258.959C90.6271 258.952 90.6243 258.943 90.622 258.936C90.6996 258.85 91.0799 258.669 91.7524 258.398ZM76.6168 261.071C77.4118 260.74 78.9543 260.232 79.7395 260.196C79.8351 260.199 80.0341 260.207 79.8639 260.356C79.29 260.858 75.8491 261.88 75.7734 261.571C75.7527 261.487 76.0679 261.3 76.6168 261.071ZM177.361 105.739C176.014 105.718 175.019 107.309 174.868 108.794C174.668 110.775 175.923 111.883 177.266 110.912C178.969 109.681 179.343 106.061 177.361 105.739ZM195.61 106.06C194.638 106.19 193.68 107.667 193.518 109.284C193.494 109.521 193.49 109.835 193.509 110.049C193.653 111.716 194.844 112.109 195.869 110.828C197.293 109.046 197.124 105.927 195.61 106.06ZM155.562 112.568C154.083 112.468 152.959 113.994 152.766 115.466C152.491 117.557 154.065 118.76 155.621 117.648C157.443 116.344 157.714 112.935 155.562 112.568ZM208.86 113.552C207.956 113.765 207.113 115.452 206.893 116.893C206.826 117.331 206.825 117.664 206.837 117.867C206.913 119.188 207.668 119.479 208.487 118.503C209.761 116.981 210.24 113.407 208.86 113.552ZM132.373 126.313C130.548 126.06 129.373 127.804 129.154 129.062C128.79 131.15 130.461 132.429 132.185 131.38C134.113 130.207 134.553 126.93 132.373 126.313ZM214.861 127.997C214.145 128.26 213.306 129.966 212.94 131.395C212.784 132.008 212.715 132.571 212.753 132.94C212.82 133.609 213.19 133.663 213.694 133.077C214.888 131.689 215.928 127.89 214.861 127.997ZM109.749 145.887C108.101 145.642 106.66 147.013 106.348 148.447C105.878 150.604 107.856 151.851 109.762 150.598C111.668 149.345 111.975 146.415 109.749 145.887ZM212.775 147.977C212.215 148.324 211.249 150.085 210.733 151.449C210.624 151.739 210.556 151.958 210.507 152.119C210.507 152.119 210.507 152.119 210.508 152.118L210.507 152.119C210.451 152.324 210.318 152.801 210.391 153.002C210.577 153.514 211.761 151.77 212.538 149.84C212.951 148.814 213.202 147.794 212.775 147.977ZM90.5721 168.714C88.9635 168.477 87.4709 169.733 87.1376 171.009C87.1195 171.077 87.0997 171.17 87.0883 171.241C86.7668 173.25 88.9881 174.198 90.8609 172.852C92.5727 171.622 92.6879 169.111 90.5721 168.714ZM203.186 170.823C202.732 171.176 201.62 172.81 200.906 174.055C200.182 175.318 200.262 175.448 200.288 175.49C200.607 175.439 203.54 171.262 203.261 170.794C203.237 170.798 203.207 170.811 203.186 170.823ZM77.0999 192.101C75.4876 191.96 74.2897 192.905 73.8178 193.905C73.66 194.265 73.6373 194.334 73.6021 194.498C73.2233 196.263 75.4055 197.135 77.25 195.957C78.872 194.922 79.4298 192.536 77.1049 192.102L77.1042 192.102L77.1035 192.101L77.1032 192.101L77.1027 192.102L77.1024 192.102L77.1017 192.101L77.1014 192.101L77.1007 192.101C77.1004 192.101 77.0999 192.101 77.0999 192.101ZM187.36 194.014C186.994 194.326 185.921 195.53 184.969 196.698C184.272 197.553 183.927 198.029 183.946 198.114C184.391 197.887 187.509 194.188 187.458 193.949L187.457 193.95C187.418 193.968 187.414 193.97 187.36 194.014ZM70.3013 213.716C68.781 213.465 67.2754 214.385 66.823 215.401C66.7757 215.508 66.7273 215.657 66.7047 215.771C66.4053 217.298 68.5639 217.871 70.3134 216.729C71.7485 215.791 72.0054 214.13 70.3013 213.716ZM167.473 214.978C167.017 215.288 165.617 216.513 164.595 217.463C163.574 218.413 163.563 218.49 163.559 218.519C163.941 218.383 167.528 215.167 167.557 214.935L167.542 214.94C167.536 214.942 167.531 214.944 167.527 214.946C167.518 214.95 167.51 214.955 167.497 214.963L167.473 214.978ZM69.4017 231.169C67.866 230.924 66.3921 231.848 65.919 232.609C65.8349 232.744 65.7573 232.928 65.7305 233.056C65.4796 234.243 67.342 234.588 68.9967 233.66C70.2478 232.959 70.9689 231.603 69.4017 231.169ZM145.837 231.904C145.263 232.164 143.627 233.275 142.667 233.977C141.725 234.665 141.613 234.81 141.577 234.857L141.577 234.858C141.578 234.863 141.58 234.87 141.581 234.877L141.583 234.885C141.72 234.861 142.159 234.607 142.968 234.085C142.968 234.086 142.968 234.086 142.967 234.086C144.41 233.142 145.738 232.165 145.926 231.909L145.924 231.9L145.919 231.881C145.894 231.885 145.861 231.895 145.837 231.904ZM72.986 243.535C71.6546 243.396 70.1653 244.191 69.6023 244.819C69.3455 245.106 69.2929 245.326 69.2822 245.408C69.1514 246.411 71.4428 246.247 72.942 245.147C73.8126 244.507 74.0673 243.73 72.986 243.535ZM124.745 243.892C123.983 244.082 122.15 245.091 121.338 245.588C120.311 246.217 120.31 246.333 120.31 246.371C120.696 246.506 124.862 244.241 124.859 243.898C124.826 243.886 124.779 243.888 124.745 243.892ZM80.2624 250.715C79.2292 250.678 77.6652 251.321 76.9081 251.922C76.6017 252.165 76.4236 252.402 76.4186 252.573C76.3979 253.347 79.2085 252.671 80.4283 251.608C80.8577 251.234 81.0719 250.776 80.2624 250.715ZM106.055 250.858C105.21 250.964 103.511 251.734 102.61 252.248C102.03 252.579 101.694 252.842 101.712 252.951C101.779 253.367 105.657 251.721 106.222 251.037C106.383 250.843 106.161 250.853 106.055 250.858ZM91.1449 253.064C90.3466 253.105 88.7802 253.68 87.7929 254.296C87.3261 254.587 87.0706 254.844 87.1081 254.983C87.2511 255.51 90.7048 254.287 91.4561 253.444C91.6863 253.185 91.5728 253.047 91.1449 253.064ZM166.13 131.291C166.422 129.725 167.656 128.057 169.138 128.093C171.227 128.422 170.704 131.968 168.809 133.432C167.272 134.621 165.846 133.655 166.085 131.588C166.095 131.498 166.113 131.38 166.13 131.291ZM184.233 130.258C184.505 128.502 185.736 126.857 186.867 126.736C188.581 126.612 188.539 129.857 186.803 131.769C185.565 133.132 184.269 132.78 184.185 131.059C184.174 130.836 184.194 130.507 184.233 130.258ZM144.863 140.421C145.117 138.964 146.455 137.054 148.307 137.255C150.535 137.904 149.804 141.396 147.692 142.653C146.014 143.65 144.507 142.461 144.863 140.421ZM196.862 136.756C197.228 135.234 198.3 133.471 199.393 133.274C200.899 133.182 200.288 136.561 198.81 138.276C197.769 139.483 196.816 139.363 196.728 138.014C196.706 137.668 196.756 137.197 196.862 136.756ZM123.384 155.834C123.647 154.785 124.314 154.147 124.599 153.875L124.598 153.878C125.215 153.374 125.93 152.926 126.974 153.048C129.272 153.56 128.698 156.759 126.602 158.039C124.645 159.234 122.84 157.998 123.384 155.834ZM201.868 150.456C202.295 149.141 203.415 147.18 204.407 146.917C205.61 146.884 204.494 150.243 203.025 151.839C202.813 152.071 201.745 153.156 201.623 151.819L201.622 151.819L201.621 151.819L201.621 151.817C201.625 151.567 201.629 151.19 201.868 150.456ZM104.658 175.61C105.01 174.198 106.61 172.764 108.341 172.962C110.519 173.316 110.224 176.01 108.358 177.324C106.447 178.67 104.31 177.83 104.609 175.851C104.616 175.811 104.624 175.763 104.634 175.716C104.642 175.679 104.65 175.642 104.658 175.61ZM198.335 169.045C198.971 167.662 200.21 165.901 200.968 165.586C201.622 165.422 201.165 166.837 200.327 168.261C199.314 169.983 198.129 171.143 197.935 170.602C197.847 170.355 197.992 169.788 198.335 169.045ZM91.5086 196.116C92.0549 195.051 93.3501 194.015 95.0114 194.1C95.0118 194.1 95.0122 194.1 95.0122 194.1L95.0129 194.1L95.0135 194.1H95.0138L95.014 194.1L95.0147 194.1L95.0154 194.1L95.0157 194.1L95.0162 194.1L95.0165 194.1C97.2556 194.442 96.7616 196.735 95.1952 197.925C93.3232 199.346 90.9512 198.743 91.2293 196.916C91.2784 196.594 91.3899 196.363 91.5077 196.118L91.5086 196.116ZM187.179 189.612C187.902 188.528 189.283 186.853 189.997 186.528C190.426 186.427 190.009 187.205 189.723 187.678C189.067 188.759 187.614 190.595 186.736 191.126L186.736 191.126C186.736 191.127 186.735 191.127 186.735 191.127L186.735 191.127L186.735 191.127C186.608 191.185 186.346 191.305 186.505 190.835C186.55 190.705 186.704 190.325 187.179 189.612ZM84.6087 215.684C85.1069 214.56 86.7896 213.452 88.4075 213.659C90.2285 214.033 89.7567 215.868 88.0878 216.914C86.2268 218.08 84.1711 217.603 84.4818 216.077C84.5066 215.955 84.5584 215.798 84.6087 215.684ZM170.214 209.574C171.148 208.501 172.661 207.087 173.337 206.775C173.525 206.699 173.586 206.745 173.521 206.915C173.485 207.011 173.229 207.564 171.759 209.04L171.757 209.042C170.489 210.286 169.47 211.046 169.387 210.808C169.354 210.715 169.551 210.335 170.214 209.574ZM84.2554 230.737C84.8249 229.902 86.4544 228.842 88.0323 229.023C89.6067 229.378 88.8263 230.775 87.5977 231.583C85.8503 232.73 83.7873 232.612 83.9788 231.376C84.0096 231.176 84.1029 230.961 84.2554 230.737ZM150.421 226.041C151.455 225.111 153.026 223.96 153.762 223.722L153.762 223.722C153.868 223.7 154.087 223.653 153.854 223.995C153.129 225.055 149.611 227.621 149.425 227.226C149.366 227.101 149.748 226.647 150.421 226.041ZM89.1888 240.616C89.9608 239.825 91.5674 239.012 92.8157 239.076C93.9272 239.203 93.6319 240.045 92.7035 240.787C91.0983 242.071 88.5593 242.466 88.7085 241.409C88.731 241.248 88.833 240.98 89.1888 240.616ZM130.211 237.866C130.995 237.247 132.879 236.017 133.887 235.84C134.018 235.84 134.326 235.841 133.817 236.372C132.712 237.524 129.44 239.321 129.329 238.838C129.305 238.73 129.521 238.411 130.211 237.866ZM98.5942 245.143C99.5564 244.312 101.26 243.557 102.24 243.53C102.911 243.523 103.013 243.872 102.5 244.418C101.338 245.655 98.1535 246.787 98.0168 246.01C97.981 245.807 98.1913 245.491 98.5942 245.143ZM112.55 244.13C113.548 243.388 115.219 242.539 116.178 242.458C116.74 242.464 116.51 242.814 116.219 243.107C115.037 244.296 111.738 245.734 111.693 245.08C111.687 244.99 111.758 244.717 112.55 244.13ZM172.915 147.322C171.286 147.559 170.093 149.477 169.766 150.764C169.529 151.697 169.518 153.276 170.984 153.27L170.985 153.27L170.985 153.27L170.986 153.27L170.986 153.27L170.986 153.27L170.987 153.27L170.987 153.27L170.987 153.27L170.988 153.27L170.988 153.27C171.268 153.23 171.923 153.134 172.753 152.289C174.523 150.485 174.912 147.315 172.919 147.322C172.919 147.322 172.919 147.322 172.919 147.322L172.918 147.322L172.918 147.322L172.917 147.322L172.917 147.322C172.916 147.322 172.916 147.322 172.916 147.322L172.916 147.322L172.915 147.322L172.915 147.322ZM151.222 155.046C149.333 154.891 147.831 156.828 147.472 158.286C146.972 160.318 148.433 161.463 150.215 160.434C152.47 159.133 153.462 155.639 151.222 155.046ZM188.014 152.205C186.808 152.366 185.461 154.117 184.959 155.653C184.814 156.096 184.73 156.57 184.735 156.921C184.755 158.403 186.015 158.427 187.328 156.971C188.956 155.164 189.613 152.16 188.014 152.205ZM128.645 172.944C126.935 172.805 125.33 174.264 124.825 175.695C124.772 175.845 124.716 176.051 124.69 176.207C124.345 178.212 126.319 178.992 128.27 177.622C130.314 176.187 130.861 173.294 128.645 172.944ZM191.405 168.045C190.206 168.269 188.778 170.231 188.21 171.562C187.941 172.191 187.883 172.602 187.873 172.792C187.822 173.716 188.523 173.762 189.503 172.9C191.268 171.346 192.723 168.134 191.405 168.045ZM112.143 195.356C110.455 195.339 109.067 196.476 108.44 197.611C108.326 197.828 108.136 198.19 108.093 198.637C107.923 200.398 110.211 200.772 112.107 199.295C113.765 198.002 114.399 195.615 112.147 195.356C112.147 195.356 112.147 195.356 112.147 195.356L112.146 195.356L112.146 195.356L112.145 195.356L112.145 195.356L112.144 195.356L112.144 195.356C112.144 195.356 112.144 195.356 112.143 195.356L112.143 195.356L112.143 195.356ZM181.904 189.895C180.886 190.164 179.331 191.904 178.6 193.056C178.21 193.67 177.988 194.195 177.991 194.498C178 195.28 179.354 194.47 180.727 192.863C181.829 191.574 182.81 189.82 181.904 189.895ZM105.996 215.754C104.205 215.558 102.442 216.903 101.858 217.949C101.756 218.132 101.661 218.376 101.626 218.543C101.327 220 103.244 220.307 105.163 219.11C106.761 218.112 107.77 216.211 105.996 215.754ZM163.145 211.187C162.235 211.417 160.599 212.753 159.644 213.856C159.118 214.462 158.81 214.977 158.819 215.232C158.852 216.115 161.828 214.019 163.122 212.201C163.314 211.933 163.882 211.064 163.145 211.187ZM109.61 228.826C108.241 228.785 106.518 229.801 105.706 230.765C105.331 231.211 105.232 231.534 105.214 231.726C105.101 232.946 107.582 232.536 109.362 231.041C110.517 230.07 110.893 228.948 109.61 228.826ZM141.237 226.362C140.071 226.495 138.209 227.821 137.312 228.727C136.834 229.21 136.567 229.618 136.58 229.847C136.617 230.523 138.828 229.512 140.459 228.074C140.534 228.007 142.302 226.437 141.237 226.362ZM121.923 232.499C120.531 232.667 118.863 233.793 118.123 234.539C117.677 234.988 117.452 235.377 117.489 235.636C117.621 236.568 120.692 235.319 122.117 233.754C122.313 233.538 123.228 232.462 121.926 232.499L121.926 232.498L121.925 232.499L121.925 232.499L121.925 232.499L121.925 232.499L121.924 232.499L121.924 232.499L121.924 232.499C121.923 232.499 121.923 232.499 121.923 232.499L121.923 232.499ZM158.101 170.909C158.682 169.341 160.296 167.647 161.891 167.645C163.953 167.901 162.996 171.183 160.867 172.776C160.297 173.202 159.863 173.337 159.603 173.418L159.602 173.421C158.153 173.776 157.465 172.626 158.101 170.909ZM171.517 173.185C172.151 171.659 173.733 169.942 175.078 169.816C176.724 169.818 176.067 172.469 174.38 174.265C172.88 175.861 171.308 176.059 171.208 174.663C171.188 174.378 171.224 173.889 171.517 173.185ZM139.231 181.213C139.747 179.888 141.435 178.097 143.261 178.181C145.392 178.51 144.602 181.44 142.465 182.981C140.601 184.325 138.801 183.807 139.026 181.992C139.053 181.773 139.138 181.452 139.231 181.213ZM172.423 186.941C173.148 185.459 174.847 183.675 176.126 183.483C177.442 183.439 176.711 185.562 175.185 187.24C173.679 188.897 172.098 189.414 172.052 188.265C172.045 188.069 172.082 187.637 172.423 186.941ZM124.463 198.369C125.167 197.169 126.634 195.93 128.324 195.867L128.324 195.867L128.325 195.867L128.325 195.867L128.326 195.867L128.326 195.867L128.327 195.867L128.327 195.867L128.327 195.867L128.328 195.867C130.464 196.021 129.824 198.292 128.275 199.693C126.373 201.413 123.959 201.377 124.041 199.631C124.064 199.137 124.293 198.674 124.463 198.369ZM160.823 204.478C161.114 204.069 161.364 203.798 161.629 203.511L161.627 203.514C163.15 201.96 164.155 201.644 164.516 201.581C165.54 201.458 165.202 202.6 164.285 203.774C162.668 205.846 160.195 207.178 160.151 206.002C160.138 205.65 160.383 205.095 160.823 204.478ZM119.904 214.478C120.58 213.371 122.441 211.885 124.177 211.974C125.958 212.292 124.881 214.295 123.313 215.439C121.966 216.422 119.85 217.076 119.549 215.684L119.548 215.686C119.539 215.451 119.527 215.096 119.904 214.478ZM142.654 218.15C143.491 217.07 145.403 215.524 146.817 215.433C148.115 215.591 146.731 217.418 145.246 218.556C143.602 219.818 142.059 220.205 142.071 219.354C142.073 219.216 142.133 218.823 142.654 218.15ZM126.965 221.884C127.906 220.603 129.819 219.428 131.059 219.369C132.209 219.34 132.217 220.308 131.078 221.528C129.308 223.423 126.436 224.316 126.491 222.954C126.499 222.748 126.588 222.396 126.965 221.884ZM160.861 186.064C159.342 186.152 157.585 187.815 156.829 189.305C156.61 189.736 156.461 190.202 156.431 190.55C156.293 192.147 158.07 192.103 159.889 190.466C161.816 188.731 162.659 186.114 160.861 186.064ZM143.421 195.563C141.77 195.717 140.2 197.11 139.439 198.339C139.297 198.578 138.919 199.216 138.917 199.862C138.912 201.471 141.165 201.266 143.075 199.484C144.695 197.972 145.498 195.614 143.429 195.563C143.429 195.563 143.429 195.563 143.429 195.563C143.428 195.563 143.428 195.563 143.428 195.563C143.428 195.563 143.428 195.563 143.427 195.563C143.427 195.563 143.427 195.563 143.427 195.563C143.427 195.563 143.426 195.563 143.426 195.563C143.425 195.563 143.425 195.563 143.425 195.563L143.424 195.563C143.424 195.563 143.424 195.563 143.423 195.563C143.423 195.563 143.423 195.563 143.423 195.563C143.423 195.563 143.423 195.563 143.422 195.563L143.422 195.563C143.422 195.563 143.421 195.563 143.421 195.563ZM150.614 203.062C148.942 203.098 146.992 204.872 146.228 206.139C145.957 206.589 145.86 206.913 145.826 207.065C145.519 208.466 147.037 208.526 148.891 207.187C150.765 205.833 152.345 203.345 150.614 203.062Z" fill="url(#paint0_linear_540_1510)"/>
<defs>
<linearGradient id="paint0_linear_540_1510" x1="81.6945" y1="-75.4628" x2="282.372" y2="106.651" gradientUnits="userSpaceOnUse">
<stop stop-color="#FCD14A"/>
<stop offset="1" stop-color="#D66801"/>
</linearGradient>
</defs>
</svg>
