<svg width="238" height="304" viewBox="0 0 238 304" fill="none" xmlns="http://www.w3.org/2000/svg">
<path opacity="0.510324" fill-rule="evenodd" clip-rule="evenodd" d="M75.1648 303.506C76.0053 303.374 75.999 302.175 75.726 301.365C75.3034 300.113 74.2831 299.39 73.7038 299.932C72.8576 300.723 73.7075 303.491 75.1611 303.506L75.1615 303.507C75.1616 303.506 75.1616 303.506 75.162 303.506L75.1625 303.506C75.1625 303.506 75.1629 303.507 75.163 303.506L75.1634 303.506L75.1639 303.506C75.1639 303.506 75.1643 303.506 75.1644 303.506L75.1648 303.506ZM99.2809 299.654C100.246 299.729 100.596 298.68 100.367 297.666C100.078 296.387 99.0081 295.55 98.2463 296.007C97.1917 296.638 97.6947 299.339 99.2809 299.654ZM52.925 302.934C53.5097 302.829 53.6223 301.757 53.1661 300.639C52.6834 299.456 51.8116 298.841 51.3732 299.375C50.624 300.286 51.8424 303.08 52.925 302.934ZM125.883 291.151C126.988 291.291 127.55 290.187 127.364 289.109C127.142 287.817 126.003 287.001 125.108 287.491C123.878 288.164 124.157 290.767 125.883 291.151ZM33.2696 297.911C33.7427 297.74 33.6517 296.606 33.2963 295.654C32.8635 294.494 32.1694 293.84 31.8402 294.283C31.2371 295.093 32.4261 298.111 33.2696 297.911ZM155.106 277.841C156.492 278.122 157.169 276.92 157.124 275.945C157.063 274.618 155.86 273.69 154.783 274.141C153.348 274.742 153.311 277.204 155.106 277.841ZM17.5479 288.117C17.8584 287.889 17.7059 286.692 17.3859 285.715C17.2697 285.359 17.1301 285.031 16.9942 284.791C16.773 284.402 16.4673 284.096 16.3318 284.514C16.0709 285.319 16.9333 288.379 17.5479 288.117ZM186.938 259.776C188.392 260.105 189.255 258.95 189.32 257.99C189.414 256.579 188.074 255.538 186.804 256.035C185.214 256.658 185.029 259.112 186.938 259.776ZM6.62258 273.368C6.76184 273.084 6.60689 271.823 6.38281 270.819C6.22116 270.092 6.04206 269.579 5.92699 269.51C5.62764 269.332 5.93422 272.031 6.43205 273.199L6.4324 273.198C6.52336 273.381 6.56972 273.422 6.62258 273.368ZM220.048 236.947C221.551 237.317 222.552 236.205 222.697 235.262C222.935 233.708 221.324 232.547 219.87 233.224C218.304 233.954 218.148 236.302 220.048 236.947ZM1.4378 251.082L1.50938 252.035C1.4857 251.732 1.46298 251.428 1.4408 251.124L1.4378 251.082ZM252.242 209.45C253.677 209.824 254.804 208.915 255.026 207.857C255.359 206.273 253.711 205.02 252.135 205.66C250.421 206.356 250.196 208.777 252.242 209.45ZM280.708 177.602C282.186 178 283.38 177.021 283.529 175.893C283.732 174.341 282.037 173.171 280.506 173.808C278.834 174.501 278.676 176.963 280.708 177.602ZM302.45 143.338C303.72 143.682 304.96 142.991 305.103 141.859C305.132 141.62 305.109 141.377 305.033 141.139C304.526 139.558 302.017 139.031 301.044 140.711L301.048 140.712C300.502 141.942 301.332 143.013 302.45 143.338ZM315.15 109.82C316.664 110.291 317.575 109.501 317.738 108.79C317.86 108.26 318.027 107.534 317.285 106.898C316.22 105.986 315.121 106.296 314.912 106.368C313.712 106.778 313.735 108.017 313.752 108.261C313.764 108.432 313.887 109.312 315.15 109.82ZM319.357 78.5799C320.67 78.968 321.589 78.3971 321.687 77.6451C321.842 76.4609 320.123 75.4564 318.814 75.9659C317.604 76.4369 317.712 77.9732 319.357 78.5799ZM316.309 51.9263C317.506 52.2563 318.363 51.7534 318.384 51.095C318.386 51.0238 318.37 50.929 318.357 50.8585L318.356 50.8595L318.356 50.8605C318.053 49.875 316.6 49.4414 315.696 49.8249C314.706 50.2448 314.862 51.445 316.309 51.9263ZM308.661 30.777C309.828 31.0921 310.542 30.6519 310.608 30.2128C310.724 29.4539 309.215 28.838 308.234 29.243C307.53 29.5336 307.396 30.3231 308.661 30.777ZM299.641 15.834C300.575 16.0501 301.271 15.7721 301.414 15.4888C301.419 15.4781 301.426 15.4644 301.43 15.4512L301.434 15.441L301.437 15.4329C301.602 14.8651 300.077 14.4842 299.26 14.8894C298.829 15.1033 298.717 15.5626 299.641 15.834ZM291.602 6.78027C292.32 6.91458 293.041 6.78583 293.286 6.6412C293.352 6.60208 293.391 6.56152 293.404 6.52094C293.509 6.16754 291.87 6.05185 291.292 6.37094C291.13 6.46033 291.013 6.64731 291.602 6.78027ZM285.8 2.5094C286.337 2.58249 287.121 2.57449 287.482 2.54617C287.773 2.52335 287.79 2.49524 287.799 2.4819C287.732 2.33862 285.641 2.29498 285.562 2.4346C285.574 2.46127 285.615 2.48096 285.8 2.5094ZM75.6415 280.053C76.8195 280.074 77.0547 278.606 76.7713 277.539C76.4163 276.202 75.349 275.411 74.5751 275.913C73.3905 276.681 73.8879 279.757 75.6415 280.053ZM52.0426 280.512C52.739 280.411 53.0549 279.286 52.7331 278.055C52.3977 276.773 51.5234 275.954 50.8617 276.302C49.7752 276.874 50.2648 280.23 51.885 280.514L51.8856 280.514C51.8859 280.514 51.8863 280.514 51.8868 280.514C51.9592 280.52 51.9873 280.517 52.0426 280.512ZM101.913 274.544C103.106 274.647 103.693 273.372 103.473 272.163C103.21 270.711 101.966 269.83 101.008 270.418C99.6854 271.232 100.033 274.176 101.913 274.544ZM31.3209 275.967C31.9334 275.787 32.023 274.479 31.7218 273.37C31.3525 272.009 30.5327 271.273 30.0673 271.885C29.2734 272.927 30.2694 276.17 31.3209 275.967ZM131.632 263.663C132.781 263.072 132.775 261.869 132.746 261.514C132.617 259.94 131.19 258.97 130.019 259.661C128.592 260.503 128.8 263.356 130.735 263.775C131.039 263.815 131.272 263.809 131.628 263.663L131.63 263.663L131.632 263.663ZM15.2746 266.091C15.7108 265.844 15.7142 264.487 15.4671 263.372C15.2349 262.326 14.9276 261.989 14.8258 261.877L14.8249 261.876L14.824 261.873C14.8216 261.868 14.5381 261.549 14.318 261.974C13.8522 262.876 14.4473 266.365 15.2746 266.091ZM163.225 247.496C164.115 246.917 164.31 246.126 164.318 245.564C164.34 243.974 162.822 242.894 161.469 243.537C159.825 244.316 159.736 247.016 161.774 247.693C162.199 247.778 162.601 247.821 163.226 247.492L163.226 247.494L163.225 247.496ZM4.83035 250.726C5.07078 250.423 5.07541 249.012 4.94166 247.88C4.85202 247.122 4.7049 246.533 4.56627 246.379C4.40982 246.205 4.3266 246.564 4.29102 246.794C4.09603 248.053 4.42712 250.993 4.83035 250.726ZM194.289 226.458C196.005 226.833 197.058 225.514 197.158 224.418C197.31 222.763 195.619 221.587 194.091 222.285C192.316 223.095 192.137 225.768 194.289 226.458ZM1.01279 229.768C1.06866 229.386 1.13477 227.805 1.16407 226.804L1.16418 226.804C1.20439 225.421 1.17715 225.339 1.1682 225.312C1.1145 225.516 0.920907 229.551 1.0061 229.794L1.00943 229.781L1.01279 229.768ZM226.206 200.251C227.799 200.623 229.102 199.517 229.276 198.291C229.514 196.6 227.765 195.355 226.102 196.035C224.195 196.815 223.936 199.552 226.206 200.251ZM254.873 169.511C256.468 169.898 257.803 168.823 258.004 167.617C258.306 165.8 256.299 164.514 254.539 165.398C252.75 166.296 252.648 168.864 254.873 169.511ZM277.276 136.373C278.672 136.711 280.072 135.936 280.271 134.714C280.547 133.024 278.475 131.789 276.752 132.617C274.937 133.488 275.265 135.84 277.276 136.373ZM291.242 103.979C292.898 104.299 293.783 103.408 293.974 102.731C293.98 102.708 293.986 102.684 293.992 102.661C294.003 102.617 294.014 102.572 294.03 102.529C294.63 100.942 292.476 99.5134 290.689 100.314C289.327 100.924 289.532 102.413 289.534 102.428C289.562 102.615 289.776 103.569 291.235 103.977L291.236 103.977L291.237 103.977L291.238 103.978L291.239 103.978L291.239 103.978L291.24 103.978L291.241 103.978L291.242 103.979ZM296.565 73.8266C298.001 74.2093 299.135 73.567 299.293 72.7267C299.536 71.4314 297.646 70.4006 296.132 71.0036C294.732 71.5619 294.721 73.2018 296.565 73.8266ZM295.044 48.3439C296.311 48.6555 297.347 48.1455 297.519 47.4734C297.799 46.383 295.921 45.5087 294.564 46.0973C293.41 46.5984 293.465 47.8677 295.044 48.3439ZM289.019 28.3757C290.306 28.6828 291.191 28.1862 291.384 27.7536C291.77 26.8842 290.034 26.2119 288.768 26.7404C287.945 27.0836 287.683 27.9404 289.019 28.3757ZM281.499 14.4335C282.554 14.6429 283.441 14.3087 283.708 14.0167C283.758 13.9617 283.803 13.8846 283.817 13.8295C283.97 13.2205 282.286 12.9564 281.28 13.4308C280.738 13.6865 280.513 14.1772 281.499 14.4335ZM274.392 6.00507C275.125 6.11603 276.095 5.97662 276.543 5.77682C276.746 5.68634 276.798 5.60892 276.806 5.55984C276.87 5.16901 274.744 5.2045 274.098 5.60556C274.028 5.64938 273.709 5.87494 274.392 6.00507ZM268.348 1.87027C268.923 1.92593 269.931 1.87369 270.536 1.79269C271.013 1.72897 271.039 1.67816 271.047 1.66135L271.048 1.66107C271.042 1.65048 271.028 1.64059 271.017 1.63422H271.017L271.016 1.63428C270.669 1.50824 268.178 1.58835 268.097 1.79684C268.113 1.82388 268.141 1.84616 268.348 1.87027ZM262.484 0.483795C262.816 0.494293 263.505 0.497742 264.789 0.494019C265.142 0.493073 265.337 0.492035 265.449 0.490723C265.585 0.489136 265.596 0.487152 265.612 0.484375C265.299 0.463531 262.459 0.423248 262.348 0.476013C262.393 0.480408 262.439 0.4823 262.484 0.483795ZM80.3931 252.934C80.5582 254.095 80.0655 255.676 78.7109 255.622C76.735 255.286 76.4269 251.95 77.8554 251.018C78.8826 250.348 80.1629 251.315 80.3931 252.934ZM54.9149 254.555C55.174 255.955 54.6388 257.272 53.7696 257.373C52.2003 257.504 51.3017 254.2 52.5523 252.898C53.3898 252.025 54.6044 252.877 54.9149 254.555ZM108.809 245.539C108.914 246.891 108.088 248.251 106.691 248.12C104.62 247.723 104.386 244.553 105.909 243.565C106.011 243.499 106.161 243.432 106.275 243.384L106.275 243.38C107.595 242.949 108.701 244.164 108.809 245.539ZM32.9869 250.541C33.2147 251.803 32.9231 253.282 32.1261 253.472C30.8429 253.673 30.0543 250.269 31.0844 248.975C31.7389 248.152 32.6988 248.943 32.9869 250.541ZM139.628 232.25C139.637 233.479 138.707 235.02 136.933 234.718C134.648 233.98 134.821 230.873 136.707 230.063C138.113 229.459 139.614 230.583 139.628 232.25ZM16.3825 240.642C16.5339 241.897 16.3161 243.411 15.7506 243.662C14.6741 243.935 14.4255 240.029 15.1383 239.044C15.5238 238.511 16.0099 238.92 16.2685 239.996C16.311 240.173 16.3582 240.439 16.3825 240.642ZM171.867 213.22C171.803 214.459 170.701 215.982 168.801 215.618C166.461 214.902 166.698 211.847 168.653 210.984C170.246 210.281 171.958 211.472 171.867 213.22ZM6.40121 224.69C6.4181 225.939 6.21364 227.481 5.85275 227.794C5.23274 228.07 5.25278 224.452 5.72799 223.24C5.79444 223.07 5.96857 222.71 6.14973 223.023C6.2964 223.276 6.39063 223.9 6.40121 224.69ZM203.69 189.014C203.538 189.815 203.057 190.28 202.825 190.504L202.824 190.505L202.825 190.502L202.824 190.502C202.455 190.791 201.688 191.389 200.393 191.12C197.905 190.4 198.231 187.342 200.343 186.481C202.204 185.722 204.049 187.119 203.69 189.014ZM4.00104 202.532C3.85492 203.696 3.55454 205.523 3.37147 205.926L3.35857 205.941L3.35032 205.95C3.14859 205.579 3.9367 201.161 4.09008 200.986C4.11544 201.034 4.17519 201.148 4.00104 202.532ZM232.61 159.746C232.338 161.038 230.904 162.174 229.203 161.807C226.78 161.153 226.945 158.308 228.923 157.324C230.851 156.366 233.021 157.792 232.61 159.746ZM255.523 128.17C255.244 129.494 253.723 130.335 252.202 130.007C250.073 129.494 249.688 127.123 251.558 126.043C253.484 124.93 255.929 126.242 255.523 128.17ZM270.214 97.3739C269.891 98.2505 268.789 99.0683 267.133 98.7934L267.132 98.7932L267.131 98.793L267.13 98.7928L267.129 98.7925L267.129 98.7924L267.128 98.7922L267.127 98.792L267.126 98.7918C264.565 98.1463 265.071 95.7727 266.487 94.9829C268.307 93.9683 270.739 95.1548 270.373 96.878L270.37 96.8916C270.361 96.932 270.348 96.9714 270.214 97.3739ZM276.775 68.528C276.579 69.3367 275.38 70.2358 273.64 69.821C271.672 69.2109 271.786 67.4474 273.344 66.8013C275.064 66.0871 277.116 67.12 276.775 68.528ZM276.31 44.4996C276.069 45.2463 274.815 45.8654 273.401 45.5594C271.711 45.1009 271.764 43.7698 273.077 43.1784C274.31 42.6219 276.119 42.9649 276.348 44.0905L276.346 44.0899L276.346 44.0935C276.353 44.2029 276.362 44.339 276.31 44.4996ZM271.456 26.0021C271.182 26.5157 270.012 27.0988 268.612 26.8094C267.21 26.3999 267.599 25.4913 268.546 25.0789C269.982 24.4536 271.832 24.9686 271.501 25.9017C271.49 25.9327 271.472 25.9727 271.456 26.0021ZM264.652 13.3888C264.25 13.7118 263.126 14.1037 261.992 13.9182C261.067 13.7117 261.202 13.2514 261.798 12.9221C262.972 12.2743 265.132 12.4039 264.879 13.1071C264.846 13.1998 264.77 13.2945 264.652 13.3888ZM257.573 5.84381C256.954 6.09836 255.764 6.31403 254.922 6.21851C254.232 6.11581 254.545 5.87659 254.658 5.80554C255.3 5.39996 257.444 5.09558 257.952 5.4238L257.951 5.42368C257.951 5.42361 257.95 5.42358 257.95 5.42377C257.997 5.47003 258.14 5.61121 257.573 5.84381ZM250.175 2.21106C249.382 2.37012 248.093 2.51736 247.436 2.4834C247.212 2.46829 247.124 2.43359 247.176 2.38104C247.452 2.09869 250.939 1.7298 250.87 1.98987C250.856 2.04373 250.596 2.12668 250.175 2.21106ZM241.119 1.18173C240.104 1.2962 238.745 1.42245 238.23 1.43481C238.069 1.43808 238.063 1.43283 238.047 1.41812C238.355 1.29025 241.646 1.00201 242.095 1.03391C242.079 1.05344 242.063 1.07507 241.119 1.18173ZM58.0417 233.623C59.1219 233.525 59.8979 232.03 59.7019 230.425C59.471 228.528 58.0122 227.675 56.9637 228.824C55.5452 230.378 56.3006 233.742 58.0417 233.623ZM84.0709 230.257C85.5218 230.33 86.3726 228.835 86.3288 227.409C86.2801 225.828 85.2189 224.718 84.012 224.985L84.0118 224.984C84.0118 224.984 84.0118 224.983 84.012 224.982C83.8499 225.031 83.6486 225.092 83.4265 225.241C81.7297 226.381 81.8418 229.881 84.0709 230.257ZM35.7099 230.596C36.6968 230.407 37.2353 228.724 37.1016 227.333C37.0435 226.724 36.8209 225.651 35.9891 225.308L35.9892 225.31L35.989 225.311C35.5968 225.202 35.2314 225.346 34.9025 225.74C33.6078 227.294 34.1886 230.789 35.7099 230.596ZM114.313 220.24C115.803 219.5 115.928 218.024 115.931 217.589C115.942 215.661 114.28 214.489 112.754 215.349C110.834 216.432 110.799 219.938 113.236 220.389C113.552 220.42 113.831 220.428 114.313 220.236C114.313 220.238 114.313 220.239 114.313 220.24ZM19.0538 221.033C19.8092 220.768 20.242 219.115 20.2101 217.734C20.2006 217.313 20.1502 216.996 20.1098 216.803C19.866 215.645 19.2773 215.34 18.7403 216.094C17.7659 217.463 17.7858 221.277 19.0538 221.033ZM144.083 204.081C146.09 204.411 147.28 202.669 147.335 201.339C147.414 199.418 145.583 198.209 143.899 199.07C141.837 200.123 141.601 203.346 144.083 204.081ZM9.80553 204.82C10.3836 204.46 10.8073 202.518 10.8912 201.256C10.9545 200.295 10.839 199.856 10.7866 199.712C10.6477 199.33 10.4206 199.361 10.1636 199.794C9.39854 201.086 8.95691 205.068 9.80553 204.82ZM175.208 181.813C177.205 182.174 178.548 180.609 178.749 179.341C179.086 177.219 176.989 175.837 175.01 176.877C172.907 177.981 172.672 181.117 175.208 181.813ZM8.85177 182.229C9.19277 181.823 9.75764 179.87 10.0323 178.677C10.1796 178.036 10.4042 176.945 10.2496 176.841C9.78561 177.074 8.46874 182.026 8.81162 182.249L8.83169 182.239L8.85177 182.229ZM204.042 154.308C205.933 154.667 207.515 153.307 207.753 151.862C208.091 149.809 205.918 148.472 203.878 149.476C201.713 150.543 201.447 153.659 204.042 154.308ZM230.829 122.802C230.934 122.622 231.064 122.399 231.14 122.115C231.696 120.021 229.124 118.64 226.97 119.878C224.869 121.083 225.192 123.625 227.509 124.126C227.858 124.192 229.661 124.439 230.833 122.802L230.832 122.802C230.831 122.802 230.83 122.802 230.829 122.802ZM243.253 94.2645C245.037 94.5116 246.277 93.6055 246.675 92.6599C246.801 92.3304 246.821 92.2799 246.835 92.2281L246.837 92.2193L246.843 92.1991L246.843 92.1981C247.328 90.3438 244.743 89.1422 242.715 90.2793C240.993 91.2443 240.596 93.668 243.247 94.2635L243.247 94.2636L243.248 94.2638L243.249 94.264L243.25 94.2642L243.25 94.2643L243.251 94.2645L243.252 94.2647L243.253 94.2645L243.253 94.2645ZM250.706 66.6363C252.438 66.9996 253.968 66.1272 254.259 65.1171C254.696 63.5995 252.494 62.5921 250.578 63.4329C248.843 64.1945 248.609 66.0454 250.706 66.6363ZM251.43 43.7001C252.943 43.9821 254.324 43.3216 254.736 42.5471C254.78 42.4652 254.824 42.3491 254.843 42.2599C255.13 40.9417 252.778 40.3376 251.087 41.2954C249.816 42.0148 249.723 43.2914 251.43 43.7001ZM247.384 26.2831C248.862 26.5391 250.242 25.8979 250.671 25.3364C250.758 25.2207 250.818 25.0837 250.836 25.0059C251.064 24.0007 248.86 23.7157 247.317 24.5503C246.435 25.0272 245.951 25.9185 247.384 26.2831ZM240.91 14.5918C242.017 14.7312 243.399 14.3358 244.044 13.8893C244.346 13.6809 244.425 13.5151 244.439 13.4125C244.534 12.6985 242.122 12.7973 240.804 13.5612C240.143 13.9451 239.966 14.4223 240.91 14.5918ZM232.83 7.8999C233.744 7.96289 235.213 7.63773 236.012 7.29547C236.382 7.13718 236.768 6.91327 236.511 6.74637L236.513 6.74573C235.877 6.46481 233.28 6.95294 232.542 7.49158C232.404 7.5921 232.156 7.83389 232.83 7.8999ZM190.502 8.79984C190.952 8.7009 192.067 8.42398 194 7.94388C195.374 7.60284 195.38 7.60071 195.445 7.57916C194.99 7.67123 190.664 8.70432 190.426 8.81488C190.449 8.81055 190.479 8.80457 190.502 8.79984ZM222.648 5.12503C223.414 5.12216 225.015 4.81644 225.973 4.54315C226.476 4.39954 226.784 4.27118 226.798 4.19971C226.862 3.85342 222.663 4.62646 222.35 5.01874C222.295 5.08759 222.395 5.1232 222.648 5.12503ZM208.903 5.44855C209.712 5.38248 211.621 4.97211 212.288 4.81946C213.037 4.64853 213.461 4.53287 213.549 4.47501C213.387 4.32932 208.922 5.23178 208.772 5.44055C208.803 5.45102 208.819 5.45114 208.903 5.44855ZM66.877 206.029C66.8791 207.275 66.184 209.129 64.6326 209.349L64.6322 209.349L64.6316 209.349L64.6313 209.349L64.6308 209.349L64.6303 209.35L64.6294 209.349C64.6294 209.349 64.6293 209.35 64.6289 209.35L64.6285 209.35H64.6283L64.6279 209.35C62.4318 209.349 62.2269 205.698 63.8455 204.142C65.202 202.838 66.8736 203.879 66.877 206.029ZM94.169 200.978C94.0648 202.507 92.9459 204.099 91.32 204.005C88.7821 203.59 88.9989 199.72 91.0813 198.524C92.6965 197.598 94.3124 198.881 94.169 200.978ZM43.8562 203.903C43.8917 205.647 42.9717 207.323 41.8874 207.491C40.2062 207.659 39.8218 204.096 41.3313 202.338C42.3506 201.151 43.5561 201.655 43.8126 203.374C43.8363 203.531 43.8528 203.743 43.8562 203.903ZM124.149 188.38C124.049 189.836 122.797 191.701 120.708 191.417C118.06 190.641 118.555 186.954 120.873 185.912C122.601 185.136 124.286 186.404 124.149 188.38ZM26.9415 194.827C26.8312 196.329 26.1269 198.112 25.1822 198.373C23.7666 198.572 23.9679 194.834 25.1608 193.207C25.882 192.223 26.6382 192.391 26.8825 193.589C26.9517 193.926 26.9734 194.389 26.9415 194.827ZM154.802 169.275C154.584 170.662 153.155 172.411 151.037 172.086C148.355 171.382 148.778 167.869 151.089 166.715C153.091 165.715 155.139 167.126 154.802 169.275ZM18.4497 178.274C18.22 179.618 17.5006 181.664 16.747 182.009C15.7212 182.196 16.4982 178.203 17.5699 176.686C17.9833 176.101 18.3318 176.044 18.4801 176.539C18.531 176.708 18.6304 177.217 18.4497 178.274ZM183.605 144.383C183.421 145.148 183.008 145.606 182.735 145.909L182.734 145.909L182.732 145.908L182.732 145.909C182.304 146.296 181.302 147.204 179.662 146.937C176.913 146.301 177.334 142.916 179.696 141.771C181.903 140.701 184.132 142.189 183.605 144.383ZM19.3972 155.185C18.9594 156.535 18.07 158.615 17.54 159.006C17.5205 159.011 17.4944 159.016 17.4749 159.02C17.0042 158.687 19.0306 153.482 19.6878 153.337C19.9075 153.489 19.6002 154.56 19.3972 155.185ZM207.39 116.327C207.054 117.906 205.195 119.038 203.41 118.749C200.984 118.28 200.759 115.532 203.039 114.225C205.233 112.967 207.835 114.224 207.39 116.327ZM29.5009 128.451C28.8996 129.577 27.8832 131.382 27.5063 131.869C27.4978 131.878 27.487 131.89 27.4783 131.899C27.3817 131.576 30.1037 126.924 30.3349 126.676C30.3495 126.724 30.3766 126.812 29.5009 128.451ZM223.518 88.661C223.147 89.5186 221.842 90.7122 219.764 90.4841L219.763 90.4839L219.762 90.4837L219.761 90.4835C219.761 90.4834 219.761 90.4835 219.76 90.4836L219.76 90.4836L219.759 90.4834L219.759 90.4833L219.758 90.4831L219.757 90.4829C216.986 89.9325 217.518 87.3813 219.381 86.3221C221.611 85.0546 224.311 86.2517 223.692 88.234L223.684 88.2605C223.669 88.3076 223.649 88.3533 223.519 88.6581L223.518 88.661ZM231.776 62.7828C231.299 63.7992 229.677 64.6961 227.887 64.3729C225.787 63.8437 226.009 62.0625 227.707 61.1191C229.819 59.9461 232.415 60.8669 231.852 62.5901C231.845 62.6136 231.835 62.64 231.825 62.6669C231.821 62.676 231.818 62.6851 231.814 62.6942C231.811 62.7023 231.808 62.7104 231.804 62.7184C231.795 62.7412 231.785 62.7632 231.776 62.7828ZM232.922 41.5119C232.477 42.3194 230.869 43.2588 229.006 42.9233C227.124 42.3739 227.881 40.9031 229.372 40.2335C231.362 39.3402 233.53 40.0122 232.996 41.3568C232.986 41.3809 232.974 41.4087 232.961 41.4361C232.948 41.4629 232.934 41.4894 232.922 41.5119ZM228.953 25.9391C228.384 26.5558 226.771 27.2986 225.22 27.0871C223.782 26.7818 224.319 25.8521 225.261 25.2983C226.989 24.2818 229.478 24.3809 229.236 25.456C229.201 25.6102 229.106 25.7729 228.953 25.9391ZM221.624 15.9541C220.818 16.4951 219.203 17.0173 217.999 16.917C217.026 16.7917 217.266 16.2883 217.902 15.8743C219.418 14.8882 222.392 14.5566 222.146 15.4016C222.112 15.5163 221.995 15.7052 221.624 15.9541ZM155.421 20.2707C154.587 20.6256 152.267 21.5953 151.562 21.8225C151.545 21.8264 151.522 21.8321 151.506 21.8359C151.639 21.6579 156.364 19.744 156.856 19.6184C156.83 19.6462 156.792 19.688 155.421 20.2707ZM211.505 10.8247C210.557 11.2914 208.784 11.7998 207.756 11.7837C207.029 11.7575 207.31 11.4693 207.464 11.3465C208.438 10.5723 212.195 9.72537 212.193 10.28C212.193 10.4111 211.942 10.6094 211.505 10.8247ZM178.824 12.971C177.729 13.3739 175.834 13.9974 175.053 14.1236C175.01 14.1284 174.983 14.131 174.963 14.1317C174.94 14.1324 174.925 14.131 174.902 14.1276L174.889 14.1008C175.184 13.7702 179.709 12.2731 180.211 12.3404C180.214 12.3482 180.218 12.3578 180.22 12.3655C180.125 12.4622 179.655 12.6662 178.824 12.971ZM197.512 9.95569C196.53 10.3286 194.626 10.9003 193.656 10.9416C193.538 10.9378 193.293 10.9295 193.503 10.7623C194.212 10.1972 198.461 9.04581 198.554 9.39267C198.579 9.48773 198.19 9.69806 197.512 9.95569ZM73.0052 184.62C74.6671 184.642 75.8976 182.853 76.0844 181.183C76.3336 178.958 74.7854 177.713 73.1264 178.805C71.0228 180.19 70.5579 184.259 73.0052 184.62ZM50.4799 184.273C51.6792 184.126 52.8631 182.466 53.065 180.647C53.0948 180.381 53.0995 180.028 53.0768 179.787C52.8998 177.914 51.4298 177.473 50.1639 178.914C48.4039 180.917 48.6107 184.423 50.4799 184.273ZM99.9253 176.927C101.751 177.039 103.139 175.323 103.38 173.668C103.721 171.317 101.778 169.967 99.8571 171.218C97.6059 172.684 97.2683 176.516 99.9253 176.927ZM34.1255 175.862C35.2419 175.622 36.2841 173.725 36.557 172.105C36.64 171.613 36.6409 171.238 36.6267 171.011C36.534 169.525 35.6017 169.199 34.5898 170.297C33.0157 172.008 32.422 176.027 34.1255 175.862ZM128.562 161.46C130.815 161.744 132.267 159.782 132.539 158.368C132.989 156.021 130.928 154.585 128.799 155.765C126.418 157.084 125.872 160.768 128.562 161.46ZM26.7316 159.63C27.6164 159.333 28.6525 157.416 29.1056 155.809C29.2998 155.12 29.3847 154.487 29.3387 154.073C29.2561 153.32 28.7997 153.26 28.1767 153.919C26.7018 155.48 25.4146 159.751 26.7316 159.63ZM156.51 139.442C158.544 139.716 160.324 138.174 160.711 136.562C161.293 134.137 158.851 132.738 156.497 134.147C154.143 135.557 153.762 138.851 156.51 139.442ZM29.3226 137.171C30.015 136.781 31.2081 134.801 31.8463 133.267C31.982 132.941 32.0658 132.694 32.1267 132.514C32.1263 132.514 32.1257 132.514 32.1256 132.515L32.1258 132.514C32.196 132.284 32.3598 131.747 32.2696 131.521C32.0406 130.946 30.5776 132.907 29.6164 135.078C29.1059 136.231 28.7961 137.378 29.3226 137.171ZM180.202 113.771C182.188 114.036 184.031 112.623 184.444 111.189C184.466 111.112 184.491 111.007 184.505 110.928C184.904 108.67 182.162 107.605 179.849 109.12C177.735 110.504 177.59 113.326 180.202 113.771ZM41.1796 111.486C41.7405 111.088 43.1142 109.251 43.9963 107.851C44.8912 106.431 44.7936 106.285 44.7613 106.237C44.3671 106.295 40.7429 110.992 41.0869 111.518C41.1162 111.514 41.1535 111.498 41.1796 111.486ZM196.857 87.4735C198.847 87.6312 200.327 86.5676 200.91 85.4435C201.105 85.0394 201.133 84.9611 201.177 84.7766C201.646 82.7933 198.953 81.8148 196.675 83.1399C194.671 84.3049 193.981 86.9865 196.85 87.4729L196.851 87.4731L196.852 87.4733L196.853 87.4734C196.853 87.4731 196.854 87.4732 196.854 87.4732L196.854 87.4734L196.855 87.4735L196.856 87.4737C196.856 87.4738 196.857 87.4735 196.857 87.4735ZM60.7371 85.407C61.1897 85.0559 62.515 83.7019 63.6917 82.3881C64.5526 81.4266 64.9783 80.8909 64.956 80.7954C64.4063 81.0518 60.5534 85.2112 60.6165 85.4797C60.6654 85.4588 60.6695 85.4573 60.7371 85.407ZM205.265 63.173C207.142 63.4538 209.001 62.4186 209.56 61.2758C209.619 61.1564 209.679 60.9887 209.707 60.8602C210.078 59.1435 207.413 58.5017 205.252 59.7865C203.48 60.8412 203.161 62.7084 205.265 63.173ZM85.3053 61.8292C85.8692 61.48 87.599 60.1015 88.8606 59.0329C90.1215 57.965 90.1358 57.878 90.141 57.8452C89.6692 57.999 85.2381 61.6161 85.2015 61.8775C85.2192 61.8719 85.2298 61.8686 85.24 61.8644C85.2461 61.8619 85.2522 61.859 85.2595 61.8551C85.2619 61.8538 85.2645 61.8524 85.2674 61.8509C85.2702 61.8493 85.2733 61.8476 85.2767 61.8457L85.3053 61.8292ZM206.391 43.5565C208.286 43.8303 210.106 42.7906 210.691 41.9349C210.795 41.783 210.891 41.5764 210.924 41.4329C211.235 40.0976 208.936 39.7116 206.893 40.756C205.347 41.5455 204.456 43.0691 206.391 43.5565ZM112.03 42.7875C112.739 42.4947 114.76 41.2449 115.946 40.4555C117.11 39.6814 117.247 39.5182 117.292 39.4648L117.292 39.4645C117.291 39.4582 117.288 39.4502 117.287 39.4429L117.284 39.4338C117.116 39.4609 116.573 39.7466 115.575 40.3329C113.793 41.3951 112.153 42.4937 111.92 42.7816C111.923 42.791 111.926 42.8039 111.929 42.8138L111.935 42.8128C111.965 42.8077 112.003 42.7968 112.03 42.7875ZM201.975 29.6589C203.619 29.8148 205.458 28.9192 206.153 28.2131C206.471 27.891 206.536 27.6428 206.549 27.5514C206.711 26.4232 203.882 26.6093 202.031 27.8477C200.955 28.5668 200.64 29.4407 201.975 29.6589ZM138.078 29.2973C139.019 29.0822 141.282 27.9477 142.285 27.3885C143.554 26.6807 143.555 26.5497 143.555 26.5067C143.079 26.3554 137.934 28.9047 137.938 29.2901C137.978 29.3031 138.036 29.3012 138.078 29.2973ZM192.998 21.5933C194.274 21.6348 196.205 20.9106 197.14 20.235C197.519 19.9613 197.739 19.6945 197.745 19.5021C197.771 18.6322 194.301 19.3944 192.794 20.5901C192.264 21.0107 191.999 21.5261 192.998 21.5933ZM161.156 21.4532C162.2 21.3327 164.297 20.4667 165.41 19.8875C166.126 19.515 166.541 19.2196 166.52 19.0969C166.437 18.6297 161.648 20.4828 160.95 21.2518C160.752 21.4705 161.025 21.459 161.156 21.4532ZM179.565 18.9616C180.551 18.9151 182.485 18.2672 183.704 17.5744C184.281 17.2473 184.596 16.9584 184.55 16.8023C184.374 16.2098 180.109 17.5865 179.181 18.5353C178.897 18.8264 179.037 18.9817 179.565 18.9616ZM86.8825 155.885C86.5199 157.646 84.9957 159.522 83.1661 159.481C80.5868 159.114 81.2362 155.128 83.5763 153.48C85.475 152.143 87.2347 153.227 86.9382 155.551C86.9253 155.652 86.9032 155.785 86.8825 155.885ZM64.5326 157.06C64.1951 159.033 62.6737 160.883 61.2766 161.02C59.1614 161.161 59.2156 157.513 61.3599 155.363C62.8894 153.83 64.4898 154.225 64.5918 156.159C64.6049 156.41 64.5808 156.779 64.5326 157.06ZM113.145 145.606C112.83 147.244 111.176 149.392 108.891 149.167C106.14 148.44 107.046 144.514 109.655 143.1C111.727 141.978 113.586 143.313 113.145 145.606ZM48.947 149.766C48.4947 151.476 47.1697 153.459 45.8193 153.681C43.961 153.786 44.7175 149.987 46.5436 148.059C47.83 146.701 49.0064 146.835 49.1137 148.352C49.1408 148.741 49.0789 149.269 48.947 149.766ZM139.674 128.266C139.349 129.445 138.524 130.163 138.172 130.469L138.173 130.466C137.411 131.032 136.528 131.537 135.24 131.401C132.403 130.826 133.114 127.231 135.703 125.79C138.12 124.445 140.347 125.834 139.674 128.266ZM42.7767 134.371C42.2485 135.849 40.8644 138.054 39.6393 138.35C38.1541 138.389 39.5347 134.612 41.3497 132.817C41.6124 132.557 42.9316 131.336 43.0809 132.839L43.0822 132.839L43.0829 132.838L43.0829 132.841C43.0787 133.121 43.0724 133.545 42.7767 134.371ZM162.809 106.024C162.372 107.611 160.397 109.225 158.259 109.003C155.57 108.607 155.938 105.578 158.243 104.1C160.603 102.586 163.24 103.529 162.869 105.753C162.861 105.798 162.851 105.85 162.839 105.901C162.834 105.923 162.829 105.945 162.824 105.966C162.819 105.986 162.814 106.006 162.809 106.024ZM47.1552 113.474C46.3679 115.029 44.8379 117.009 43.9018 117.364C43.0939 117.55 43.6596 115.959 44.6949 114.357C45.947 112.421 47.4107 111.117 47.65 111.725C47.7584 112.001 47.5781 112.639 47.1552 113.474ZM179.058 82.966C178.383 84.1628 176.783 85.3284 174.732 85.2344C174.731 85.2347 174.731 85.2346 174.731 85.2346L174.73 85.2344L174.729 85.2342C174.729 85.2342 174.729 85.2341 174.729 85.2345L174.728 85.2343L174.727 85.2341L174.727 85.2339L174.726 85.234L174.726 85.2341C171.962 84.8516 172.573 82.2737 174.508 80.9355C176.82 79.3364 179.748 80.0125 179.403 82.0659C179.342 82.4277 179.205 82.6883 179.059 82.9635L179.059 82.9639L179.058 82.966ZM60.9444 90.3482C60.051 91.5679 58.3443 93.4518 57.463 93.8167C56.9338 93.9312 57.4488 93.0561 57.8028 92.5246C58.613 91.3084 60.4082 89.2443 61.4923 88.6464L61.4929 88.6461L61.493 88.6459L61.4934 88.6458L61.4939 88.6456L61.4945 88.6453C61.6505 88.5803 61.9749 88.4451 61.7773 88.9731C61.7223 89.1196 61.5313 89.5467 60.9444 90.3482ZM187.594 60.9661C186.978 62.2297 184.899 63.4764 182.902 63.2452C180.655 62.826 181.239 60.7631 183.3 59.5865C185.598 58.2746 188.135 58.8087 187.751 60.5245C187.72 60.6611 187.656 60.8385 187.594 60.9661ZM81.9062 67.8987C80.7515 69.1058 78.8833 70.6959 78.048 71.0468C77.8154 71.1326 77.7411 71.0809 77.8207 70.8898C77.8658 70.7816 78.1823 70.16 79.998 68.4998L79.9992 68.4988L80.0003 68.4979C81.5673 67.0985 82.8256 66.2442 82.9278 66.511C82.9682 66.6159 82.7246 67.0427 81.9062 67.8987ZM188.043 44.0457C187.339 44.9848 185.326 46.1783 183.379 45.9753C181.435 45.5782 182.4 44.0065 183.917 43.0981C186.075 41.8073 188.622 41.9381 188.385 43.3274C188.346 43.5522 188.231 43.7939 188.043 44.0457ZM106.353 49.3747C105.076 50.4212 103.135 51.7159 102.227 51.9844L102.226 51.9845C102.096 52.0096 101.825 52.0616 102.113 51.6773C103.008 50.486 107.354 47.5988 107.583 48.0428C107.656 48.1833 107.184 48.6937 106.353 49.3747ZM181.96 32.9468C181.006 33.8363 179.022 34.7515 177.481 34.6794C176.109 34.5385 176.474 33.5913 177.621 32.7567C179.603 31.3128 182.738 30.8665 182.553 32.0548C182.525 32.2356 182.399 32.537 181.96 32.9468ZM131.312 36.0685C130.344 36.7652 128.018 38.1492 126.773 38.3481C126.611 38.3481 126.23 38.3476 126.86 37.7507C128.226 36.455 132.265 34.4325 132.402 34.9755C132.432 35.0966 132.165 35.455 131.312 36.0685ZM170.351 27.8642C169.162 28.7994 167.058 29.6488 165.849 29.6808C165.02 29.6888 164.895 29.297 165.529 28.6826C166.965 27.2911 170.896 26.0169 171.064 26.8893C171.108 27.1175 170.849 27.4731 170.351 27.8642ZM153.122 29.0153C151.888 29.8491 149.824 30.8055 148.641 30.8973C147.947 30.8908 148.231 30.4966 148.591 30.1669C150.05 28.8302 154.124 27.2112 154.179 27.946C154.187 28.0472 154.099 28.3542 153.122 29.0153ZM78.5226 137.869C80.534 137.601 82.0084 135.444 82.4131 133.998C82.7067 132.948 82.7211 131.174 80.9113 131.181L80.9108 131.181L80.9099 131.181L80.9094 131.181L80.9089 131.181L80.9086 131.181L80.908 131.181L80.9076 131.181L80.9073 131.181L80.907 131.182L80.9062 131.181C80.5614 131.227 79.7527 131.335 78.7272 132.286C76.5395 134.315 76.0567 137.878 78.5175 137.869L78.518 137.869L78.5189 137.869L78.5194 137.869L78.5199 137.869L78.5207 137.869L78.5209 137.869L78.5212 137.869L78.5217 137.869L78.5222 137.868L78.5226 137.869ZM105.31 129.17C107.641 129.343 109.497 127.165 109.941 125.526C110.56 123.241 108.758 121.956 106.557 123.113C103.772 124.578 102.545 128.506 105.31 129.17ZM59.8878 132.392C61.3765 132.21 63.0412 130.24 63.6622 128.514C63.8414 128.016 63.9455 127.483 63.9399 127.089C63.9164 125.423 62.3609 125.397 60.7391 127.035C58.727 129.066 57.9145 132.443 59.8878 132.392ZM133.199 109.036C135.31 109.191 137.292 107.55 137.917 105.941C137.982 105.773 138.051 105.541 138.084 105.365C138.511 103.112 136.075 102.236 133.665 103.778C131.142 105.392 130.464 108.645 133.199 109.036ZM55.715 114.59C57.1963 114.337 58.96 112.13 59.6629 110.635C59.9954 109.927 60.0672 109.465 60.08 109.252C60.1432 108.213 59.2779 108.162 58.0673 109.131C55.8868 110.879 54.089 114.491 55.715 114.59ZM153.589 83.8323C155.672 83.85 157.386 82.5706 158.161 81.2952C158.302 81.0514 158.537 80.6441 158.591 80.1408C158.802 78.1622 155.977 77.7429 153.636 79.4048C151.588 80.8594 150.803 83.5425 153.583 83.8322L153.583 83.832L153.584 83.8319L153.585 83.8321L153.585 83.8322L153.585 83.832L153.586 83.832L153.586 83.8322L153.587 83.8324C153.587 83.8322 153.587 83.8322 153.587 83.8321L153.588 83.8321L153.588 83.8322L153.589 83.8323ZM67.4635 90.0246C68.7199 89.721 70.6412 87.7644 71.5452 86.4689C72.0269 85.7788 72.3008 85.1879 72.2975 84.8475C72.2877 83.9689 70.6143 84.88 68.9182 86.6867C67.5572 88.1371 66.3451 90.1086 67.4635 90.0246ZM161.194 60.9016C163.405 61.1201 165.583 59.6074 166.305 58.4315C166.431 58.226 166.548 57.9517 166.591 57.7636C166.961 56.1256 164.595 55.7817 162.226 57.1291C160.251 58.2521 159.004 60.3889 161.194 60.9016ZM90.6383 66.078C91.7624 65.8177 93.7823 64.3156 94.9632 63.0754C95.613 62.3934 95.9938 61.8144 95.9825 61.5274C95.9425 60.5351 92.2665 62.8931 90.6671 64.9372C90.4302 65.2394 89.7285 66.216 90.6383 66.078ZM156.743 46.2117C158.433 46.2568 160.561 45.1136 161.564 44.0286C162.027 43.5277 162.151 43.1647 162.173 42.9487C162.313 41.5769 159.249 42.0393 157.052 43.7219C155.625 44.8137 155.16 46.075 156.743 46.2117ZM117.695 49.005C119.134 48.8546 121.435 47.3627 122.542 46.3438C123.133 45.8 123.463 45.3411 123.447 45.0837C123.402 44.324 120.671 45.4616 118.657 47.0793C118.564 47.1545 116.38 48.9215 117.695 49.005ZM141.548 42.0922C143.266 41.9019 145.326 40.6349 146.24 39.7964C146.791 39.2915 147.069 38.8536 147.024 38.5629C146.861 37.5151 143.069 38.9213 141.309 40.6817C141.066 40.9248 139.936 42.1346 141.543 42.0924L141.544 42.0925L141.544 42.0923L141.544 42.0922L141.545 42.0923L141.545 42.0923L141.545 42.092L141.546 42.0922L141.546 42.0923C141.547 42.0924 141.547 42.092 141.547 42.092L141.548 42.0922ZM96.829 111.344C96.1107 113.107 94.1169 115.012 92.1477 115.016C89.6025 114.729 90.787 111.039 93.4166 109.247C94.1197 108.768 94.6564 108.616 94.9773 108.525L94.9788 108.522C96.768 108.121 97.6153 109.413 96.829 111.344ZM80.2689 108.797C79.4857 110.512 77.5309 112.443 75.8698 112.586C73.8377 112.585 74.651 109.605 76.7354 107.585C78.5892 105.789 80.5291 105.566 80.6516 107.134C80.6768 107.456 80.6311 108.005 80.2689 108.797ZM120.134 99.7474C119.496 101.237 117.41 103.251 115.156 103.159C112.525 102.791 113.503 99.4967 116.143 97.7631C118.445 96.2513 120.667 96.8314 120.387 98.8722C120.354 99.1185 120.249 99.4787 120.134 99.7474ZM79.1606 93.3357C78.2643 95.0013 76.1655 97.0081 74.5857 97.2247C72.9616 97.2756 73.8653 94.8883 75.7506 93.0014C77.6115 91.1385 79.5638 90.556 79.6193 91.8472C79.6284 92.0673 79.5816 92.5528 79.1606 93.3357ZM138.377 80.4547C137.506 81.8039 135.695 83.1978 133.609 83.2695L133.608 83.2694L133.607 83.2692L133.607 83.2695L133.606 83.2693L133.606 83.2692C133.605 83.2695 133.605 83.2695 133.605 83.2693L133.604 83.2693L133.604 83.2695C130.966 83.0983 131.758 80.5448 133.672 78.9688C136.021 77.0349 139.002 77.0732 138.899 79.0359C138.871 79.591 138.588 80.1111 138.377 80.4547ZM93.4961 73.615C93.1359 74.0748 92.827 74.3795 92.4996 74.702L92.5018 74.6992C90.6213 76.4466 89.38 76.8024 88.9337 76.8743C87.67 77.0134 88.0874 75.7294 89.2212 74.4084C91.2196 72.0792 94.2733 70.58 94.3261 71.9017C94.3418 72.2969 94.0395 72.9211 93.4961 73.615ZM144.021 62.3438C143.185 63.5882 140.887 65.26 138.744 65.1614C136.545 64.8056 137.876 62.5535 139.813 61.2664C141.477 60.1601 144.09 59.4242 144.46 60.9882L144.462 60.9858C144.472 61.2502 144.487 61.6494 144.021 62.3438ZM115.94 58.2333C114.906 59.4486 112.544 61.1871 110.798 61.2902C109.196 61.114 110.906 59.0601 112.741 57.7788C114.771 56.3598 116.676 55.9235 116.661 56.8799C116.658 57.035 116.583 57.4771 115.94 58.2333ZM135.31 54.0258C134.147 55.4659 131.784 56.7879 130.253 56.8557C128.834 56.8889 128.825 55.8003 130.232 54.4284C132.419 52.2969 135.965 51.2916 135.896 52.8224C135.886 53.0535 135.776 53.4497 135.31 54.0258ZM93.4339 94.3111C95.3091 94.2104 97.4794 92.3402 98.4144 90.6653C98.6853 90.18 98.8693 89.6565 98.9067 89.2646C99.0783 87.4704 96.884 87.5204 94.638 89.3618C92.2567 91.3139 91.2138 94.256 93.4339 94.3111ZM114.973 83.6204C117.011 83.4461 118.951 81.8795 119.891 80.4973C120.066 80.2279 120.533 79.5113 120.537 78.7849C120.545 76.9762 117.763 77.2081 115.404 79.2131C113.403 80.914 112.409 83.5651 114.963 83.6208C114.963 83.6205 114.964 83.6206 114.964 83.6207C114.965 83.6208 114.965 83.6206 114.966 83.6207C114.966 83.6208 114.966 83.6209 114.967 83.6206C114.967 83.6207 114.968 83.6208 114.968 83.6204L114.969 83.6207C114.97 83.6204 114.97 83.6205 114.971 83.6206C114.971 83.6204 114.971 83.6204 114.971 83.6204L114.972 83.6205C114.972 83.6206 114.973 83.6203 114.973 83.6204ZM106.096 75.1973C108.161 75.1557 110.569 73.1599 111.514 71.7352C111.849 71.2293 111.969 70.8655 112.01 70.6937C112.39 69.1196 110.516 69.0533 108.227 70.5592C105.913 72.0822 103.959 74.8802 106.096 75.1973Z" fill="#BAA2E8"/>
</svg>
