<svg width="60" height="60" viewBox="0 0 60 60" fill="none" xmlns="http://www.w3.org/2000/svg">
<g id="&#60;Group&#62;">
<path id="&#60;Compound Path&#62;" fill-rule="evenodd" clip-rule="evenodd" d="M60 1.50001V13.898C60 14.7245 59.4539 15.398 58.7836 15.398H55.0972C54.849 17.2194 54.1539 18.8418 53.1485 20.0969V58.5C53.1485 59.3265 52.6024 60 51.9321 60H8.06785C7.3976 60 6.85147 59.3265 6.85147 58.5V20.0969C5.84609 18.8418 5.15101 17.2194 4.90277 15.398H1.21639C0.546134 15.398 0 14.7245 0 13.898V1.50001C0 0.673477 0.546134 0 1.21639 0H58.7836C59.4539 0 60 0.673477 60 1.50001ZM50.7033 22.1327C49.8717 22.5459 48.9532 22.7908 47.9851 22.7908C45.4903 22.7908 43.2809 21.2143 41.9901 18.8419C40.6992 21.2143 38.4899 22.7908 35.995 22.7908C33.5002 22.7908 31.2909 21.2143 30 18.8419C28.7091 21.2143 26.4998 22.7908 24.005 22.7908C21.5101 22.7908 19.3008 21.2143 18.0099 18.8419C16.7067 21.2143 14.5097 22.7908 12.0149 22.7908C11.0468 22.7908 10.1283 22.5459 9.29665 22.1327V56.9847H11.7667V39.7959C11.7667 39.2296 12.0149 38.7092 12.4245 38.449C15.3537 36.6122 20.8647 36.6122 23.7815 38.449C24.1911 38.7092 24.4518 39.2296 24.4518 39.7959V56.9847H50.7033V22.1327ZM22.0066 40.8061C19.8593 39.8725 16.3591 39.8725 14.1994 40.8061V57H22.0066V40.8061ZM57.5548 3.03062H2.44518V12.4133H6.01986C6.69011 12.4133 7.23625 13.0867 7.23625 13.9133C7.23625 17.1581 9.38353 19.8061 12.0149 19.8061C14.6463 19.8061 16.7935 17.1581 16.7935 13.9133C16.7935 13.0867 17.3397 12.4133 18.0099 12.4133C18.6802 12.4133 19.2263 13.0867 19.2263 13.9133C19.2263 17.1581 21.3736 19.8061 24.005 19.8061C26.6363 19.8061 28.7836 17.1581 28.7836 13.9133C28.7836 13.0867 29.3297 12.4133 30 12.4133C30.6703 12.4133 31.2164 13.0867 31.2164 13.9133C31.2164 17.1581 33.3637 19.8061 35.995 19.8061C38.6264 19.8061 40.7737 17.1581 40.7737 13.9133C40.7737 13.0867 41.3198 12.4133 41.9901 12.4133C42.6603 12.4133 43.2065 13.0867 43.2065 13.9133C43.2065 17.1581 45.3537 19.8061 47.9851 19.8061C50.6165 19.8061 52.7638 17.1581 52.7638 13.9133C52.7638 13.0867 53.3099 12.4133 53.9801 12.4133H57.5548V3.03062Z" fill="#58595B"/>
<path id="&#60;Compound Path&#62;_2" fill-rule="evenodd" clip-rule="evenodd" d="M47 28.4447V44.5699C47 45.3579 46.5864 46 46.0787 46H31.9213C31.4136 46 31 45.3579 31 44.5699V28.4447C31 27.6421 31.4136 27 31.9213 27H46.0787C46.5864 27 47 27.6421 47 28.4447ZM45.1481 29.8748H32.8425V43.1398H45.1481V29.8748Z" fill="#58595B"/>
<path id="&#60;Path&#62;" d="M16.5836 45.0386C15.9289 45.0386 15.3955 45.6807 15.3955 46.4834V46.9796C15.3955 47.7677 15.9289 48.4098 16.5836 48.4098C17.2383 48.4098 17.7717 47.7677 17.7717 46.9796V46.4834C17.7717 45.6807 17.2383 45.0386 16.5836 45.0386Z" fill="#FF7800"/>
<path id="&#60;Path&#62;_2" d="M35.7857 35H42.2222C42.6508 35 43 34.551 43 34C43 33.449 42.6508 33 42.2222 33H35.7857C35.3492 33 35 33.449 35 34C35 34.551 35.3492 35 35.7857 35Z" fill="#550EC5"/>
<path id="&#60;Path&#62;_3" d="M35.7857 40H42.2222C42.6508 40 43 39.5533 43 39.0051C43 38.4467 42.6508 38 42.2222 38H35.7857C35.3492 38 35 38.4467 35 39.0051C35 39.5533 35.3492 40 35.7857 40Z" fill="#550EC5"/>
<path id="&#60;Path&#62;_4" d="M11.6012 8.69735H47.0016C47.6563 8.69735 48.1897 8.05519 48.1897 7.25251C48.1897 6.46442 47.6563 5.82227 47.0016 5.82227H11.6012C10.9465 5.82227 10.4131 6.46442 10.4131 7.25251C10.4131 8.05519 10.9465 8.69735 11.6012 8.69735Z" fill="#58595B"/>
</g>
</svg>
