<svg width="60" height="60" viewBox="0 0 60 60" fill="none" xmlns="http://www.w3.org/2000/svg">
<g id="&#60;Group&#62;">
<path id="&#60;Path&#62;" d="M50.8027 59.9999C51.4748 59.9999 52.0224 59.4523 52.0224 58.7803C52.0224 58.1084 51.4748 57.5608 50.8027 57.5608H9.19721C8.52515 57.5608 7.97754 58.1084 7.97754 58.7803C7.97754 59.4523 8.52515 59.9999 9.19721 59.9999H50.8027Z" fill="#58595B"/>
<path id="&#60;Compound Path&#62;" fill-rule="evenodd" clip-rule="evenodd" d="M60 53.6534C60 54.3378 59.4524 54.8853 58.7803 54.8853H1.21967C0.54761 54.8853 0 54.3378 0 53.6534C0 52.9814 0.54761 52.4338 1.21967 52.4338H8.9608V27.3832C8.9608 26.9228 9.22216 26.4997 9.63286 26.3006L22.1655 19.9166V7.93264C22.1655 7.4722 22.4269 7.06152 22.8376 6.84997L36.0548 0.129994C36.4281 -0.0566722 36.8762 -0.0442247 37.2495 0.179774C37.6105 0.403774 37.822 0.801997 37.822 1.22511V29.2499L50.3672 35.6214C50.7779 35.833 51.0392 36.2561 51.0392 36.7165V52.4338H58.7803C59.4524 52.4338 60 52.9814 60 53.6534ZM22.1655 22.6668L11.4126 28.1423V52.4338H22.1655V22.6668ZM35.3827 3.21621L24.6173 8.69174V52.4338H35.3827V3.21621ZM48.5874 37.4632L37.822 32.0001V52.4338H48.5874V37.4632Z" fill="#58595B"/>
<path id="&#60;Path&#62;_2" d="M41.1573 50.729C41.6676 50.729 42.0783 50.3184 42.0783 49.8082V36.4802C42.0783 35.97 41.6676 35.5593 41.1573 35.5593C40.647 35.5593 40.2363 35.97 40.2363 36.4802V49.8082C40.2363 50.3184 40.647 50.729 41.1573 50.729Z" fill="#550EC5"/>
<path id="&#60;Path&#62;_3" d="M45.2637 50.7292C45.7616 50.7292 46.1723 50.3185 46.1723 49.8083V40.3506C46.1723 39.8404 45.7616 39.4297 45.2637 39.4297C44.7535 39.4297 44.3428 39.8404 44.3428 40.3506V49.8083C44.3428 50.3185 44.7535 50.7292 45.2637 50.7292Z" fill="#FF7800"/>
<path id="&#60;Path&#62;_4" d="M18.8428 50.7288C19.3531 50.7288 19.7638 50.3181 19.7638 49.8079V27.4453C19.7638 26.9351 19.3531 26.5244 18.8428 26.5244C18.3326 26.5244 17.9219 26.9351 17.9219 27.4453V49.8079C17.9219 50.3181 18.3326 50.7288 18.8428 50.7288Z" fill="#FF7800"/>
<path id="&#60;Path&#62;_5" d="M14.7357 50.7292C15.2459 50.7292 15.6567 50.3185 15.6567 49.8083V31.3159C15.6567 30.8057 15.2459 30.395 14.7357 30.395C14.2379 30.395 13.8271 30.8057 13.8271 31.3159V49.8083C13.8271 50.3185 14.2379 50.7292 14.7357 50.7292Z" fill="#550EC5"/>
<path id="&#60;Path&#62;_6" d="M32.2218 50.7291C32.7196 50.7291 33.1303 50.3184 33.1303 49.8082V8.28122C33.1303 7.771 32.7196 7.36035 32.2218 7.36035C31.7115 7.36035 31.3008 7.771 31.3008 8.28122V49.8082C31.3008 50.3184 31.7115 50.7291 32.2218 50.7291Z" fill="#FF7800"/>
<path id="&#60;Path&#62;_7" d="M27.7784 50.7289C28.2887 50.7289 28.6994 50.3182 28.6994 49.808V12.3628C28.6994 11.8526 28.2887 11.4419 27.7784 11.4419C27.2806 11.4419 26.8574 11.8526 26.8574 12.3628V49.808C26.8574 50.3182 27.2806 50.7289 27.7784 50.7289Z" fill="#550EC5"/>
</g>
</svg>
