<svg width="60" height="60" viewBox="0 0 60 60" fill="none" xmlns="http://www.w3.org/2000/svg">
<g id="&#60;Group&#62;">
<path id="&#60;Path&#62;" d="M37.1162 41.9712H38.261C38.9454 41.9712 39.5178 41.3408 39.5178 40.5703V39.2674C39.5178 38.497 38.9454 37.8525 38.261 37.8525H37.1162C36.4193 37.8525 35.8594 38.497 35.8594 39.2674V40.5703C35.8594 41.3408 36.4193 41.9712 37.1162 41.9712Z" fill="#FF7800"/>
<path id="&#60;Path&#62;_2" d="M42.0185 47.5034H43.1758C43.8602 47.5034 44.4201 46.873 44.4201 46.0885V44.7997C44.4201 44.0292 43.8602 43.3848 43.1758 43.3848H42.0185C41.3341 43.3848 40.7617 44.0292 40.7617 44.7997V46.0885C40.7617 46.873 41.3341 47.5034 42.0185 47.5034Z" fill="#FF7800"/>
<path id="&#60;Path&#62;_3" d="M42.0185 41.9712H43.1758C43.8602 41.9712 44.4201 41.3408 44.4201 40.5703V39.2674C44.4201 38.497 43.8602 37.8525 43.1758 37.8525H42.0185C41.3341 37.8525 40.7617 38.497 40.7617 39.2674V40.5703C40.7617 41.3408 41.3341 41.9712 42.0185 41.9712Z" fill="#550EC5"/>
<path id="&#60;Path&#62;_4" d="M37.1162 47.5034H38.261C38.9454 47.5034 39.5178 46.873 39.5178 46.0885V44.7997C39.5178 44.0292 38.9454 43.3848 38.261 43.3848H37.1162C36.4193 43.3848 35.8594 44.0292 35.8594 44.7997V46.0885C35.8594 46.873 36.4193 47.5034 37.1162 47.5034Z" fill="#550EC5"/>
<path id="&#60;Compound Path&#62;" fill-rule="evenodd" clip-rule="evenodd" d="M59.9257 30.3432C59.7515 30.8896 59.2911 31.2398 58.7809 31.2398H51.1405V58.6131C51.1405 59.3696 50.593 60 49.9211 60H10.0892C9.40483 60 8.85729 59.3696 8.85729 58.6131V31.2398H1.22938C0.706753 31.2398 0.246366 30.8896 0.0721559 30.3432C-0.102054 29.7969 0.0472566 29.1945 0.433007 28.8162L10.1639 19.5564V1.37287C10.1639 0.616393 10.7114 0 11.3833 0H19.173C19.8574 0 20.4049 0.616393 20.4049 1.37287V9.80621L29.215 1.4149C29.6629 0.980622 30.3349 0.980622 30.7953 1.4149L59.5648 28.8162C59.963 29.1945 60.0999 29.7969 59.9257 30.3432ZM12.6028 17.2309L17.9536 12.1457V2.74574H12.6028V17.2309ZM48.7016 31.2538H11.3087V57.2402H16.6594V44.9965C16.6594 41.8865 18.8993 39.3509 21.6617 39.3509C24.4242 39.3509 26.6765 41.8865 26.6765 44.9965V57.2402H48.7016V31.2538ZM24.2376 44.9965C24.2376 43.4135 23.0803 42.1107 21.6617 42.1107C20.2556 42.1107 19.0984 43.4135 19.0984 44.9965V57.2543H24.2376V44.9965ZM55.4336 28.494L29.9989 4.28672L4.56426 28.494H55.4336Z" fill="#636462"/>
<path id="&#60;Path&#62;_5" d="M15.0674 25.4968C15.0674 26.0711 15.478 26.5334 15.9882 26.5334H44.0235C44.5337 26.5334 44.9444 26.0711 44.9444 25.4968C44.9444 24.9364 44.5337 24.4741 44.0235 24.4741H15.9882C15.478 24.4741 15.0674 24.9364 15.0674 25.4968Z" fill="#636462"/>
<path id="&#60;Path&#62;_6" d="M23.6777 18.3806C23.6777 18.9549 24.0884 19.4172 24.5985 19.4172H35.3996C35.9098 19.4172 36.3204 18.9549 36.3204 18.3806C36.3204 17.8202 35.9098 17.3579 35.3996 17.3579H24.5985C24.0884 17.3579 23.6777 17.8202 23.6777 18.3806Z" fill="#636462"/>
<path id="&#60;Path&#62;_7" d="M19.5723 21.9377C19.5723 22.512 19.9829 22.9743 20.4931 22.9743H39.5193C40.017 22.9743 40.4277 22.512 40.4277 21.9377C40.4277 21.3773 40.017 20.915 39.5193 20.915H20.4931C19.9829 20.915 19.5723 21.3773 19.5723 21.9377Z" fill="#636462"/>
</g>
</svg>
