<svg xmlns="http://www.w3.org/2000/svg" width="22" height="26" viewBox="0 0 22 26" fill="none">
<path d="M11.5924 10.1041H7.70736C7.45931 10.1041 7.25908 9.90391 7.25908 9.65586V8.64575H0V26H8.24529V11.6044C8.24529 11.3563 8.44552 11.1561 8.69356 11.1561H11.5924V10.1041ZM2.88391 15.8839C2.88391 16.4756 1.98736 16.4756 1.98736 15.8839V11.0814C1.98736 10.4897 2.88391 10.4897 2.88391 11.0814V15.8839ZM0.00298829 7.7492H7.26207V1.24621C7.26207 0.998161 7.4623 0.797931 7.71035 0.797931H11.5954V0H0V7.74621L0.00298829 7.7492ZM1.98736 2.43563C1.98736 1.84391 2.88391 1.84391 2.88391 2.43563V5.7977C2.88391 6.38942 1.98736 6.38942 1.98736 5.7977V2.43264V2.43563ZM9.14483 15.5821V26H20.1246V15.5821H9.14184H9.14483ZM14.6347 16.1021C17.2198 16.1021 19.3237 18.206 19.3237 20.791C19.3237 23.3761 17.2198 25.48 14.6347 25.48C12.0497 25.48 9.94575 23.3671 9.94575 20.791C9.94575 18.2149 12.0526 16.1021 14.6347 16.1021ZM9.14483 12.0526V14.6855H20.1246V12.0526H9.14184H9.14483ZM14.7692 12.8536H15.6149C16.2067 12.8536 16.2067 13.7501 15.6149 13.7501H14.7692C14.1775 13.7501 14.1775 12.8536 14.7692 12.8536ZM12.6414 13.3018C12.6414 13.5499 12.4322 13.7501 12.1931 13.7501H11.3474C10.7556 13.7501 10.7556 12.8536 11.3474 12.8536H12.1931C12.4322 12.8536 12.6414 13.0538 12.6414 13.3018ZM12.0407 18.0297C10.4418 19.5329 10.4418 22.0492 12.0407 23.5524C14.4524 25.8207 18.4271 24.1053 18.4271 20.791C18.4271 17.4768 14.4584 15.7584 12.0407 18.0297ZM16.9777 20.1156L14.297 22.7933C13.8786 23.2117 13.2451 22.5782 13.6634 22.1598L16.3441 19.4821C16.7625 19.0637 17.3961 19.6972 16.9777 20.1156ZM13.1375 19.7959L14.5809 18.3494C14.9993 17.928 15.6359 18.5616 15.2145 18.983L13.771 20.4294C13.3526 20.8478 12.7191 20.2172 13.1375 19.7959ZM15.331 10.1908V11.1083H14.2492V10.1908H15.331ZM8.15563 1.69448V9.20759H21.1078V1.69448H8.15563ZM18.3883 6.10552L16.0931 8.40069C15.6747 8.81908 15.0412 8.18552 15.4595 7.76713L17.7547 5.47195C18.1731 5.05356 18.8067 5.68713 18.3883 6.10552ZM16.7087 3.29931C11.8106 8.19747 11.9809 8.10483 11.7149 8.10483C11.2906 8.10483 11.1441 7.5908 11.3982 7.33977L16.0722 2.66575C16.4906 2.24736 17.1241 2.88092 16.7057 3.29931H16.7087ZM12.7609 2.84207C12.9372 3.01839 12.9372 3.3023 12.7609 3.47563C10.2924 5.94713 10.4149 5.9023 10.152 5.9023C9.75747 5.9023 9.55126 5.42115 9.83517 5.13724L12.1274 2.84207C12.3067 2.66276 12.6055 2.68667 12.7609 2.84207Z" fill="#0D0C0D"/>
</svg>