<svg xmlns="http://www.w3.org/2000/svg" width="36" height="36" viewBox="0 0 36 36" fill="none">
<g clip-path="url(#clip0_633_6052)">
<path d="M20.9995 36.0002V26.2502C20.9995 25.4545 21.3155 24.6915 21.8781 24.1289C22.4407 23.5662 23.2038 23.2502 23.9995 23.2502V11.2502C23.9995 11.2502 21.7495 9.75017 17.9995 9.75017C14.2495 9.75017 11.9995 11.2502 11.9995 11.2502V23.2502C12.7951 23.2502 13.5582 23.5662 14.1208 24.1289C14.6834 24.6915 14.9995 25.4545 14.9995 26.2502V36.0002M17.7745 6.75017C17.7745 6.75017 15.3745 5.25017 15.3745 3.37517C15.3745 2.67978 15.6507 2.01286 16.1424 1.52114C16.6341 1.02942 17.3011 0.753174 17.9965 0.753174C18.6918 0.753174 19.3588 1.02942 19.8505 1.52114C20.3422 2.01286 20.6185 2.67978 20.6185 3.37517C20.6185 5.25017 18.2245 6.75017 18.2245 6.75017H17.7745Z" stroke="#131313" stroke-opacity="0.8" stroke-width="1.69375"/>
</g>
<defs>
<clipPath id="clip0_633_6052">
<rect width="36" height="36" fill="white"/>
</clipPath>
</defs>
</svg>