<svg xmlns="http://www.w3.org/2000/svg" width="26" height="26" viewBox="0 0 26 26" fill="none">
<path d="M17.0475 8.16746V2.58496H14.49C14.49 3.26746 14.5675 3.57496 14.2575 3.70246C14.1175 3.75996 13.9575 3.72996 13.85 3.61996L12.975 2.74246L12.1 3.61996C11.865 3.85496 11.46 3.68996 11.46 3.35496V2.58496H8.90247V8.16746H17.05H17.0475Z" fill="#0D0C0D"/>
<path d="M11.4549 0H8.89743V1.835H11.4549V0Z" fill="#0D0C0D"/>
<path d="M17.0475 0H14.49V1.835H17.0475V0Z" fill="#0D0C0D"/>
<path d="M16.545 12.5374C16.31 12.7724 15.905 12.6049 15.905 12.2724V11.5024H13.3475V17.0849H21.495V11.5024H18.9375V12.2724C18.9375 12.4799 18.77 12.6474 18.5625 12.6474C18.355 12.6474 18.3625 12.6024 17.42 11.6599L16.545 12.5374Z" fill="#0D0C0D"/>
<path d="M12.5975 17.0825V11.5H10.04V12.27C10.04 12.4775 9.87246 12.645 9.66496 12.645C9.45745 12.645 9.46495 12.6 8.52245 11.6575L7.64745 12.535C7.53995 12.6425 7.37995 12.675 7.23995 12.6175C6.95995 12.5025 7.00745 12.3175 7.00745 11.5H4.44995V17.0825H12.5975Z" fill="#0D0C0D"/>
<path d="M7.00745 8.91797H4.44995V10.753H7.00745V8.91797Z" fill="#0D0C0D"/>
<path d="M15.905 8.91797H13.3475V10.753H15.905V8.91797Z" fill="#0D0C0D"/>
<path d="M12.5975 8.91797H10.04V10.753H12.5975V8.91797Z" fill="#0D0C0D"/>
<path d="M21.495 8.91797H18.9375V10.753H21.495V8.91797Z" fill="#0D0C0D"/>
<path d="M12.7075 1.9475C12.855 1.8 13.0925 1.8 13.2375 1.9475L13.7375 2.45V0H12.205V2.4475L12.705 1.945L12.7075 1.9475Z" fill="#0D0C0D"/>
<path d="M8.25744 10.863C8.40494 10.7155 8.64244 10.7155 8.78744 10.863L9.28744 11.3655V8.91797H7.75494V11.3655L8.25494 10.863H8.25744Z" fill="#0D0C0D"/>
<path d="M16.655 11.3655L17.155 10.863C17.3025 10.7155 17.54 10.7155 17.685 10.863L18.185 11.3655V8.91797H16.6525V11.3655H16.655Z" fill="#0D0C0D"/>
<path d="M20.995 21.453C20.76 21.688 20.355 21.5205 20.355 21.188V20.418H17.7975V26.0005H25.945V20.418H23.3875C23.3875 21.1005 23.465 21.408 23.155 21.5355C23.015 21.593 22.855 21.563 22.7475 21.453L21.8725 20.5755L20.9975 21.453H20.995Z" fill="#0D0C0D"/>
<path d="M8.89743 26.0005H17.0449V20.418H14.4874V21.188C14.4874 21.3955 14.3199 21.563 14.1124 21.563C13.9049 21.563 13.9124 21.518 12.9699 20.5755L12.0949 21.453C11.9874 21.5605 11.8274 21.593 11.6874 21.5355C11.4074 21.418 11.4549 21.233 11.4549 20.418H8.89743V26.0005Z" fill="#0D0C0D"/>
<path d="M8.14751 20.418H5.59V21.188C5.59 21.3955 5.4225 21.563 5.215 21.563C5.0075 21.563 5.015 21.518 4.0725 20.5755L3.1975 21.453C3.09 21.5605 2.93 21.593 2.79 21.5355C2.51 21.418 2.5575 21.233 2.5575 20.418H0V26.0005H8.14751V20.418Z" fill="#0D0C0D"/>
<path d="M2.5575 17.832H0V19.667H2.5575V17.832Z" fill="#0D0C0D"/>
<path d="M20.355 17.832H17.7975V19.667H20.355V17.832Z" fill="#0D0C0D"/>
<path d="M17.0475 17.832H14.49V19.667H17.0475V17.832Z" fill="#0D0C0D"/>
<path d="M11.4549 17.832H8.89743V19.667H11.4549V17.832Z" fill="#0D0C0D"/>
<path d="M25.945 17.832H23.3875V19.667H25.945V17.832Z" fill="#0D0C0D"/>
<path d="M8.14747 17.832H5.58997V19.667H8.14747V17.832Z" fill="#0D0C0D"/>
<path d="M12.205 20.2825L12.705 19.78C12.8525 19.6325 13.09 19.6325 13.235 19.78L13.735 20.2825V17.835H12.2025V20.2825H12.205Z" fill="#0D0C0D"/>
<path d="M3.80749 19.78C3.95499 19.6325 4.19249 19.6325 4.33749 19.78L4.83749 20.2825V17.835H3.30499V20.2825L3.80499 19.78H3.80749Z" fill="#0D0C0D"/>
<path d="M21.105 20.2825L21.605 19.78C21.7525 19.6325 21.99 19.6325 22.135 19.78L22.635 20.2825V17.835H21.1025V20.2825H21.105Z" fill="#0D0C0D"/>
</svg>