<svg xmlns="http://www.w3.org/2000/svg" width="26" height="26" viewBox="0 0 26 26" fill="none">
<path d="M18.7153 5.1726H20.3641C20.7926 5.1726 21.14 4.82521 21.14 4.3967V0.775906C21.14 0.347391 20.7926 0 20.3641 0H18.7153C18.2868 0 17.9394 0.347391 17.9394 0.775906V4.3967C17.9394 4.82521 18.2868 5.1726 18.7153 5.1726Z" fill="#0D0C0D"/>
<path d="M5.23709 5.1726H6.88584C7.31435 5.1726 7.66175 4.82521 7.66175 4.3967V0.775906C7.66175 0.347391 7.31435 0 6.88584 0H5.23709C4.80857 0 4.46118 0.347391 4.46118 0.775906V4.3967C4.46118 4.82521 4.80857 5.1726 5.23709 5.1726Z" fill="#0D0C0D"/>
<path d="M25.6049 4.13896C25.6049 3.49497 25.0812 2.9751 24.441 2.9751H21.9155V4.39502C21.9155 5.25238 21.221 5.94683 20.3636 5.94683H18.7148C17.8613 5.94683 17.163 5.25238 17.163 4.39502V2.9751H8.43798V4.39502C8.43798 5.25238 7.73967 5.94683 6.88617 5.94683H5.23736C4.37998 5.94683 3.68555 5.25238 3.68555 4.39502V2.9751H1.16386C0.519867 2.9751 0 3.49497 0 4.13896V8.0922H25.6049V4.13896Z" fill="#0D0C0D"/>
<path d="M1.16386 25.9997H24.4372C25.0773 25.9997 25.601 25.4759 25.601 24.8358V8.86768H0V24.8358C0 25.4759 0.523727 25.9997 1.16386 25.9997ZM18.4433 11.0014C18.4433 10.5708 18.7886 10.2255 19.2192 10.2255H21.3685C21.7952 10.2255 22.1444 10.5708 22.1444 11.0014V13.1507C22.1444 13.5774 21.7952 13.9266 21.3685 13.9266H19.2192C18.7886 13.9266 18.4433 13.5774 18.4433 13.1507V11.0014ZM18.4433 15.9439C18.4433 15.5172 18.7886 15.168 19.2192 15.168H21.3685C21.7952 15.168 22.1444 15.5172 22.1444 15.9439V18.0971C22.1444 18.5238 21.7952 18.873 21.3685 18.873H19.2192C18.7886 18.873 18.4433 18.5238 18.4433 18.0971V15.9439ZM13.4464 11.0014C13.4464 10.5708 13.7956 10.2255 14.2223 10.2255H16.3716C16.8022 10.2255 17.1475 10.5708 17.1475 11.0014V13.1507C17.1475 13.5774 16.8022 13.9266 16.3716 13.9266H14.2223C13.7956 13.9266 13.4464 13.5774 13.4464 13.1507V11.0014ZM13.4464 15.9439C13.4464 15.5172 13.7956 15.168 14.2223 15.168H16.3716C16.8022 15.168 17.1475 15.5172 17.1475 15.9439V18.0971C17.1475 18.5238 16.8022 18.873 16.3716 18.873H14.2223C13.7956 18.873 13.4464 18.5238 13.4464 18.0971V15.9439ZM8.45349 11.0014C8.45349 10.5708 8.79877 10.2255 9.22939 10.2255H11.3787C11.8054 10.2255 12.1546 10.5708 12.1546 11.0014V13.1507C12.1546 13.5774 11.8054 13.9266 11.3787 13.9266H9.22939C8.79877 13.9266 8.45349 13.5774 8.45349 13.1507V11.0014ZM8.45349 15.9439C8.45349 15.5172 8.79877 15.168 9.22939 15.168H11.3787C11.8054 15.168 12.1546 15.5172 12.1546 15.9439V18.0971C12.1546 18.5238 11.8054 18.873 11.3787 18.873H9.22939C8.79877 18.873 8.45349 18.5238 8.45349 18.0971V15.9439ZM8.45349 20.8903C8.45349 20.4636 8.79877 20.1144 9.22939 20.1144H11.3787C11.8054 20.1144 12.1546 20.4636 12.1546 20.8903V23.0396C12.1546 23.4702 11.8054 23.8155 11.3787 23.8155H9.22939C8.79877 23.8155 8.45349 23.4702 8.45349 23.0396V20.8903ZM3.50709 10.951C3.50709 10.5242 3.85625 10.1751 4.28299 10.1751H6.43227C6.859 10.1751 7.20817 10.5242 7.20817 10.951V13.1003C7.20817 13.527 6.859 13.8762 6.43227 13.8762H4.28299C3.85625 13.8762 3.50709 13.527 3.50709 13.1003V10.951ZM3.45665 15.9439C3.45665 15.5172 3.80582 15.168 4.23256 15.168H6.38183C6.81245 15.168 7.15774 15.5172 7.15774 15.9439V18.0971C7.15774 18.5238 6.81245 18.873 6.38183 18.873H4.23256C3.80582 18.873 3.45665 18.5238 3.45665 18.0971V15.9439ZM3.45665 20.8903C3.45665 20.4636 3.80582 20.1144 4.23256 20.1144H6.38183C6.81245 20.1144 7.15774 20.4636 7.15774 20.8903V23.0396C7.15774 23.4702 6.81245 23.8155 6.38183 23.8155H4.23256C3.80582 23.8155 3.45665 23.4702 3.45665 23.0396V20.8903Z" fill="#0D0C0D"/>
</svg>