<svg width="26" height="24" viewBox="0 0 26 24" fill="none" xmlns="http://www.w3.org/2000/svg">
<path d="M19.7381 10.3754C19.5903 10.5602 19.4435 10.7458 19.2985 10.9304V19.8447C19.2985 20.6083 18.6771 21.2297 17.9134 21.2297H4.15519C3.3906 21.2297 2.77013 20.6083 2.77013 19.8447V6.08635C2.77013 5.32176 3.3906 4.70128 4.15519 4.70128H17.1443C17.6632 4.08081 18.1443 3.51194 18.6503 2.94405L19.0824 2.45191L19.3317 2.18043C18.8894 2.01889 18.4111 1.93115 17.9134 1.93115H4.15519C1.86337 1.93115 0 3.79452 0 6.08635V19.8447C0 22.1355 1.86337 23.9999 4.15519 23.9999H17.9135C20.2044 23.9999 22.0687 22.1356 22.0687 19.8447V7.561C21.3475 8.39667 20.5904 9.31171 19.7381 10.3754Z" fill="#248B04"/>
<path d="M25.1949 0.695878C24.795 0.0213601 23.9241 -0.201143 23.2496 0.198777C22.872 0.422643 22.5212 0.678253 22.18 0.944866C22.0076 1.077 21.8489 1.22024 21.6881 1.3627C21.5284 1.50614 21.3718 1.65269 21.2166 1.80089C20.9029 2.09516 20.6215 2.41543 20.3312 2.72897L19.8984 3.20124L19.4767 3.68091C18.9098 4.31746 18.3643 4.96822 17.8199 5.61966L17.0153 6.6046L16.2317 7.60387C15.197 8.94278 14.1895 10.2983 13.2254 11.6829C12.7409 12.3735 12.2664 13.0705 11.7957 13.7703C11.6228 14.0318 11.4515 14.2945 11.2801 14.5571C10.9112 14.2499 10.5787 13.9092 10.2792 13.5289C9.66973 12.7646 9.19454 11.8297 8.7989 10.8167L8.78995 10.7937C8.52567 10.1214 7.78153 9.75976 7.08267 9.98119C6.35323 10.2123 5.94922 10.9909 6.18029 11.7203C6.37319 12.3294 6.59647 12.9411 6.87643 13.5447C7.15687 14.1472 7.49135 14.7438 7.8939 15.3083C8.29684 15.8716 8.76697 16.4001 9.28286 16.8679C9.79778 17.3376 10.357 17.7435 10.927 18.0937C11.6223 18.5192 12.5398 18.3298 13.0033 17.6486L13.0312 17.6075C13.4922 16.9301 13.9651 16.258 14.4399 15.588C14.9153 14.918 15.3943 14.2507 15.8827 13.5904C16.8606 12.271 17.8494 10.9614 18.8725 9.68332C19.896 8.40546 20.9381 7.14806 22.0208 5.93525L22.4256 5.47924L22.8387 5.03336C23.115 4.73734 23.3878 4.43635 23.6597 4.13887C23.9303 3.83964 24.1865 3.52385 24.44 3.20796C24.6939 2.89276 24.9383 2.56655 25.1558 2.2086L25.1882 2.15582C25.4505 1.72231 25.4715 1.16211 25.1949 0.695878Z" fill="#248B04"/>
</svg>
