<svg width="79" height="60" viewBox="0 0 79 60" fill="none" xmlns="http://www.w3.org/2000/svg">
<path d="M41.8179 23.2275C41.8179 22.9514 42.0417 22.7275 42.3179 22.7275H46.7724C47.0486 22.7275 47.2724 22.9514 47.2724 23.2275V26.773C47.2724 27.0491 47.0486 27.273 46.7724 27.273H42.3179C42.0417 27.273 41.8179 27.0491 41.8179 26.773V23.2275Z" fill="#B6B6B7"/>
<path d="M41.8179 31.4092C41.8179 31.133 42.0417 30.9092 42.3179 30.9092H46.7724C47.0486 30.9092 47.2724 31.133 47.2724 31.4092V34.9546C47.2724 35.2308 47.0486 35.4546 46.7724 35.4546H42.3179C42.0417 35.4546 41.8179 35.2308 41.8179 34.9546V31.4092Z" fill="#58595B" fill-opacity="0.44"/>
<path d="M13.6357 11.4092C13.6357 11.133 13.8596 10.9092 14.1357 10.9092H18.5903C18.8664 10.9092 19.0903 11.133 19.0903 11.4092V14.9546C19.0903 15.2308 18.8664 15.4546 18.5903 15.4546H14.1357C13.8596 15.4546 13.6357 15.2308 13.6357 14.9546V11.4092Z" fill="#550EC5"/>
<path d="M13.6357 27.7725C13.6357 27.4963 13.8596 27.2725 14.1357 27.2725H18.5903C18.8664 27.2725 19.0903 27.4963 19.0903 27.7725V31.3179C19.0903 31.5941 18.8664 31.8179 18.5903 31.8179H14.1357C13.8596 31.8179 13.6357 31.5941 13.6357 31.3179V27.7725Z" fill="#B6B6B7"/>
<path d="M13.6357 35.7734C13.6357 35.4973 13.8596 35.2734 14.1357 35.2734H18.5903C18.8664 35.2734 19.0903 35.4973 19.0903 35.7734V39.3189C19.0903 39.595 18.8664 39.8189 18.5903 39.8189H14.1357C13.8596 39.8189 13.6357 39.595 13.6357 39.3189V35.7734Z" fill="#550EC5"/>
<path d="M22.7266 11.4092C22.7266 11.133 22.9504 10.9092 23.2266 10.9092H27.6811C27.9573 10.9092 28.1811 11.133 28.1811 11.4092V14.9546C28.1811 15.2308 27.9573 15.4546 27.6811 15.4546H23.2266C22.9504 15.4546 22.7266 15.2308 22.7266 14.9546V11.4092Z" fill="#B6B6B7"/>
<path d="M22.7266 27.7725C22.7266 27.4963 22.9504 27.2725 23.2266 27.2725H27.6811C27.9573 27.2725 28.1811 27.4963 28.1811 27.7725V31.3179C28.1811 31.5941 27.9573 31.8179 27.6811 31.8179H23.2266C22.9504 31.8179 22.7266 31.5941 22.7266 31.3179V27.7725Z" fill="#FF7800"/>
<path d="M22.7266 35.7734C22.7266 35.4973 22.9504 35.2734 23.2266 35.2734H27.6811C27.9573 35.2734 28.1811 35.4973 28.1811 35.7734V39.3189C28.1811 39.595 27.9573 39.8189 27.6811 39.8189H23.2266C22.9504 39.8189 22.7266 39.595 22.7266 39.3189V35.7734Z" fill="#B6B6B7"/>
<path d="M13.6357 19.5908C13.6357 19.3147 13.8596 19.0908 14.1357 19.0908H18.5903C18.8664 19.0908 19.0903 19.3147 19.0903 19.5908V23.1363C19.0903 23.4124 18.8664 23.6363 18.5903 23.6363H14.1357C13.8596 23.6363 13.6357 23.4124 13.6357 23.1363V19.5908Z" fill="#FF7800"/>
<path d="M22.7266 19.5908C22.7266 19.3147 22.9504 19.0908 23.2266 19.0908H27.6811C27.9573 19.0908 28.1811 19.3147 28.1811 19.5908V23.1363C28.1811 23.4124 27.9573 23.6363 27.6811 23.6363H23.2266C22.9504 23.6363 22.7266 23.4124 22.7266 23.1363V19.5908Z" fill="#58595B" fill-opacity="0.44"/>
<path d="M8.39112 3.6958H7.89112V4.1958V50.3496V50.8496H8.39112H33.5659H34.0659V50.3496V4.1958V3.6958H33.5659H8.39112ZM5.16333 53.5774L4.81072 53.93L5.16333 53.5774C4.86366 53.2778 4.69531 52.8713 4.69531 52.4476V2.0979C4.69531 1.67411 4.86366 1.26768 5.16333 0.968015C5.46299 0.66835 5.86942 0.5 6.29321 0.5H35.6638C36.0876 0.5 36.4941 0.66835 36.7937 0.968014C37.0934 1.26768 37.2617 1.67411 37.2617 2.0979V52.4476C37.2617 52.8713 37.0934 53.2778 36.7937 53.5774C36.4941 53.8771 36.0876 54.0455 35.6638 54.0455H6.29321C5.86942 54.0455 5.46299 53.8771 5.16333 53.5774Z" fill="#58595B" stroke="white"/>
<path d="M0.499512 51.8496C0.499512 51.2973 0.947227 50.8496 1.49951 50.8496H57.2408C57.7931 50.8496 58.2408 51.2973 58.2408 51.8496V53.0454C58.2408 53.5977 57.7931 54.0454 57.2408 54.0454H1.49951C0.947228 54.0454 0.499512 53.5977 0.499512 53.0454V51.8496Z" fill="#58595B" stroke="white"/>
<path d="M37.7617 20.479H37.2617V20.979V50.3496V50.8496H37.7617H50.3491H50.8491V50.3496V20.979V20.479H50.3491H37.7617ZM35.6638 17.2832H52.447C52.8708 17.2832 53.2773 17.4516 53.5769 17.7512C53.8766 18.0509 54.0449 18.4573 54.0449 18.8811V52.4475C54.0449 52.8713 53.8766 53.2778 53.5769 53.5774C53.2773 53.8771 52.8708 54.0454 52.447 54.0454H35.6638C35.24 54.0454 34.8336 53.8771 34.5339 53.5774C34.2343 53.2778 34.0659 52.8713 34.0659 52.4475V18.8811C34.0659 18.4573 34.2343 18.0509 34.5339 17.7512C34.8336 17.4516 35.24 17.2832 35.6638 17.2832Z" fill="#58595B" stroke="white"/>
<mask id="mask0_1603_9095" style="mask-type:alpha" maskUnits="userSpaceOnUse" x="39" y="20" width="40" height="40">
<rect x="39.0903" y="20.9092" width="39.0909" height="39.0909" fill="white"/>
</mask>
<g mask="url(#mask0_1603_9095)">
<path d="M57.9703 26.3633L57.2138 27.0862L50.9667 33.3669L49.9145 34.3865L51.2624 35.0441C51.2624 35.0441 52.3315 35.4303 53.8277 35.767L49.1906 40.4031L48.1384 41.4237L49.4537 42.0803C49.4537 42.0803 50.5879 42.4012 51.1635 42.6064L47.3818 46.3881L46.3633 47.4403L47.6786 48.098C47.6786 48.098 50.2428 49.3354 54.8137 49.7752V53.096H56.9181V49.9067C57.2717 49.9183 57.5999 49.9393 57.9703 49.9393C58.3407 49.9393 58.669 49.9183 59.0226 49.9067V53.096H61.127V49.7752C65.7063 49.3354 68.2958 48.098 68.2958 48.098L69.5774 47.4403L68.5588 46.3881L64.7771 42.6064C65.3527 42.4012 66.487 42.0803 66.487 42.0803L67.8023 41.4227L66.7501 40.4041L62.1129 35.767C63.6092 35.4303 64.6782 35.0441 64.6782 35.0441L66.0261 34.3865L64.9739 33.3669L58.7269 27.0862L57.9703 26.3633ZM57.9703 29.3558L62.1792 33.531C61.5542 33.7415 61.4269 33.9056 59.877 34.0571L57.9703 34.2549L56.0627 34.0571C54.5138 33.9056 54.3865 33.7415 53.7614 33.531L57.9703 29.3558ZM57.9703 34.6169L59.2204 35.8333L64.0532 40.6672C63.5639 40.8397 63.5766 40.8966 62.5738 41.0944L60.6335 41.489L62.0477 42.8695L65.8946 46.7174C64.5551 47.1983 62.2613 47.8349 57.9703 47.8349C53.7194 47.8349 51.436 47.1983 50.0787 46.7164L53.893 42.8695L55.3072 41.489L53.3669 41.0944C52.3641 40.8966 52.3767 40.8397 51.8874 40.6661L56.7213 35.8333L57.9703 34.6169Z" fill="white" stroke="white" stroke-width="3"/>
</g>
<path d="M49.3095 34.4423L49.3095 34.4423L49.3125 34.4393L55.5575 28.1607L56.152 27.5926L56.7465 28.1607L62.9914 34.4393L62.9914 34.4393L62.9945 34.4423L63.8097 35.2323L62.77 35.7396L62.7699 35.7396L62.7348 35.752C62.7035 35.7629 62.6567 35.779 62.5958 35.7994C62.4741 35.8403 62.2957 35.8984 62.0708 35.967C61.6207 36.1044 60.9851 36.2835 60.2437 36.4503L59.8336 36.5426L60.1309 36.8398L64.768 41.477L64.768 41.477L64.7707 41.4796L65.5882 42.2709L64.5845 42.7727L64.5552 42.7811L64.4182 42.8204C64.3024 42.8539 64.142 42.9006 63.9635 42.9537C63.608 43.0596 63.1752 43.1927 62.8811 43.2976L62.5363 43.4205L62.7951 43.6793L66.5754 47.4596L67.3755 48.2861L66.3751 48.7994L66.3719 48.801L66.3511 48.8106C66.3322 48.8192 66.3034 48.8321 66.2649 48.8489C66.1877 48.8825 66.0713 48.9314 65.917 48.9918C65.6082 49.1125 65.1474 49.2788 64.544 49.459C63.3371 49.8195 61.5597 50.2356 59.2865 50.454L59.0771 50.4741V50.6844V53.7737H57.4357V50.8159V50.5767L57.1966 50.5845C57.0804 50.5883 56.969 50.593 56.8592 50.5977C56.6262 50.6075 56.4005 50.617 56.152 50.617C55.9034 50.617 55.6778 50.6075 55.4448 50.5977C55.335 50.593 55.2235 50.5883 55.1073 50.5845L54.8683 50.5767V50.8159V53.7737H53.2268V50.6844V50.4741L53.0175 50.454C50.7486 50.2356 48.9797 49.8195 47.7803 49.4591C47.1806 49.2789 46.7233 49.1126 46.4172 48.992C46.2641 48.9317 46.1488 48.8827 46.0723 48.8492C46.0341 48.8324 46.0056 48.8195 45.987 48.8109L45.9665 48.8013L45.962 48.7992L45.9618 48.7991L45.9608 48.7987L45.9607 48.7986L45.9607 48.7986L44.9308 48.2836L45.7285 47.4596L49.5088 43.6793L49.7677 43.4205L49.4229 43.2976C49.1287 43.1927 48.696 43.0596 48.3405 42.9537C48.1619 42.9006 48.0015 42.8539 47.8857 42.8204L47.7487 42.7811L47.7194 42.7727L46.7156 42.2717L47.5334 41.4784L47.5334 41.4784L47.5359 41.476L52.173 36.8399L52.4704 36.5426L52.0602 36.4503C51.3188 36.2835 50.6832 36.1044 50.2332 35.967C50.0083 35.8984 49.8299 35.8403 49.7081 35.7994C49.6472 35.779 49.6005 35.7629 49.5692 35.752L49.534 35.7396L49.5339 35.7396L48.4942 35.2323L49.3095 34.4423ZM56.315 30.1006L56.152 29.9389L55.9889 30.1006L51.7801 34.2758L51.5139 34.5399L51.8692 34.6596C51.9929 34.7012 52.0954 34.7406 52.1984 34.7802C52.2208 34.7888 52.2433 34.7975 52.266 34.8061C52.3923 34.8544 52.5225 34.9021 52.684 34.948C53.0065 35.0397 53.4408 35.1203 54.221 35.1966C54.2213 35.1966 54.2215 35.1967 54.2218 35.1967L55.972 35.3782L54.7415 36.5766L54.7415 36.5766L54.7393 36.5787L49.9054 41.4116L49.6461 41.6708L49.9917 41.7935C50.1044 41.8335 50.1892 41.8669 50.2693 41.8985L50.2807 41.903C50.3642 41.9359 50.4451 41.9676 50.5436 42.0001C50.7406 42.0653 50.9991 42.1311 51.503 42.2305C51.5032 42.2306 51.5035 42.2306 51.5037 42.2307L53.0143 42.5379L51.9129 43.613L51.9129 43.613L51.9102 43.6157L48.0959 47.4626L47.8391 47.7217L48.1829 47.8437C49.565 48.3344 51.8745 48.9756 56.152 48.9756C60.4689 48.9756 62.7892 48.3346 64.1545 47.8445L64.4981 47.7211L64.24 47.463L60.393 43.615L60.393 43.615L60.391 43.613L59.2897 42.5379L60.8002 42.2307C60.8005 42.2306 60.8007 42.2306 60.8009 42.2305C61.3049 42.1311 61.5633 42.0653 61.7602 42.0003C61.8586 41.9679 61.9395 41.9363 62.0229 41.9036L62.0326 41.8998C62.1131 41.8682 62.1984 41.8347 62.3119 41.7947L62.6583 41.6725L62.3986 41.4127L57.5657 36.5788L57.5657 36.5788L57.5634 36.5765L56.3319 35.3782L58.0811 35.1967C58.0813 35.1967 58.0816 35.1966 58.0818 35.1966C58.8626 35.1203 59.2972 35.0397 59.6198 34.948C59.7813 34.9021 59.9116 34.8544 60.038 34.8061C60.0607 34.7975 60.0832 34.7888 60.1057 34.7802C60.2087 34.7406 60.3111 34.7012 60.4347 34.6596L60.7901 34.5399L60.5239 34.2758L56.315 30.1006Z" fill="#58595B" stroke="white" stroke-width="0.462977"/>
<rect x="52.7266" y="42.7275" width="3.63636" height="3.63636" fill="white"/>
</svg>
