<svg xmlns="http://www.w3.org/2000/svg" width="31" height="26" viewBox="0 0 31 26" fill="none">
<path fill-rule="evenodd" clip-rule="evenodd" d="M30.2967 18.8788C29.7112 21.479 28.0176 23.3994 26.3769 25.3963C26.1785 25.637 25.7677 25.637 25.5697 25.3963C23.9286 23.3994 22.2355 21.479 21.6495 18.8788C20.9421 15.7384 23.4632 14.1743 25.9729 14.1857C28.483 14.1743 31.0041 15.7384 30.2967 18.8788ZM7.87172 11.4433C6.80685 11.6346 6.51366 10.0117 7.58107 9.82085C7.60519 9.81662 16.7964 8.05706 16.8878 15.7193C17.2394 20.8804 16.8921 24.3471 23.0943 24.3471C24.1812 24.3471 24.1812 26 23.0943 26C15.74 26 15.3106 22.0193 15.2391 15.7367C15.1718 10.0531 7.88907 11.4412 7.87172 11.4433ZM8.76779 4.69363C8.18226 7.29384 6.4887 9.21374 4.84802 11.2106C4.6496 11.4514 4.2388 11.4514 4.0408 11.2106C2.40012 9.21374 0.706562 7.29384 0.121029 4.69363C-0.586771 1.55316 1.93432 -0.0113609 4.44441 6.2098e-05C6.95408 -0.0113609 9.47559 1.55316 8.76779 4.69363ZM2.35993 3.91729C1.71686 3.91729 1.71686 2.9383 2.35993 2.9383H4.35345C4.99737 2.9383 4.99737 3.91729 4.35345 3.91729H2.35993ZM5.80332 3.91729C5.15983 3.91729 5.15983 2.9383 5.80332 2.9383H6.52847C7.17196 2.9383 7.17196 3.91729 6.52847 3.91729H5.80332ZM6.52847 5.75512C7.17196 5.75512 7.17196 4.77655 6.52847 4.77655H4.53495C3.89145 4.77655 3.89145 5.75512 4.53495 5.75512H6.52847ZM3.08508 5.75512C3.72857 5.75512 3.72857 4.77655 3.08508 4.77655H2.35993C1.71686 4.77655 1.71686 5.75512 2.35993 5.75512H3.08508ZM23.8888 18.1025C23.2453 18.1025 23.2453 17.1239 23.8888 17.1239H25.8824C26.5258 17.1239 26.5258 18.1025 25.8824 18.1025H23.8888ZM27.3322 18.1025C26.6887 18.1025 26.6887 17.1239 27.3322 17.1239H28.0574C28.7009 17.1239 28.7009 18.1025 28.0574 18.1025H27.3322ZM28.0574 19.9408C28.7009 19.9408 28.7009 18.9622 28.0574 18.9622H26.0639C25.4204 18.9622 25.4204 19.9408 26.0639 19.9408H28.0574ZM24.614 19.9408C25.2575 19.9408 25.2575 18.9622 24.614 18.9622H23.8888C23.2453 18.9622 23.2453 19.9408 23.8888 19.9408H24.614Z" fill="#0D0C0D"/>
</svg>