<svg xmlns="http://www.w3.org/2000/svg" width="36" height="36" viewBox="0 0 36 36" fill="none">
  <g clip-path="url(#clip0_633_10819)">
    <path d="M5.25037 36.0002V26.2502C5.25037 25.4545 4.9343 24.6915 4.37169 24.1289C3.80908 23.5662 3.04602 23.2502 2.25037 23.2502V11.2502C2.25037 11.2502 4.50037 9.75017 8.25037 9.75017C9.38957 9.74838 10.5243 9.89255 11.6269 10.1792M15.7519 36.0002V27.7502H10.5004V27.3752L10.6084 27.1502C13.0063 22.1139 14.2505 16.6062 14.2504 11.0282V10.5347C15.6916 10.0069 17.2156 9.74126 18.7504 9.75017C20.6824 9.75017 22.2169 10.1492 23.2504 10.5347V11.0282C23.2504 12.2333 23.3084 13.4377 23.4244 14.6372M31.1254 36.0002V30.8612C31.1254 29.1422 32.3014 27.7502 33.7504 27.7502V18.0557C33.7504 18.0557 31.7809 16.5002 28.5004 16.5002C25.2184 16.5002 23.2504 18.0557 23.2504 18.0557V27.7502C24.7009 27.7502 25.8754 29.1437 25.8754 30.8612V36.0002M8.02537 6.75017C8.02537 6.75017 5.62537 5.25017 5.62537 3.37517C5.62537 3.03085 5.69319 2.68989 5.82495 2.37178C5.95672 2.05366 6.14986 1.76462 6.39333 1.52114C6.63681 1.27766 6.92585 1.08453 7.24397 0.952762C7.56209 0.820994 7.90304 0.753174 8.24737 0.753174C8.59169 0.753174 8.93265 0.820994 9.25076 0.952762C9.56888 1.08453 9.85792 1.27766 10.1014 1.52114C10.3449 1.76462 10.538 2.05366 10.6698 2.37178C10.8015 2.68989 10.8694 3.03085 10.8694 3.37517C10.8694 5.25017 8.47537 6.75017 8.47537 6.75017H8.02537ZM18.5254 6.75017C18.5254 6.75017 16.1254 5.25017 16.1254 3.37517C16.1254 2.67978 16.4016 2.01286 16.8933 1.52114C17.3851 1.02942 18.052 0.753174 18.7474 0.753174C19.4428 0.753174 20.1097 1.02942 20.6014 1.52114C21.0931 2.01286 21.3694 2.67978 21.3694 3.37517C21.3694 5.25017 18.9754 6.75017 18.9754 6.75017H18.5254ZM28.3099 13.5002C28.3099 13.5002 26.2504 12.1877 26.2504 10.5467C26.2504 9.27917 27.2584 8.25017 28.5034 8.25017C29.7484 8.25017 30.7504 9.27917 30.7504 10.5467C30.7504 12.1877 28.6954 13.5002 28.6954 13.5002H28.3099Z" stroke="#550EC5" stroke-width="1.69375"/>
  </g>
  <defs>
    <clipPath id="clip0_633_10819">
      <rect width="36" height="36" rx="8" fill="white"/>
    </clipPath>
  </defs>
</svg>