<svg width="57" height="62" viewBox="0 0 57 62" fill="none" xmlns="http://www.w3.org/2000/svg">
<g id="Group">
<path id="Vector" d="M29.2243 19.7948H20.2311L15.5647 40.27H33.8906L29.2243 19.7948ZM19.8068 18.6919H29.6485C29.9313 18.6919 30.1576 18.8899 30.1858 19.1444L35.1067 40.666C35.1632 40.9488 34.9936 41.2598 34.7107 41.3164C34.6825 41.3164 34.6259 41.3164 34.5976 41.3164H14.9143C14.6032 41.3164 14.377 41.0619 14.377 40.7791C14.377 40.7225 14.377 40.666 14.4052 40.6094L19.3261 19.0878C19.3261 18.8616 19.5523 18.6919 19.8068 18.6919Z" fill="#58595B" stroke="#58595B" stroke-width="0.8"/>
<g id="Vector_2">
<path d="M4.53508 56.8427C4.61992 56.6448 4.81788 56.5316 5.04413 56.5316L4.53508 56.8427ZM44.3542 41.3449H11.9729L5.83599 56.5034H50.5194L44.3542 41.3449ZM38.1325 40.2703H40.9605L39.999 27.346C39.8859 26.5542 39.7162 26.1017 39.5182 25.8754C39.3203 26.1017 39.1506 26.5824 39.094 27.3177L38.1325 40.2703ZM11.6052 40.2703H37.0295L37.9911 27.2612C38.3304 23.7827 40.7626 24.0937 41.0737 27.2612V27.2895L42.0352 40.2703H44.7219C44.9481 40.2703 45.1461 40.4117 45.2309 40.6096L51.8203 56.8427C51.9334 57.1255 51.792 57.4366 51.5092 57.5497C51.4527 57.578 51.3678 57.578 51.3113 57.578H5.01585C4.70477 57.578 4.47852 57.3235 4.47852 57.0407C4.47852 56.9559 4.5068 56.8993 4.53508 56.8144L11.1245 40.5814C11.181 40.3834 11.4073 40.2703 11.6052 40.2703Z" fill="#58595B"/>
<path d="M4.53508 56.8427C4.61992 56.6448 4.81788 56.5316 5.04413 56.5316M44.3542 41.3449H11.9729L5.83599 56.5034H50.5194L44.3542 41.3449ZM38.1325 40.2703H40.9605L39.999 27.346C39.8859 26.5542 39.7162 26.1017 39.5182 25.8754C39.3203 26.1017 39.1506 26.5824 39.094 27.3177L38.1325 40.2703ZM11.6052 40.2703H37.0295L37.9911 27.2612C38.3304 23.7827 40.7626 24.0937 41.0737 27.2612V27.2895L42.0352 40.2703H44.7219C44.9481 40.2703 45.1461 40.4117 45.2309 40.6096L51.8203 56.8427C51.9334 57.1255 51.792 57.4366 51.5092 57.5497C51.4527 57.578 51.3678 57.578 51.3113 57.578H5.01585C4.70477 57.578 4.47852 57.3235 4.47852 57.0407C4.47852 56.9559 4.5068 56.8993 4.53508 56.8144L11.1245 40.5814C11.181 40.3834 11.4073 40.2703 11.6052 40.2703Z" stroke="#58595B" stroke-width="0.8"/>
</g>
<path id="Vector_3" d="M13.2734 44.9082H14.6309L15.3096 47.9059H12.5664L13.2734 44.9082Z" fill="#FF7800"/>
<path id="Vector_4" d="M17.9971 44.9082H19.3828L20.0616 47.9059H17.3184L17.9971 44.9082Z" fill="#550EC5"/>
<path id="Vector_5" d="M22.7481 44.9082H24.1055L24.8126 47.9059H22.0693L22.7481 44.9082Z" fill="#FF7800"/>
<path id="Vector_6" d="M27.4707 44.9082H28.8565L29.5352 47.9059H26.792L27.4707 44.9082Z" fill="#550EC5"/>
<path id="Vector_7" d="M32.2217 44.9082H33.5792L34.2862 47.9059H31.543L32.2217 44.9082Z" fill="#FF7800"/>
<path id="Vector_8" d="M36.9726 44.9082H38.3301L39.0089 47.9059H36.2656L36.9726 44.9082Z" fill="#550EC5"/>
<path id="Vector_9" d="M41.6963 44.9082H43.0821L43.7608 47.9059H41.0176L41.6963 44.9082Z" fill="#FF7800"/>
<path id="Vector_10" d="M26.3674 37.517C26.0563 37.517 25.8301 37.2625 25.8301 36.9797C25.8301 36.6686 26.0846 36.4424 26.3674 36.4424H33.579C33.8901 36.4424 34.1163 36.6969 34.1163 36.9797C34.1163 37.2908 33.8618 37.517 33.579 37.517H26.3674Z" fill="#58595B" stroke="#58595B" stroke-width="0.8"/>
<path id="Vector_11" d="M25.8762 34.6503C25.5651 34.6503 25.3389 34.3958 25.3389 34.113C25.3389 33.8019 25.5934 33.5757 25.8762 33.5757H32.2394C32.5504 33.5757 32.7767 33.8302 32.7767 34.113C32.7767 34.4241 32.5222 34.6503 32.2394 34.6503H25.8762Z" fill="#58595B" stroke="#58595B" stroke-width="0.8"/>
<path id="Vector_12" d="M17.3741 18.0983C17.9114 18.4376 18.7033 18.6639 19.7779 18.6922H19.8062H28.3753H28.4035C29.3368 18.7204 29.9024 18.4942 30.2701 18.0983C30.6943 17.674 30.9488 16.9953 31.2316 16.2035C31.2882 16.0055 31.4578 15.8358 31.6841 15.8075C31.9952 15.7792 32.2497 15.9772 32.278 16.2883C32.3345 16.7408 32.7022 17.1933 33.2678 17.5044C33.692 17.7589 34.2011 17.9569 34.7384 18.07C35.2757 18.1831 35.8696 18.2397 36.407 18.1548C37.3119 18.0417 38.1604 17.6741 38.6411 16.8822C38.6694 16.8539 38.6977 16.8256 38.6977 16.7973C38.8957 16.5711 39.235 16.5428 39.4613 16.7408C39.5744 16.8256 39.6592 16.9105 39.7724 16.9953C41.0167 17.9569 42.2328 18.0134 43.3074 17.7023C44.4104 17.363 45.3154 16.6559 45.8527 16.0338C45.9093 15.9489 45.9941 15.8924 46.0507 15.8075C46.1072 15.751 46.1638 15.6944 46.2204 15.6661C46.4749 15.5247 46.8142 15.6378 46.9556 15.8924C47.5213 16.967 48.7656 16.8822 49.9817 16.26C50.6887 15.8924 51.3957 15.355 51.9613 14.7046C52.5269 14.0824 53.0077 13.4037 53.2339 12.7532C53.5733 11.82 53.3753 10.915 52.2724 10.519C52.0179 10.4342 51.8482 10.1797 51.8765 9.89687C52.1027 8.76564 51.7916 7.60614 51.1977 6.67288C50.8018 6.0507 50.2645 5.54165 49.6706 5.20229C49.105 4.86292 48.4545 4.72151 47.7758 4.77808H47.7475C46.9556 4.86292 46.1072 5.28713 45.3436 6.19211C45.2871 6.27695 45.2022 6.33351 45.0891 6.36179C44.8063 6.44663 44.4952 6.27695 44.4104 5.99414C43.9579 4.43871 42.7418 3.30748 41.2429 2.65703H41.2147C40.4511 2.34594 39.631 2.14798 38.8108 2.09141C37.9907 2.03485 37.1705 2.11969 36.407 2.31766C35.0778 2.71359 33.9183 3.56201 33.3527 4.91948C33.2961 5.0326 33.2113 5.14572 33.0699 5.23057C32.787 5.37197 32.4759 5.23057 32.3345 4.97604C31.8821 4.04278 31.0902 3.53373 30.2418 3.39232C29.7893 3.30748 29.3368 3.36404 28.9126 3.47716C28.4884 3.61857 28.0924 3.81653 27.8096 4.1559C27.2723 4.72151 26.9612 5.54165 27.1592 6.67288C27.1875 6.786 27.1592 6.9274 27.1026 7.04053C26.9612 7.29505 26.6219 7.37989 26.3673 7.23849C25.3492 6.67288 24.2746 6.30523 23.2282 6.27695C22.3798 6.24867 21.5313 6.39007 20.796 6.786C20.0607 7.18193 19.382 7.8041 18.873 8.73737C18.2225 9.86859 17.7983 11.424 17.7135 13.4602C17.7135 13.6016 17.6569 13.743 17.5155 13.8562C16.9782 14.3087 16.6105 14.9308 16.4408 15.553C16.2994 16.0338 16.2994 16.5428 16.4408 17.0236C16.6105 17.3912 16.8933 17.8155 17.3741 18.0983ZM19.7497 19.7951C18.477 19.7668 17.4872 19.484 16.7802 19.0315C16.0732 18.579 15.649 17.9851 15.4227 17.3064C15.2248 16.6559 15.2248 15.9206 15.3944 15.2419C15.5924 14.4783 16.0449 13.743 16.6388 13.1774C16.7519 11.0564 17.2327 9.4161 17.9397 8.20003C18.5619 7.09709 19.382 6.30523 20.3153 5.82446C21.2485 5.34369 22.2666 5.14572 23.313 5.174C24.218 5.20228 25.1795 5.45681 26.0562 5.85274C26.0845 4.83464 26.4805 3.98622 27.0744 3.39232C27.4986 2.93983 28.0642 2.62875 28.6581 2.45906C29.252 2.28938 29.8741 2.23282 30.4963 2.34594C31.373 2.48734 32.2214 2.91155 32.8719 3.67513C33.6637 2.48734 34.8515 1.69548 36.1807 1.29956C37.0574 1.04503 38.019 0.960187 38.9522 1.01675C39.8855 1.07331 40.8187 1.29956 41.6954 1.6672H41.7237C43.2226 2.31766 44.5235 3.39232 45.2022 4.86292C46.0224 4.1559 46.8708 3.78825 47.6909 3.70341H47.7192C48.6242 3.61857 49.5009 3.81653 50.2645 4.26902C51.0281 4.69323 51.6785 5.34369 52.1593 6.10726C52.8097 7.15365 53.1774 8.42628 53.036 9.69891C54.5631 10.4342 54.7894 11.7634 54.2803 13.1774C53.9975 13.9693 53.4602 14.7894 52.7814 15.4964C52.131 16.2035 51.3109 16.8256 50.4907 17.2498C48.9918 18.0417 47.4364 18.1831 46.4466 17.0519C45.7961 17.7306 44.778 18.4376 43.6185 18.8053C42.2893 19.2012 40.7622 19.1164 39.2067 17.9851C38.528 18.7487 37.5665 19.1729 36.5201 19.286C35.8413 19.3709 35.1626 19.3143 34.5122 19.1729C33.8617 19.0315 33.2395 18.777 32.7022 18.4659C32.3345 18.2397 32.0235 17.9851 31.7972 17.7023C31.5993 18.1548 31.3447 18.5225 31.0336 18.8618C30.4397 19.484 29.6196 19.8234 28.347 19.7951H19.8062H19.7497Z" fill="#58595B" stroke="#58595B" stroke-width="0.8"/>
<path id="Vector_13" d="M20.966 54.6933C20.6549 54.6933 20.4287 54.4388 20.4287 54.156C20.4287 53.8449 20.6832 53.6187 20.966 53.6187H49.6709C49.982 53.6187 50.2082 53.8732 50.2082 54.156C50.2082 54.4671 49.9537 54.6933 49.6709 54.6933H20.966Z" fill="#58595B"/>
<path id="Vector_14" d="M55.4968 60.9999H1.53733C1.22624 60.9999 1 60.7454 1 60.4625V57.0971C1 56.7861 1.25452 56.5598 1.53733 56.5598H55.4968H55.5251C55.8362 56.5598 56.0624 56.8143 56.0624 57.0971V60.4625V60.4908C56.0341 60.7453 55.7796 60.9999 55.4968 60.9999ZM2.04639 59.8969H54.9312V57.6062H2.04639V59.8969Z" fill="#58595B" stroke="#58595B" stroke-width="0.8"/>
</g>
</svg>
