<svg width="57" height="62" viewBox="0 0 57 62" fill="none" xmlns="http://www.w3.org/2000/svg">
<g id="Group">
<path id="Vector" d="M29.2243 19.7953H20.2311L15.5647 40.2705H33.8906L29.2243 19.7953ZM19.8068 18.6924H29.6485C29.9313 18.6924 30.1576 18.8903 30.1858 19.1449L35.1067 40.6664C35.1632 40.9492 34.9936 41.2603 34.7107 41.3169C34.6825 41.3169 34.6259 41.3169 34.5976 41.3169H14.9143C14.6032 41.3169 14.377 41.0624 14.377 40.7796C14.377 40.723 14.377 40.6664 14.4052 40.6099L19.3261 19.0883C19.3261 18.8621 19.5523 18.6924 19.8068 18.6924Z" fill="#58595B" stroke="#58595B" stroke-width="0.8"/>
<g id="Vector_2">
<path d="M4.53508 56.8432C4.61992 56.6453 4.81788 56.5321 5.04413 56.5321L4.53508 56.8432ZM44.3542 41.3454H11.9729L5.83599 56.5039H50.5194L44.3542 41.3454ZM38.1325 40.2708H40.9605L39.999 27.3465C39.8859 26.5546 39.7162 26.1022 39.5182 25.8759C39.3203 26.1022 39.1506 26.5829 39.094 27.3182L38.1325 40.2708ZM11.6052 40.2708H37.0295L37.9911 27.2617C38.3304 23.7831 40.7626 24.0942 41.0737 27.2617V27.2899L42.0352 40.2708H44.7219C44.9481 40.2708 45.1461 40.4122 45.2309 40.6101L51.8203 56.8432C51.9334 57.126 51.792 57.4371 51.5092 57.5502C51.4527 57.5785 51.3678 57.5785 51.3113 57.5785H5.01585C4.70477 57.5785 4.47852 57.324 4.47852 57.0412C4.47852 56.9563 4.5068 56.8998 4.53508 56.8149L11.1245 40.5818C11.181 40.3839 11.4073 40.2708 11.6052 40.2708Z" fill="#58595B"/>
<path d="M4.53508 56.8432C4.61992 56.6453 4.81788 56.5321 5.04413 56.5321M44.3542 41.3454H11.9729L5.83599 56.5039H50.5194L44.3542 41.3454ZM38.1325 40.2708H40.9605L39.999 27.3465C39.8859 26.5546 39.7162 26.1022 39.5182 25.8759C39.3203 26.1022 39.1506 26.5829 39.094 27.3182L38.1325 40.2708ZM11.6052 40.2708H37.0295L37.9911 27.2617C38.3304 23.7831 40.7626 24.0942 41.0737 27.2617V27.2899L42.0352 40.2708H44.7219C44.9481 40.2708 45.1461 40.4122 45.2309 40.6101L51.8203 56.8432C51.9334 57.126 51.792 57.4371 51.5092 57.5502C51.4527 57.5785 51.3678 57.5785 51.3113 57.5785H5.01585C4.70477 57.5785 4.47852 57.324 4.47852 57.0412C4.47852 56.9563 4.5068 56.8998 4.53508 56.8149L11.1245 40.5818C11.181 40.3839 11.4073 40.2708 11.6052 40.2708Z" stroke="#58595B" stroke-width="0.8"/>
</g>
<path id="Vector_3" d="M13.2734 44.9087H14.6309L15.3096 47.9064H12.5664L13.2734 44.9087Z" fill="#FF7800"/>
<path id="Vector_4" d="M17.9971 44.9087H19.3828L20.0616 47.9064H17.3184L17.9971 44.9087Z" fill="#550EC5"/>
<path id="Vector_5" d="M22.7481 44.9087H24.1055L24.8126 47.9064H22.0693L22.7481 44.9087Z" fill="#FF7800"/>
<path id="Vector_6" d="M27.4707 44.9087H28.8565L29.5352 47.9064H26.792L27.4707 44.9087Z" fill="#550EC5"/>
<path id="Vector_7" d="M32.2217 44.9087H33.5792L34.2862 47.9064H31.543L32.2217 44.9087Z" fill="#FF7800"/>
<path id="Vector_8" d="M36.9726 44.9087H38.3301L39.0089 47.9064H36.2656L36.9726 44.9087Z" fill="#550EC5"/>
<path id="Vector_9" d="M41.6963 44.9087H43.0821L43.7608 47.9064H41.0176L41.6963 44.9087Z" fill="#FF7800"/>
<path id="Vector_10" d="M26.3674 37.5175C26.0563 37.5175 25.8301 37.263 25.8301 36.9802C25.8301 36.6691 26.0846 36.4429 26.3674 36.4429H33.579C33.8901 36.4429 34.1163 36.6974 34.1163 36.9802C34.1163 37.2913 33.8618 37.5175 33.579 37.5175H26.3674Z" fill="#58595B" stroke="#58595B" stroke-width="0.8"/>
<path id="Vector_11" d="M25.8762 34.6508C25.5651 34.6508 25.3389 34.3963 25.3389 34.1135C25.3389 33.8024 25.5934 33.5762 25.8762 33.5762H32.2394C32.5504 33.5762 32.7767 33.8307 32.7767 34.1135C32.7767 34.4246 32.5222 34.6508 32.2394 34.6508H25.8762Z" fill="#58595B" stroke="#58595B" stroke-width="0.8"/>
<path id="Vector_12" d="M17.3741 18.0987C17.9114 18.4381 18.7033 18.6644 19.7779 18.6926H19.8062H28.3753H28.4035C29.3368 18.7209 29.9024 18.4947 30.2701 18.0987C30.6943 17.6745 30.9488 16.9958 31.2316 16.2039C31.2882 16.006 31.4578 15.8363 31.6841 15.808C31.9952 15.7797 32.2497 15.9777 32.278 16.2888C32.3345 16.7413 32.7022 17.1938 33.2678 17.5049C33.692 17.7594 34.2011 17.9573 34.7384 18.0705C35.2757 18.1836 35.8696 18.2402 36.407 18.1553C37.3119 18.0422 38.1604 17.6745 38.6411 16.8827C38.6694 16.8544 38.6977 16.8261 38.6977 16.7978C38.8957 16.5716 39.235 16.5433 39.4613 16.7413C39.5744 16.8261 39.6592 16.911 39.7724 16.9958C41.0167 17.9573 42.2328 18.0139 43.3074 17.7028C44.4104 17.3635 45.3154 16.6564 45.8527 16.0343C45.9093 15.9494 45.9941 15.8929 46.0507 15.808C46.1072 15.7515 46.1638 15.6949 46.2204 15.6666C46.4749 15.5252 46.8142 15.6383 46.9556 15.8929C47.5213 16.9675 48.7656 16.8827 49.9817 16.2605C50.6887 15.8929 51.3957 15.3555 51.9613 14.7051C52.5269 14.0829 53.0077 13.4042 53.2339 12.7537C53.5733 11.8204 53.3753 10.9155 52.2724 10.5195C52.0179 10.4347 51.8482 10.1802 51.8765 9.89736C52.1027 8.76613 51.7916 7.60663 51.1977 6.67337C50.8018 6.05119 50.2645 5.54214 49.6706 5.20277C49.105 4.86341 48.4545 4.722 47.7758 4.77856H47.7475C46.9556 4.86341 46.1072 5.28762 45.3436 6.1926C45.2871 6.27744 45.2022 6.334 45.0891 6.36228C44.8063 6.44712 44.4952 6.27744 44.4104 5.99463C43.9579 4.43919 42.7418 3.30797 41.2429 2.65752H41.2147C40.4511 2.34643 39.631 2.14846 38.8108 2.0919C37.9907 2.03534 37.1705 2.12018 36.407 2.31815C35.0778 2.71408 33.9183 3.5625 33.3527 4.91997C33.2961 5.03309 33.2113 5.14621 33.0699 5.23105C32.787 5.37246 32.4759 5.23105 32.3345 4.97653C31.8821 4.04327 31.0902 3.53421 30.2418 3.39281C29.7893 3.30797 29.3368 3.36453 28.9126 3.47765C28.4884 3.61906 28.0924 3.81702 27.8096 4.15639C27.2723 4.722 26.9612 5.54214 27.1592 6.67337C27.1875 6.78649 27.1592 6.92789 27.1026 7.04102C26.9612 7.29554 26.6219 7.38038 26.3673 7.23898C25.3492 6.67337 24.2746 6.30572 23.2282 6.27744C22.3798 6.24916 21.5313 6.39056 20.796 6.78649C20.0607 7.18242 19.382 7.80459 18.873 8.73785C18.2225 9.86908 17.7983 11.4245 17.7135 13.4607C17.7135 13.6021 17.6569 13.7435 17.5155 13.8566C16.9782 14.3091 16.6105 14.9313 16.4408 15.5535C16.2994 16.0343 16.2994 16.5433 16.4408 17.0241C16.6105 17.3917 16.8933 17.8159 17.3741 18.0987ZM19.7497 19.7956C18.477 19.7673 17.4872 19.4845 16.7802 19.032C16.0732 18.5795 15.649 17.9856 15.4227 17.3069C15.2248 16.6564 15.2248 15.9211 15.3944 15.2424C15.5924 14.4788 16.0449 13.7435 16.6388 13.1779C16.7519 11.0569 17.2327 9.41659 17.9397 8.20052C18.5619 7.09758 19.382 6.30572 20.3153 5.82495C21.2485 5.34418 22.2666 5.14621 23.313 5.17449C24.218 5.20277 25.1795 5.4573 26.0562 5.85323C26.0845 4.83512 26.4805 3.98671 27.0744 3.39281C27.4986 2.94032 28.0642 2.62923 28.6581 2.45955C29.252 2.28987 29.8741 2.2333 30.4963 2.34643C31.373 2.48783 32.2214 2.91204 32.8719 3.67562C33.6637 2.48783 34.8515 1.69597 36.1807 1.30004C37.0574 1.04552 38.019 0.960676 38.9522 1.01724C39.8855 1.0738 40.8187 1.30004 41.6954 1.66769H41.7237C43.2226 2.31815 44.5235 3.39281 45.2022 4.8634C46.0224 4.15639 46.8708 3.78874 47.6909 3.7039H47.7192C48.6242 3.61906 49.5009 3.81702 50.2645 4.26951C51.0281 4.69372 51.6785 5.34418 52.1593 6.10775C52.8097 7.15414 53.1774 8.42677 53.036 9.69939C54.5631 10.4347 54.7894 11.7639 54.2803 13.1779C53.9975 13.9698 53.4602 14.7899 52.7814 15.4969C52.131 16.2039 51.3109 16.8261 50.4907 17.2503C48.9918 18.0422 47.4364 18.1836 46.4466 17.0524C45.7961 17.7311 44.778 18.4381 43.6185 18.8058C42.2893 19.2017 40.7622 19.1168 39.2067 17.9856C38.528 18.7492 37.5665 19.1734 36.5201 19.2865C35.8413 19.3714 35.1626 19.3148 34.5122 19.1734C33.8617 19.032 33.2395 18.7775 32.7022 18.4664C32.3345 18.2401 32.0235 17.9856 31.7972 17.7028C31.5993 18.1553 31.3447 18.523 31.0336 18.8623C30.4397 19.4845 29.6196 19.8239 28.347 19.7956H19.8062H19.7497Z" fill="#58595B" stroke="#58595B" stroke-width="0.8"/>
<path id="Vector_13" d="M20.966 54.6938C20.6549 54.6938 20.4287 54.4393 20.4287 54.1565C20.4287 53.8454 20.6832 53.6191 20.966 53.6191H49.6709C49.982 53.6191 50.2082 53.8737 50.2082 54.1565C50.2082 54.4676 49.9537 54.6938 49.6709 54.6938H20.966Z" fill="#58595B"/>
<path id="Vector_14" d="M55.4968 61.0004H1.53733C1.22624 61.0004 1 60.7458 1 60.463V57.0976C1 56.7865 1.25452 56.5603 1.53733 56.5603H55.4968H55.5251C55.8362 56.5603 56.0624 56.8148 56.0624 57.0976V60.463V60.4913C56.0341 60.7458 55.7796 61.0004 55.4968 61.0004ZM2.04639 59.8974H54.9312V57.6067H2.04639V59.8974Z" fill="#58595B" stroke="#58595B" stroke-width="0.8"/>
</g>
</svg>
