<svg xmlns="http://www.w3.org/2000/svg" width="29" height="26" viewBox="0 0 29 26" fill="none">
<path d="M25.2863 9.29631V2.58361C25.2863 1.72501 24.5839 1.02252 23.7253 1.02252H22.1642C21.3056 1.02252 20.6031 1.72501 20.6031 2.58361V5.08136L15.4046 0.398079C14.8114 -0.132693 13.906 -0.132693 13.3128 0.398079L0.262033 12.1531C-0.268739 12.6214 0.0590903 13.5113 0.777193 13.5113H3.43105V24.4389C3.43105 25.2975 4.13354 26 4.99214 26H9.67542C10.534 26 11.2365 25.2975 11.2365 24.4389V16.6334H17.4809V24.4389C17.4809 25.2975 18.1834 26 19.042 26H23.7253C24.5839 26 25.2863 25.2975 25.2863 24.4389V13.5113H27.9402C28.6583 13.5113 29.0017 12.6214 28.4554 12.1531L25.2863 9.29631ZM11.2365 10.3891C11.2365 8.67187 12.6415 7.26689 14.3587 7.26689C16.0759 7.26689 17.4809 8.67187 17.4809 10.3891H11.2365Z" fill="#0D0C0D"/>
</svg>