<svg width="24" height="24" viewBox="0 0 24 24" fill="none" xmlns="http://www.w3.org/2000/svg">
<path d="M6.39999 3.1315C6.39999 4.85627 4.975 6.263 3.2 6.263C1.4375 6.263 0 4.85627 0 3.1315C0 1.40672 1.4375 0 3.2 0C4.975 0 6.39999 1.40672 6.39999 3.1315Z" fill="white"/>
<path d="M5.63748 24H0.774979C0.649979 24 0.537476 23.8899 0.537476 23.7676V8.57495C0.537476 8.45262 0.649979 8.34253 0.774979 8.34253H5.63748C5.76248 8.34253 5.87498 8.45262 5.87498 8.57495V23.7676C5.87498 23.8899 5.76248 24 5.63748 24Z" fill="white"/>
<path d="M24 14.0917V22.9602C24 23.5229 23.5125 24 22.925 24H19.725C19.15 24 18.6625 23.5229 18.6625 22.9602V15.6575C18.6625 14.2141 17.475 13.0398 16 13.0398C14.525 13.0398 13.3375 14.2141 13.3375 15.6575V22.9602C13.3375 23.5229 12.85 24 12.2625 24H9.075C8.4875 24 8 23.5229 8 22.9602V9.39449C8 8.81957 8.4875 8.34251 9.075 8.34251H12.2625C12.85 8.34251 13.3375 8.81957 13.3375 9.39449V10.055C14.4 8.70948 16.1625 7.82874 18.1375 7.82874C21.075 7.82874 24 9.90825 24 14.0917Z" fill="white"/>
</svg>
