<svg width="320" height="132" viewBox="0 0 320 132" fill="none" xmlns="http://www.w3.org/2000/svg">
<mask id="mask0_967_1444" style="mask-type:luminance" maskUnits="userSpaceOnUse" x="0" y="0" width="320" height="132">
<path d="M320 0H0V132H320V0Z" fill="white"/>
</mask>
<g mask="url(#mask0_967_1444)">
<path fill-rule="evenodd" clip-rule="evenodd" d="M96.8751 8.02404C92.8077 8.57309 89.8266 10.2444 87.7914 12.7832C85.1134 16.1236 85.3801 18.57 85.3801 23.1543V73.7099C85.3801 78.3841 85.5457 80.7649 88.2013 83.7409C90.2476 86.0343 93.6666 87.9218 97.8183 88.126L119.686 88.1551C121.185 88.0651 132.994 79.3243 148.397 86.0269C149.7 86.593 151.634 88.0676 153.034 88.1526C156.193 88.3422 171.208 88.1478 175.141 88.1478C184.875 88.1478 194.614 88.1478 204.348 88.1478C209.651 88.1478 212.435 88.058 215.914 85.6309C218.569 83.7772 220.464 81.1415 220.815 77.2956C221.152 73.6103 220.857 57.0954 220.857 52.0422C220.857 43.6171 220.857 35.1895 220.857 26.7643C220.857 19.7798 222.255 12.1831 212.481 8.67994C208.857 7.3803 203.337 7.8782 198.951 7.8782H111.323C107.351 7.8782 100.401 7.54549 96.8751 8.02155V8.02404Z" fill="#6B18F0"/>
<path fill-rule="evenodd" clip-rule="evenodd" d="M227.133 23.066C223.73 24.1155 224.362 26.1488 224.362 29.5257V82.6322C224.359 85.9557 224.777 87.768 228.887 87.7729C235.68 87.7825 242.473 87.7582 249.266 87.7704C254.555 87.78 251.627 87.6392 257.058 85.5378C265.343 82.3334 274.34 82.9189 281.776 86.5629C283.502 87.4085 283.331 87.7752 285.582 87.7777L301.054 87.768C304.856 87.768 306.765 88.0085 308.09 85.1296C308.699 83.8056 308.21 78.5655 307.846 76.9668C306.967 73.1041 303.363 68.187 301.022 65.2377C296.138 59.0841 290.866 56.9803 283.19 54.1208C278.303 52.2988 282.916 47.474 272.504 36.8237C269.75 34.0079 265.323 30.8741 261.116 28.8236C256.31 26.4842 252.074 25.3034 246.02 24.2832C242.776 23.7364 229.797 22.2448 227.133 23.066Z" fill="#FF7805"/>
<path fill-rule="evenodd" clip-rule="evenodd" d="M162.688 106.157L241.89 106.296C242.132 100.562 244.055 96.1067 247.897 91.8577C248.866 90.7887 249.063 91.0196 249.447 89.9895L155.145 90.038C155.412 90.9564 155.473 90.6139 156.535 91.7217C160.283 95.6402 162.752 100.866 162.686 106.157H162.688Z" fill="#FF7805"/>
<path fill-rule="evenodd" clip-rule="evenodd" d="M133.233 88.5561C126.97 89.6008 123.335 91.6609 120.073 95.0864C117.134 98.1717 114.697 103.49 115.711 108.956C117.446 118.292 126.987 125.823 139.778 124.213C149.818 122.949 158.946 114.201 157.031 103.587C155.464 94.9017 145.294 86.5471 133.236 88.5561H133.233Z" fill="#6B18F0"/>
<path fill-rule="evenodd" clip-rule="evenodd" d="M265.677 88.4859C254.486 89.9314 246.064 97.9557 247.54 108.742C248.8 117.947 258.808 125.661 270.932 124.302C281.409 123.131 290.441 114.774 288.928 104.17C287.639 95.1254 277.712 86.9286 265.674 88.4834L265.677 88.4859Z" fill="#6B18F0"/>
<path fill-rule="evenodd" clip-rule="evenodd" d="M239.113 28.5617C236.713 28.7851 234.596 29.3924 233.038 30.7797C231.177 32.4389 231.283 33.9744 231.228 36.5349C231.155 39.8413 230.621 48.4973 231.913 50.9048C234.052 54.8865 240 54.0143 245.828 54.0143C251.635 54.0143 257.446 54.0071 263.255 54.0168C266.449 54.0216 268.153 53.5576 269.647 52.0514C274.468 47.1853 266.735 40.8714 262.808 37.9901C258.001 34.4651 247.86 27.7453 239.11 28.5592L239.113 28.5617Z" fill="#6B18F0"/>
<path fill-rule="evenodd" clip-rule="evenodd" d="M117.581 90.0395C109.157 89.9545 100.059 89.8111 91.6771 90.0346C88.0137 90.1318 85.2066 92.2575 84.9175 95.168C83.6066 108.386 89.8075 106.355 103.961 106.355C105.025 106.355 106.089 106.353 107.153 106.355C111.622 106.37 109.429 106.513 110.808 101.088C111.563 98.1197 112.638 95.7972 114.597 93.3265C115.9 91.6843 115.804 92.0413 116.857 91.0429C117.446 90.4842 117.317 90.7392 117.578 90.0371L117.581 90.0395Z" fill="#FF7805"/>
<path fill-rule="evenodd" clip-rule="evenodd" d="M8.97229 70.239C11.8439 70.5087 78.2293 70.2826 78.3838 70.2585C79.4814 70.0933 80.5031 69.1505 80.5283 68.1764C80.6042 65.4434 76.9213 65.9584 74.2573 65.9341L27.6227 65.9244C21.7924 65.9244 14.8223 65.628 9.12945 66.0021L8.97229 70.2365V70.239Z" fill="#FF7805"/>
<path fill-rule="evenodd" clip-rule="evenodd" d="M8.97229 28.6563C14.2637 28.9478 20.5432 28.6853 25.8824 28.6853L68.1013 28.6878C70.5042 28.6975 74.0917 29.2077 74.1899 26.6205C74.2882 23.9919 71.3857 24.3027 68.5926 24.3076H26.1293C21.0401 24.3076 13.8173 23.9432 8.98635 24.3611L8.97229 28.6538V28.6563Z" fill="#FF7805"/>
<path fill-rule="evenodd" clip-rule="evenodd" d="M135.071 97.837C121.237 99.7902 125.257 116.49 137.737 114.986C142.604 114.401 147.107 110.404 146.313 105.208C145.653 100.883 140.85 97.0207 135.071 97.8345V97.837Z" fill="#FF7805"/>
<path fill-rule="evenodd" clip-rule="evenodd" d="M266.708 97.8803C252.815 100.186 257.599 116.781 269.725 114.969C275.001 114.179 278.861 110.353 278.066 104.93C277.452 100.735 272.266 96.9572 266.708 97.8803Z" fill="#FF7805"/>
<path fill-rule="evenodd" clip-rule="evenodd" d="M294.542 106.346C298.778 106.443 303.584 106.876 306.175 104.908C308.861 102.867 308.763 98.7009 308.37 95.1807C307.988 91.7892 304.839 90.0375 300.815 90.0352C296.207 90.0327 291.58 90.0134 286.972 90.0425C287.468 91.3592 289.529 91.8377 292.219 96.8739C293.88 99.9835 293.877 102.639 294.542 106.346Z" fill="#FF7805"/>
<path fill-rule="evenodd" clip-rule="evenodd" d="M8.97517 13.3887C11.493 13.7482 48.6649 13.481 54.6048 13.4834C57.1648 13.4834 59.7585 13.8309 60.5164 11.9407C60.8955 10.991 60.3481 10.0774 59.7137 9.63769C58.8913 9.06929 57.5381 9.1373 56.3226 9.1373L8.97229 9.18581L8.97517 13.3912V13.3887Z" fill="#6B18F0"/>
<path fill-rule="evenodd" clip-rule="evenodd" d="M8.97517 54.948C11.493 55.3076 48.6649 55.0404 54.6048 55.0427C57.1648 55.0427 59.7585 55.3902 60.5164 53.5001C60.8955 52.5502 60.3481 51.6367 59.7137 51.197C58.8913 50.6286 57.5381 50.6966 56.3226 50.6966L8.97229 50.7451L8.97517 54.9505V54.948Z" fill="#6B18F0"/>
<path fill-rule="evenodd" clip-rule="evenodd" d="M185.425 30.9795C196.444 30.9795 205.372 38.7074 205.372 48.2428C205.372 57.7782 196.44 65.5061 185.425 65.5061C174.407 65.5061 165.478 57.7757 165.478 48.2428C165.478 38.7074 174.407 30.9795 185.425 30.9795Z" fill="#FF7805"/>
<path d="M106.236 42.3084H106.775L107.575 45.0925L106.885 45.2772C106.447 44.4997 105.86 43.8852 105.133 43.4381C104.532 43.0639 103.87 42.8769 103.143 42.8769C102.705 42.8769 102.309 42.9449 101.958 43.0809C101.61 43.217 101.349 43.392 101.175 43.6082C100.998 43.822 100.911 44.043 100.911 44.2666C100.911 44.4706 100.979 44.6649 101.113 44.8544C101.248 45.044 101.456 45.2116 101.731 45.3548C102.003 45.4982 102.455 45.6513 103.081 45.8092L105.038 46.2951C105.279 46.3558 105.624 46.4724 106.079 46.6449C106.537 46.8175 106.89 46.9996 107.143 47.1915C107.398 47.3835 107.598 47.619 107.741 47.8961C107.887 48.1754 107.957 48.4743 107.957 48.7973C107.957 49.514 107.595 50.1384 106.871 50.6753C106.146 51.2122 105.206 51.4794 104.055 51.4794C103.463 51.4794 102.932 51.4041 102.461 51.2559C101.995 51.1077 101.487 50.8453 100.945 50.464L100.6 51.3312H100.075L99.3813 48.0831L100.072 47.9641C100.327 48.5616 100.664 49.0695 101.088 49.4849C101.509 49.9028 101.978 50.2161 102.486 50.43C103 50.6413 103.519 50.7482 104.049 50.7482C104.771 50.7482 105.4 50.5611 105.939 50.1869C106.388 49.8736 106.612 49.5042 106.612 49.0767C106.612 48.6856 106.45 48.3649 106.124 48.1147C105.796 47.8644 105.206 47.6337 104.358 47.4175L102.489 46.9535C101.439 46.6911 100.698 46.3558 100.271 45.9452C99.8416 45.5372 99.6284 45.0658 99.6284 44.5386C99.6284 44.1256 99.7686 43.7442 100.047 43.392C100.324 43.0396 100.754 42.7457 101.332 42.5101C101.91 42.2744 102.542 42.1554 103.233 42.1554C103.811 42.1554 104.364 42.2404 104.892 42.4154C105.265 42.5367 105.61 42.7092 105.922 42.9353L106.239 42.3012L106.236 42.3084ZM109.156 42.9449V42.3886C109.644 42.3327 110.02 42.2672 110.293 42.1919C110.562 42.1165 110.846 41.9998 111.143 41.8445H111.73V46.1251C112.291 45.7194 112.825 45.4205 113.327 45.231C113.829 45.044 114.31 44.9491 114.767 44.9491C115.435 44.9491 115.985 45.1216 116.418 45.4667C116.847 45.8117 117.06 46.2294 117.06 46.7251V49.8954C117.06 50.2113 117.089 50.4178 117.148 50.515C117.204 50.6122 117.302 50.685 117.437 50.7287C117.571 50.7748 117.875 50.7967 118.349 50.7967V51.3409H114.472V50.7967H114.756C115.121 50.7967 115.362 50.7725 115.477 50.7215C115.592 50.6728 115.677 50.5878 115.727 50.4736C115.78 50.3595 115.806 50.1213 115.806 49.7618V47.5607C115.806 47.0725 115.786 46.7566 115.747 46.6109C115.671 46.3606 115.517 46.1591 115.284 46.0109C115.048 45.8602 114.753 45.7849 114.391 45.7849C113.981 45.7849 113.557 45.8699 113.111 46.0449C112.667 46.2197 112.207 46.4821 111.73 46.832V50.0679C111.73 50.3108 111.755 50.4736 111.803 50.5562C111.853 50.6388 111.935 50.6995 112.05 50.7385C112.165 50.7773 112.395 50.7992 112.74 50.7992H113.046V51.3434H109.156V50.7992H109.389C109.756 50.7992 110.023 50.7603 110.189 50.6825C110.279 50.6462 110.346 50.5708 110.382 50.4566C110.424 50.3448 110.444 50.0339 110.444 49.5262V42.9498H109.159L109.156 42.9449ZM121.117 42.0168C121.358 42.0168 121.557 42.0898 121.729 42.2332C121.897 42.3789 121.981 42.5562 121.981 42.7603C121.981 42.9693 121.897 43.1466 121.729 43.2923C121.557 43.4405 121.355 43.5135 121.117 43.5135C120.878 43.5135 120.676 43.4405 120.505 43.2923C120.336 43.1466 120.252 42.9668 120.252 42.7603C120.252 42.5539 120.336 42.3789 120.505 42.2332C120.676 42.0898 120.881 42.0168 121.117 42.0168ZM119.225 46.0351V45.491C119.637 45.4497 119.983 45.3888 120.263 45.3112C120.544 45.2335 120.867 45.112 121.223 44.9468H121.768V50.1311C121.768 50.3133 121.799 50.447 121.858 50.5368C121.92 50.6243 122.004 50.6923 122.111 50.7312C122.217 50.7725 122.414 50.7918 122.7 50.7918H123.054V51.3361H119.225V50.7918H119.528C119.862 50.7918 120.084 50.7652 120.199 50.7142C120.311 50.6607 120.393 50.5878 120.437 50.493C120.485 50.3983 120.508 50.1748 120.508 49.8226V46.0302H119.222L119.225 46.0351ZM123.817 45.095H125.103V44.1257C125.103 43.4551 125.358 42.9109 125.869 42.4834C126.38 42.0582 127.045 41.8468 127.865 41.8468C128.415 41.8468 128.839 41.9465 129.148 42.1457C129.454 42.3449 129.608 42.5611 129.608 42.7943C129.608 42.9498 129.547 43.0786 129.426 43.1855C129.302 43.2923 129.151 43.3433 128.963 43.3433C128.8 43.3433 128.657 43.3166 128.536 43.2656C128.415 43.2121 128.23 43.0834 127.983 42.8744C127.716 42.6559 127.464 42.5466 127.225 42.5466C127.059 42.5466 126.911 42.5902 126.779 42.6801C126.647 42.7676 126.543 42.8988 126.473 43.0688C126.4 43.2389 126.363 43.5013 126.363 43.856V45.0925H127.772V45.7557H126.363V49.9464C126.363 50.238 126.389 50.4323 126.436 50.5295C126.487 50.6292 126.562 50.6972 126.661 50.736C126.759 50.7748 126.992 50.7967 127.357 50.7967H127.663V51.3409H123.817V50.7967H124.05C124.449 50.7967 124.699 50.7748 124.808 50.7335C124.915 50.6898 124.991 50.6193 125.041 50.5222C125.089 50.425 125.111 50.204 125.106 49.8566V45.7605H123.82V45.0973L123.817 45.095ZM130.74 42.8939H131.276V45.095H133.496V45.7435H131.276V49.6404C131.276 49.9708 131.309 50.2088 131.377 50.3521C131.444 50.493 131.559 50.6097 131.719 50.702C131.882 50.7919 132.064 50.8357 132.264 50.8357C132.735 50.8357 133.26 50.651 133.833 50.2793V50.9085C133.179 51.2924 132.516 51.4842 131.846 51.4842C131.464 51.4842 131.124 51.4114 130.815 51.2656C130.507 51.1174 130.296 50.9449 130.184 50.7482C130.071 50.549 130.015 50.204 130.015 49.7132V45.7412H128.73V45.1945C129.142 45.112 129.479 44.9856 129.732 44.8131C129.987 44.6406 130.192 44.4147 130.349 44.1402C130.507 43.8632 130.636 43.4478 130.734 42.8914L130.74 42.8939ZM134.476 42.9328V42.3886C135.11 42.3449 135.767 42.1627 136.447 41.8445H137.019V48.3091L139.778 46.4214C140.217 46.1152 140.438 45.9112 140.438 45.8117C140.438 45.7509 140.393 45.7024 140.298 45.6683C140.237 45.6464 140.09 45.6343 139.857 45.6343H139.458V45.0901H143.248V45.6343C142.825 45.6343 142.484 45.6707 142.232 45.746C141.976 45.8214 141.681 45.9695 141.348 46.1906L139.187 47.6312L141.741 50.0388C141.985 50.272 142.184 50.4371 142.339 50.532C142.493 50.6267 142.647 50.6923 142.804 50.7287C142.958 50.7652 143.201 50.787 143.529 50.7895V51.3336H139.556V50.7895H139.863C140.169 50.7895 140.359 50.77 140.442 50.7287C140.52 50.6873 140.562 50.6315 140.562 50.5611C140.562 50.4906 140.489 50.391 140.337 50.2575C140.311 50.2356 140.284 50.2088 140.255 50.1796L138.254 48.2119L137.028 49.016V49.8589C137.028 50.1748 137.056 50.3838 137.109 50.481C137.163 50.5805 137.249 50.6558 137.368 50.7093C137.483 50.7603 137.707 50.787 138.039 50.787H138.313V51.3312H134.484V50.787C134.916 50.7822 135.18 50.7675 135.281 50.7433C135.456 50.6947 135.579 50.6097 135.657 50.4906C135.734 50.3691 135.773 50.1359 135.773 49.7934V42.9254H134.487L134.476 42.9328ZM149.489 47.5997L149.474 46.8926C149.474 46.4141 149.32 46.0716 149.008 45.865C148.7 45.6585 148.259 45.559 147.694 45.559C147.416 45.559 147.172 45.5882 146.962 45.644C146.752 45.7047 146.579 45.7825 146.457 45.8845C146.33 45.9865 146.236 46.1007 146.173 46.2294C146.151 46.2781 146.088 46.4603 145.993 46.7785C145.878 47.1648 145.646 47.3592 145.297 47.3592C145.097 47.3592 144.938 47.3008 144.815 47.1892C144.691 47.0748 144.632 46.9195 144.632 46.7275C144.632 46.4433 144.755 46.1639 144.999 45.8917C145.241 45.6173 145.614 45.3913 146.117 45.214C146.617 45.0343 147.209 44.9468 147.894 44.9468C148.53 44.9468 149.079 45.0318 149.53 45.2018C149.985 45.3718 150.319 45.6173 150.532 45.9355C150.685 46.1542 150.757 46.5549 150.757 47.1332V49.6161C150.757 49.9683 150.771 50.1966 150.796 50.306C150.851 50.4906 150.949 50.6292 151.086 50.7215C151.22 50.8137 151.399 50.8599 151.619 50.8599C151.85 50.8599 152.124 50.8162 152.444 50.7263V51.2899C152.029 51.3944 151.658 51.4454 151.326 51.4454C150.972 51.4454 150.673 51.4041 150.432 51.3166C150.19 51.2316 149.99 51.1052 149.836 50.9377C149.679 50.7725 149.58 50.5732 149.536 50.3448C148.938 50.7482 148.397 51.0349 147.91 51.1976C147.428 51.3604 146.937 51.4429 146.446 51.4429C145.758 51.4429 145.199 51.2826 144.769 50.9595C144.34 50.6363 144.127 50.2598 144.127 49.8226C144.127 49.5602 144.205 49.3124 144.366 49.0767C144.523 48.8411 144.764 48.6296 145.087 48.45C145.412 48.2701 145.921 48.1123 146.608 47.9737C147.299 47.8377 148.259 47.7139 149.489 47.5997ZM149.482 48.1559C148.317 48.3018 147.599 48.4038 147.325 48.4596C146.774 48.569 146.383 48.688 146.151 48.8143C145.912 48.9455 145.744 49.084 145.646 49.2322C145.546 49.3804 145.494 49.5382 145.494 49.7084C145.494 49.8759 145.55 50.0388 145.661 50.1943C145.775 50.3521 145.934 50.476 146.139 50.5683C146.347 50.6583 146.564 50.702 146.796 50.702C147.121 50.702 147.489 50.6363 147.902 50.5003C148.312 50.3668 148.84 50.1068 149.482 49.7206L149.486 48.1559H149.482ZM152.969 46.0351V45.491C153.332 45.4642 153.657 45.4132 153.94 45.333C154.221 45.2528 154.546 45.1241 154.908 44.9468H155.467V46.1662C155.821 45.7922 156.234 45.4933 156.7 45.2747C157.166 45.0561 157.589 44.9443 157.964 44.9443C158.331 44.9443 158.622 45.0196 158.836 45.1726C159.049 45.3233 159.159 45.5055 159.159 45.7217C159.159 45.8797 159.088 46.0157 158.946 46.1322C158.805 46.2514 158.634 46.3121 158.434 46.3121C158.341 46.3121 158.267 46.2999 158.201 46.2781C158.135 46.2562 158.042 46.2101 157.915 46.1347C157.644 45.9769 157.413 45.9015 157.225 45.9015C156.978 45.9015 156.702 45.9914 156.402 46.1736C156.021 46.4044 155.726 46.6328 155.513 46.8586V49.8396C155.513 50.0971 155.527 50.272 155.56 50.3643C155.594 50.4566 155.645 50.5368 155.72 50.6023C155.792 50.668 155.886 50.7165 155.992 50.7482C156.102 50.7773 156.292 50.7918 156.568 50.7918H156.812V51.3361H152.952V50.7918H153.276C153.579 50.7918 153.777 50.7675 153.875 50.7215C154.002 50.6583 154.101 50.566 154.162 50.4541C154.226 50.34 154.258 50.1335 154.258 49.8371V46.0327H152.973L152.969 46.0351ZM161.684 42.8939H162.221V45.095H164.442V45.7435H162.221V49.6404C162.221 49.9708 162.255 50.2088 162.323 50.3521C162.389 50.493 162.504 50.6097 162.665 50.702C162.828 50.7919 163.011 50.8357 163.209 50.8357C163.681 50.8357 164.206 50.651 164.779 50.2793V50.9085C164.125 51.2924 163.463 51.4842 162.79 51.4842C162.409 51.4842 162.071 51.4114 161.761 51.2656C161.452 51.1174 161.242 50.9449 161.129 50.7482C161.017 50.549 160.961 50.204 160.961 49.7132V45.7412H159.676V45.1945C160.087 45.112 160.424 44.9856 160.677 44.8131C160.932 44.6406 161.137 44.4147 161.295 44.1402C161.452 43.8632 161.581 43.4478 161.679 42.8914L161.684 42.8939ZM167.417 49.8274C167.681 49.8274 167.905 49.9076 168.088 50.0631C168.271 50.221 168.361 50.4105 168.361 50.6363C168.361 50.8599 168.267 51.0519 168.083 51.2097C167.9 51.3676 167.673 51.4454 167.417 51.4454C167.161 51.4454 166.94 51.3652 166.755 51.2097C166.569 51.0519 166.477 50.8599 166.477 50.6363C166.477 50.4105 166.569 50.221 166.75 50.0631C166.931 49.9051 167.156 49.8274 167.414 49.8274H167.417ZM178.915 42.3109H179.454L180.4 45.3258L179.709 45.4933C179.333 44.8009 179.05 44.3346 178.854 44.0989C178.534 43.7175 178.134 43.4138 177.658 43.1903C177.181 42.9668 176.656 42.8551 176.08 42.8551C175.406 42.8551 174.783 43.0129 174.217 43.324C173.65 43.6348 173.189 44.094 172.838 44.6941C172.484 45.2966 172.31 45.9769 172.31 46.73C172.31 47.5025 172.49 48.1949 172.847 48.7998C173.203 49.4071 173.685 49.8736 174.295 50.2016C174.905 50.5295 175.56 50.6923 176.265 50.6923C176.928 50.6923 177.608 50.5295 178.3 50.2016C178.995 49.8711 179.597 49.412 180.106 48.8217L180.707 49.1764C180.397 49.5747 180.063 49.9099 179.704 50.1869C179.137 50.6315 178.544 50.957 177.933 51.1709C177.321 51.3797 176.647 51.4867 175.914 51.4867C174.291 51.4867 172.976 50.9669 171.963 49.9319C171.126 49.0695 170.704 48.0442 170.704 46.8563C170.704 45.9841 170.938 45.1896 171.397 44.4827C171.865 43.7733 172.503 43.2121 173.318 42.7943C174.132 42.3765 175.013 42.1675 175.956 42.1675C176.459 42.1675 176.928 42.2282 177.357 42.3474C177.79 42.4664 178.227 42.6582 178.671 42.9206L178.915 42.3134V42.3109ZM185.537 44.9491C186.267 44.9491 186.899 45.0803 187.435 45.3428C187.969 45.6052 188.389 45.9889 188.695 46.4919C189.004 46.9948 189.158 47.568 189.158 48.2143C189.158 48.8605 189.002 49.4339 188.687 49.9368C188.37 50.4396 187.94 50.8258 187.398 51.0882C186.854 51.3531 186.206 51.4867 185.451 51.4867C184.248 51.4867 183.345 51.1612 182.741 50.5125C182.138 49.8639 181.838 49.101 181.838 48.2216C181.838 47.5802 181.992 47.0118 182.306 46.5161C182.617 46.0181 183.056 45.6343 183.62 45.3598C184.184 45.0876 184.822 44.9516 185.537 44.9516V44.9491ZM185.481 45.5735C184.917 45.5735 184.439 45.7679 184.05 46.1542C183.555 46.6351 183.305 47.3373 183.305 48.2581C183.305 49.1447 183.516 49.8177 183.936 50.2841C184.319 50.6972 184.836 50.9037 185.489 50.9037C185.911 50.9037 186.287 50.8065 186.616 50.6145C186.944 50.4201 187.21 50.1116 187.415 49.6889C187.617 49.2639 187.718 48.7658 187.718 48.1949C187.718 47.6337 187.608 47.1332 187.393 46.6911C187.224 46.3388 186.971 46.0642 186.633 45.8699C186.292 45.6732 185.911 45.576 185.484 45.576L185.481 45.5735ZM190.323 46.0376V45.4933C190.699 45.4618 191.026 45.4083 191.305 45.333C191.583 45.2577 191.906 45.129 192.266 44.9516H192.819V46.0279C193.387 45.644 193.829 45.384 194.147 45.2528C194.635 45.0513 195.101 44.9516 195.544 44.9516C195.847 44.9516 196.149 45.0001 196.437 45.095C196.73 45.1921 196.96 45.3087 197.136 45.4497C197.316 45.5905 197.465 45.7825 197.588 46.0254C198.11 45.627 198.596 45.35 199.042 45.1896C199.485 45.0293 199.937 44.9491 200.398 44.9491C200.837 44.9491 201.223 45.0293 201.558 45.1848C201.894 45.3428 202.136 45.5395 202.29 45.7752C202.442 46.0132 202.517 46.3583 202.517 46.815V49.8129C202.517 50.1263 202.525 50.3108 202.54 50.3618C202.566 50.4445 202.618 50.5198 202.7 50.5927C202.781 50.668 202.878 50.719 202.981 50.7505C203.084 50.7797 203.279 50.7943 203.562 50.7943H203.801V51.3385H200.048V50.7943C200.476 50.7895 200.754 50.7627 200.881 50.7117C201.008 50.6632 201.103 50.583 201.164 50.4712C201.23 50.3595 201.26 50.1408 201.26 49.8129V46.9631C201.26 46.6036 201.221 46.3534 201.148 46.2149C201.074 46.0789 200.937 45.9622 200.747 45.8699C200.556 45.7775 200.317 45.7315 200.031 45.7315C199.677 45.7315 199.306 45.814 198.916 45.9769C198.395 46.2004 197.986 46.4529 197.687 46.7323V49.8152C197.687 50.1116 197.7 50.306 197.734 50.3983C197.768 50.4906 197.82 50.5683 197.897 50.6315C197.976 50.6923 198.066 50.736 198.166 50.7603C198.268 50.7845 198.517 50.7967 198.909 50.7967V51.3409H195.25V50.7967H195.458C195.746 50.7967 195.952 50.7652 196.073 50.7068C196.193 50.6462 196.286 50.5538 196.356 50.4275C196.403 50.3303 196.428 50.1238 196.428 49.8152V47.0628C196.428 46.6595 196.393 46.3849 196.32 46.2441C196.249 46.1032 196.108 45.9817 195.907 45.882C195.702 45.7825 195.463 45.7339 195.185 45.7339C194.86 45.7339 194.533 45.8019 194.208 45.9404C193.717 46.1421 193.268 46.4068 192.862 46.7348V50.0558C192.862 50.255 192.892 50.3983 192.956 50.4906C193.017 50.583 193.116 50.6583 193.255 50.7142C193.388 50.77 193.576 50.7992 193.81 50.7992H194.088V51.3434H190.318V50.7992H190.519C190.865 50.7992 191.092 50.7748 191.202 50.7287C191.359 50.6655 191.475 50.5611 191.547 50.4201C191.586 50.3425 191.607 50.1408 191.607 49.8201V46.0424H190.321L190.323 46.0376Z" fill="#FEFEFE"/>
<path fill-rule="evenodd" clip-rule="evenodd" d="M121.057 44.597C121.091 44.5702 121.425 44.0771 121.486 43.9921L121.916 43.3774C122.157 43.0155 122.587 42.4688 122.741 42.1166C122.856 41.8566 122.941 41.6064 122.89 41.293C122.845 41.0185 122.719 40.7683 122.567 40.5861C121.792 39.6604 120.26 39.7139 119.549 40.5811C119.173 41.0403 119.106 41.5384 119.367 42.1189C119.474 42.3546 119.617 42.549 119.763 42.7555C119.912 42.9644 120.049 43.1637 120.192 43.3701L120.945 44.4463C120.973 44.4902 121.023 44.5702 121.057 44.597Z" fill="#FF7805"/>
<path fill-rule="evenodd" clip-rule="evenodd" d="M120.919 40.771C120.481 40.8342 120.111 41.1717 120.195 41.6261C120.262 41.993 120.664 42.3137 121.177 42.2432C121.604 42.1848 121.972 41.8423 121.899 41.3977C121.84 41.0334 121.427 40.6957 120.922 40.7685L120.919 40.771Z" fill="#6B18F0"/>
</g>
</svg>
