<svg width="66" height="60" viewBox="0 0 66 60" fill="none" xmlns="http://www.w3.org/2000/svg">
<ellipse cx="22.7686" cy="9.73148" rx="2.35714" ry="3.38102" transform="rotate(-11.62 22.7686 9.73148)" fill="#FF7800"/>
<ellipse cx="8.98918" cy="23.7866" rx="2.35714" ry="3.38102" transform="rotate(-30 8.98918 23.7866)" fill="#550EC5"/>
<ellipse cx="56.7312" cy="24.1066" rx="2.35714" ry="3.38102" transform="rotate(30 56.7312 24.1066)" fill="#FF7800"/>
<ellipse cx="42.7657" cy="9.65221" rx="2.355" ry="3.38" transform="rotate(11.6181 42.7657 9.65221)" fill="#550EC5"/>
<path d="M13.9137 26.4331L13.9136 26.4332C13.7001 27.7664 13.0345 28.8674 11.9882 29.4715C10.9419 30.0756 9.65562 30.1012 8.39416 29.6197L8.39406 29.6197C6.96183 29.0728 5.71869 27.954 4.8749 26.4925L5.30792 26.2425L4.8749 26.4925C4.06116 25.0829 3.74361 23.5171 3.90104 22.1345C4.05809 20.7553 4.69829 19.5087 5.85146 18.8427L5.85473 18.8408C6.42367 18.518 7.06799 18.3516 7.72211 18.3588C7.72221 18.3588 7.72231 18.3588 7.72241 18.3588L7.71694 18.8587C8.24774 18.8642 8.77307 18.9667 9.26705 19.161L13.9137 26.4331ZM13.9137 26.4331C14.1556 24.9193 13.8084 23.2828 12.9646 21.8213C12.1212 20.3605 10.8789 19.2423 9.44766 18.6948L13.9137 26.4331ZM24.7965 19.2272L24.7968 19.2271C29.0555 18.3013 31.7586 13.4311 30.6296 8.23731L30.6295 8.23727C30.1024 5.81134 28.8235 3.69665 27.0441 2.27401C25.1408 0.752382 22.9122 0.192818 20.761 0.660644L20.761 0.660655C16.5024 1.58633 13.7993 6.45652 14.9282 11.6504L14.9282 11.6504C15.4555 14.0764 16.7344 16.1911 18.5136 17.6138C19.9828 18.7882 21.6438 19.3878 23.309 19.3877L24.7965 19.2272ZM24.7965 19.2272C24.3079 19.3337 23.8092 19.3875 23.3091 19.3877L24.7965 19.2272ZM21.4752 3.94737L21.4761 3.94719C21.7229 3.89396 21.9747 3.86734 22.2272 3.86777M21.4752 3.94737L20.614 14.9874C21.6685 15.8306 22.9017 16.1977 24.0824 15.9411L24.0824 15.9411C25.3836 15.6582 26.3732 14.6662 26.943 13.4003C27.5141 12.1315 27.6887 10.5433 27.3429 8.95258C26.9845 7.30334 26.1413 5.85912 24.9438 4.90187C24.1123 4.23708 23.1712 3.86791 22.2272 3.86777M21.4752 3.94737C20.1741 4.23024 19.1845 5.22234 18.6148 6.48826C18.0436 7.75724 17.8692 9.3456 18.215 10.9367M21.4752 3.94737L18.215 10.9367M22.2272 3.86777C22.2271 3.86777 22.2269 3.86777 22.2267 3.86777V4.36777L22.2276 3.86778C22.2275 3.86778 22.2274 3.86777 22.2272 3.86777ZM48.1941 26.9648C48.1941 26.9648 48.1941 26.9649 48.1941 26.9649L47.7004 27.0438C48.107 29.5838 49.4594 31.6342 51.509 32.8173C52.66 33.4821 53.9666 33.8298 55.2958 33.8249M48.1941 26.9648C48.5793 29.3708 49.8522 31.2836 51.759 32.3843L51.7591 32.3844C52.8334 33.0049 54.0531 33.3294 55.2938 33.3249M48.1941 26.9648C47.8344 24.7152 48.3103 22.2901 49.5515 20.1401C50.7928 17.9902 52.6551 16.3656 54.7833 15.5525C57.0593 14.6831 59.3528 14.8293 61.2592 15.9299C65.0335 18.1091 66.1245 23.5712 63.4666 28.1742L63.4666 28.1742C62.2254 30.3242 60.3631 31.9489 58.2349 32.7618L58.2317 32.763C57.2949 33.1281 56.2992 33.3185 55.2938 33.3249M48.1941 26.9648L58.4133 33.2289C57.4192 33.6163 56.3626 33.8183 55.2958 33.8249M55.2938 33.3249C55.2934 33.3249 55.2931 33.3249 55.2927 33.3249L55.2958 33.8249M55.2938 33.3249C55.2939 33.3249 55.2939 33.3249 55.2939 33.3249L55.2958 33.8249M51.5156 26.4334L51.5156 26.4331C51.2733 24.9194 51.6204 23.2834 52.4644 21.8224C53.3078 20.3626 54.5498 19.2437 55.9811 18.6961C56.531 18.4799 57.1158 18.3658 57.7067 18.3594M51.5156 26.4334L57.035 29.6196C58.4672 29.0727 59.7103 27.9539 60.5541 26.4925L60.121 26.2425L60.5541 26.4925C61.368 25.0826 61.6856 23.5167 61.5281 22.1342C61.371 20.7551 60.7306 19.5088 59.5773 18.8433L59.5742 18.8415C59.0052 18.5186 58.3608 18.3523 57.7067 18.3594M51.5156 26.4334C51.7295 27.7664 52.3947 28.8671 53.4409 29.4714C54.4872 30.0758 55.7738 30.1016 57.0349 29.6197L51.5156 26.4334ZM57.7067 18.3594L57.712 18.8594M57.7067 18.3594C57.7066 18.3594 57.7066 18.3594 57.7066 18.3594L57.712 18.8594M57.712 18.8594C57.1812 18.8651 56.6558 18.9677 56.1619 19.1623L59.3274 19.2764C58.8353 18.9971 58.2779 18.8532 57.712 18.8594ZM40.6322 19.2271L40.6325 19.2272C41.1211 19.3337 41.6197 19.3875 42.1199 19.3877L40.6322 19.2271ZM40.6322 19.2271C36.3734 18.3013 33.6703 13.4311 34.7994 8.23731L34.7994 8.23727C35.3266 5.81146 36.6054 3.69665 38.3848 2.27416L38.3849 2.27414C40.2881 0.752423 42.5169 0.193202 44.668 0.660791L44.7741 0.172598L44.668 0.660791C48.9266 1.58647 51.6297 6.45666 50.5007 11.6505L50.9893 11.7567M40.6322 19.2271L50.9893 11.7567M50.9893 11.7567L50.5007 11.6505C49.9735 14.0765 48.6946 16.1913 46.9153 17.6138L46.9152 17.6138M50.9893 11.7567L46.9152 17.6138M46.9152 17.6138C45.4467 18.7882 43.7851 19.3876 42.12 19.3877L46.9152 17.6138ZM43.9529 3.9465L43.9537 3.94668C45.2549 4.22957 46.2444 5.22187 46.8142 6.48771C47.3854 7.75666 47.5599 9.34483 47.2142 10.9353L46.7256 10.8291L47.2142 10.9353C46.8556 12.5843 46.0124 14.0291 44.8152 14.986C43.7608 15.8291 42.5284 16.1962 41.347 15.9398C40.0456 15.6573 39.0559 14.6652 38.486 13.3994C37.9148 12.1306 37.7403 10.5424 38.0861 8.9519C38.0861 8.95187 38.0861 8.95185 38.0861 8.95182L38.5747 9.05805L43.9529 3.9465ZM43.9529 3.9465C43.706 3.89328 43.4542 3.86666 43.2017 3.86709M43.9529 3.9465L40.4851 4.90117C41.3167 4.23642 42.2578 3.86723 43.2017 3.86709M18.215 10.9367C18.5734 12.5858 19.4166 14.03 20.614 14.9874L18.215 10.9367ZM43.2017 3.86709C43.2016 3.86709 43.2015 3.86709 43.2013 3.86709L43.2023 4.36709V3.86709C43.2021 3.86709 43.2019 3.86709 43.2017 3.86709ZM1.96261 28.1742L1.96258 28.1741C-0.695476 23.5712 0.395458 18.1091 4.16972 15.9299C6.07694 14.8293 8.3692 14.6831 10.6456 15.5525C12.7739 16.3658 14.6361 17.9902 15.8777 20.1402C17.1193 22.2901 17.5951 24.7146 17.2351 26.9648C16.8494 29.3709 15.5761 31.2837 13.6702 32.3843C12.5958 33.0048 11.3761 33.3293 10.1354 33.3249C9.13004 33.3185 8.13429 33.1281 7.19748 32.763L7.19434 32.7618C5.06616 31.9489 3.20385 30.3242 1.96261 28.1742ZM43.2799 28.0664C46.3167 30.3789 48.5109 33.6239 49.526 37.3035L52.0142 46.3235C52.4405 47.8688 52.5041 49.4917 52.2001 51.0656C51.896 52.6395 51.2326 54.122 50.2614 55.3973C49.2902 56.6726 48.0376 57.7064 46.6012 58.4181C45.1649 59.1297 43.5835 59.5 41.9805 59.5H23.4485C21.8455 59.5 20.2641 59.1297 18.8277 58.4181C17.3913 57.7064 16.1387 56.6726 15.1676 55.3973C14.1964 54.122 13.5329 52.6395 13.2289 51.0656C12.9249 49.4917 12.9885 47.8688 13.4147 46.3235L15.903 37.3035C16.918 33.6239 19.1122 30.3789 22.149 28.0664C25.1858 25.7539 28.8974 24.5016 32.7145 24.5016C36.5315 24.5016 40.2431 25.7539 43.2799 28.0664ZM45.1108 55.4092C46.0837 54.9271 46.931 54.2252 47.5857 53.3591C48.2464 52.4977 48.6976 51.4948 48.9035 50.4287C49.1095 49.3623 49.0644 48.2625 48.7717 47.2166C48.7716 47.2164 48.7716 47.2162 48.7715 47.216L46.2838 38.198C45.4645 35.228 43.6934 32.6089 41.2423 30.7424C38.7912 28.8759 35.7954 27.8651 32.7145 27.8651C29.6336 27.8651 26.6378 28.8759 24.1867 30.7424C21.7355 32.6089 19.9645 35.228 19.1452 38.198L16.6569 47.2179C16.3684 48.2638 16.3253 49.3623 16.5311 50.4276C16.7369 51.493 17.186 52.4964 17.8434 53.3596C18.5007 54.2229 19.3486 54.9226 20.3208 55.4043C21.2931 55.886 22.3634 56.1366 23.4485 56.1366L41.9786 56.1366C41.979 56.1366 41.9793 56.1366 41.9797 56.1366C43.0657 56.1405 44.1377 55.8914 45.1108 55.4092Z" fill="#58595B" stroke="white"/>
<path d="M39.429 52.2976C40.1796 52.3002 40.9205 52.1279 41.593 51.7944C42.2655 51.4609 42.8512 50.9754 43.3037 50.3762C43.7604 49.7804 44.0723 49.0867 44.2146 48.3493C44.357 47.6118 44.3258 46.8512 44.1236 46.1279C44.1235 46.1276 44.1234 46.1274 44.1233 46.1271L42.397 39.8642C41.8296 37.8058 40.603 35.9905 38.9054 34.6968C37.2078 33.4031 35.1329 32.7024 32.999 32.7024C30.8652 32.7024 28.7903 33.4031 27.0927 34.6968C25.3951 35.9905 24.1685 37.8058 23.6011 39.8642L21.8744 46.1283C21.6749 46.8518 21.6452 47.6116 21.7874 48.3485C21.9296 49.0854 22.24 49.7795 22.6944 50.3766C23.1488 50.9737 23.7348 51.4578 24.4069 51.791C25.079 52.1242 25.8189 52.2976 26.5689 52.2976H39.429ZM39.429 52.2976C39.4286 52.2976 39.4283 52.2976 39.4279 52.2976L39.4291 51.9697V52.2976H39.429ZM40.3423 32.8074C42.453 34.416 43.9781 36.6731 44.6837 39.2326L46.4104 45.4968C46.707 46.5729 46.7512 47.703 46.5397 48.799C46.3281 49.895 45.8665 50.9273 45.1907 51.8154C44.515 52.7034 43.6434 53.4233 42.6441 53.9188C41.6447 54.4143 40.5444 54.6721 39.4291 54.6721H26.5689C25.4536 54.6721 24.3534 54.4143 23.354 53.9188C22.3546 53.4233 21.4831 52.7034 20.8073 51.8154C20.1316 50.9273 19.6699 49.895 19.4584 48.799C19.2468 47.703 19.2911 46.5729 19.5877 45.4968L21.3144 39.2326C22.0199 36.6731 23.545 34.416 25.6557 32.8074C27.7664 31.1989 30.3461 30.3279 32.999 30.3279C35.652 30.3279 38.2316 31.1989 40.3423 32.8074Z" fill="#58595B" stroke="white" stroke-width="0.655768"/>
</svg>
