<svg xmlns="http://www.w3.org/2000/svg" width="14" height="15" viewBox="0 0 16 17" fill="white">
<g clip-path="url(#clip0_1365_21929)">
<path d="M13.8639 11.636C12.8916 10.8093 11.9049 10.3085 10.9446 11.134L10.3712 11.6328C9.9516 11.995 9.17152 13.6871 6.15546 10.238C3.14004 6.7932 4.93447 6.25685 5.35466 5.89782L5.93124 5.39831C6.88655 4.57099 6.52603 3.52951 5.83703 2.45743L5.42124 1.80807C4.72909 0.738486 3.97539 0.0360468 3.01756 0.862115L2.50002 1.31168C2.0767 1.61825 0.89339 2.61478 0.606356 4.50793C0.260911 6.77946 1.35063 9.38067 3.84726 12.2348C6.34075 15.0901 8.78211 16.5243 11.0947 16.4993C13.0166 16.4787 14.1773 15.4535 14.5404 15.0807L15.0598 14.6305C16.0151 13.8051 15.4216 12.9647 14.4487 12.1361L13.8639 11.636Z" fill="white"/>
</g>
<defs>
<clipPath id="clip0_1365_21929">
<rect width="16" height="16" fill="white" transform="translate(0 0.5)"/>
</clipPath>
</defs>
</svg>