<svg width="20" height="20" viewBox="0 0 24 24" fill="none" xmlns="http://www.w3.org/2000/svg">
<path fill-rule="evenodd" clip-rule="evenodd" d="M24 24H16.9328L16.456 23.3228L10.31 14.5962L9.40083 13.307L1.7517 2.44817L0.0283203 0H7.09558L7.57239 0.675222L13.3264 8.84304L14.2356 10.1343L22.2767 21.5518L24 24ZM20.9574 22.4363L13.1567 11.3603L12.2475 10.0691L6.25511 1.5617H3.06898L10.4777 12.0809L11.3869 13.3722L17.7712 22.4363H20.9574Z" fill="white"/>
<path d="M10.4776 12.0809L11.3868 13.3721L10.31 14.5962L2.03855 24H0L9.40079 13.307L10.4776 12.0809Z" fill="white"/>
<path d="M23.1495 0L14.2356 10.1343L13.1567 11.3583L12.2476 10.0691L13.3264 8.84304L19.3653 1.97433L21.1109 0H23.1495Z" fill="white"/>
</svg>
