<svg width="25" height="24" viewBox="0 0 25 24" fill="none" xmlns="http://www.w3.org/2000/svg">
<path d="M23.8665 5.76099C23.7992 5.81119 20.9875 8.01733 20.9875 8.01733V19.4811C20.9875 20.3115 20.3116 20.9873 19.4812 20.9873H4.51882C3.68732 20.9873 3.01255 20.3115 3.01255 19.4811V4.51882C3.01255 3.68732 3.68732 3.01255 4.51882 3.01255H18.0542C19.2361 2.16199 20.4592 1.34965 21.7064 0.587409C21.0496 0.212853 20.2895 0 19.4811 0H4.51882C2.02644 0 0 2.02644 0 4.51882V19.4812C0 21.9725 2.02644 24 4.51882 24H19.4812C21.9725 24 24 21.9726 24 19.4812V5.66166L23.8665 5.76099Z" fill="#DD2A37"/>
<path d="M22.5839 1.46334C20.9512 2.45209 19.3694 3.51805 17.8506 4.65411C16.3344 5.79292 14.8536 6.97558 13.4258 8.21192C13.0281 8.55884 12.6327 8.90809 12.2389 9.25924C12.1149 9.11268 11.9911 8.96601 11.8725 8.81479L11.327 8.10571L11.0535 7.7519L10.797 7.38413L10.2802 6.65132C10.1912 6.53134 10.113 6.40331 10.0333 6.27634C9.95306 6.14979 9.86263 6.02992 9.75927 5.91788C9.65496 5.80648 9.5389 5.70217 9.40557 5.6075C9.27077 5.51367 9.124 5.42652 8.93529 5.36266L8.72095 5.2897C8.56867 5.23908 8.40697 5.20816 8.23881 5.20001C7.24486 5.15182 6.40012 5.91852 6.35194 6.91246C6.31318 7.71347 6.68382 8.28626 7.07002 8.83639L7.65807 9.66069L7.95394 10.0714L8.27068 10.4679L8.90691 11.2584C9.07846 11.4615 9.25848 11.6581 9.43724 11.8557C9.37518 11.9159 9.31186 11.9747 9.24991 12.0351L8.24029 13.0264C7.90777 13.3615 7.57155 13.6919 7.24221 14.0307C6.91107 14.3673 6.5937 14.7182 6.3064 15.0985C6.16111 15.2861 6.02345 15.4837 5.89372 15.6871C5.82913 15.7885 5.76591 15.8928 5.70586 16.0008C5.64529 16.1074 5.58948 16.2173 5.53293 16.3383C5.33777 16.7629 5.3294 17.277 5.55994 17.7246C5.958 18.4969 6.90673 18.8004 7.67914 18.4025L7.77074 18.3552C7.87007 18.3041 7.97184 18.2435 8.06873 18.1794C8.16584 18.1164 8.26041 18.0505 8.35497 17.9828C8.54326 17.8477 8.72106 17.7045 8.89759 17.5573C9.24885 17.2631 9.57723 16.9465 9.89471 16.6182C10.2105 16.2889 10.5346 15.9662 10.8542 15.6398L11.8264 14.6726C11.9077 14.5931 11.9896 14.5143 12.071 14.4349C12.2243 14.5661 12.3792 14.6958 12.538 14.8211C12.6693 14.9296 12.802 15.0363 12.9352 15.1423L13.3485 15.4458L13.7616 15.7484C13.899 15.8494 14.0448 15.9413 14.186 16.0379C14.328 16.1336 14.4703 16.2287 14.6139 16.3219C14.7577 16.4149 14.908 16.5008 15.0545 16.5901C15.2027 16.6779 15.3478 16.7686 15.4981 16.8535L15.9534 17.1028C16.1039 17.1861 16.2615 17.2626 16.4184 17.3395C16.5753 17.4162 16.7295 17.4945 16.8932 17.5658C17.0555 17.638 17.2146 17.7093 17.3864 17.7765C17.4727 17.8106 17.5509 17.8441 17.6437 17.8781L17.9438 17.9852C18.5651 18.207 19.2826 17.9951 19.674 17.4258C20.1403 16.7473 19.9683 15.8191 19.2899 15.3527L19.0337 15.1766L19.0134 15.1627C19.0093 15.1596 18.9888 15.1482 18.9774 15.1414L18.8957 15.0946C18.8423 15.0656 18.779 15.0262 18.7213 14.9928C18.6041 14.9265 18.4831 14.8465 18.3628 14.7725C18.242 14.7012 18.1215 14.6186 18.0011 14.5394C17.8807 14.46 17.7601 14.382 17.6418 14.2947L17.2835 14.0444C17.1646 13.9599 17.0486 13.8684 16.931 13.7811C16.8144 13.6918 16.6955 13.6074 16.5809 13.5147C16.4672 13.4206 16.3521 13.3285 16.2369 13.237C16.1226 13.144 16.0048 13.0568 15.8935 12.9594L15.5588 12.6686L15.2243 12.3787C15.1169 12.2763 15.0092 12.1747 14.9001 12.0747C14.8384 12.0201 14.7787 11.963 14.7181 11.9069C15.0798 11.5703 15.4434 11.2358 15.8099 10.9049L16.824 9.98463L17.8536 9.08462C18.1952 8.78196 18.5442 8.49064 18.891 8.19551L19.4116 7.7536L19.672 7.53249L19.937 7.31847L20.9941 6.45732C21.3457 6.16907 21.7092 5.90009 22.0659 5.61936L22.6015 5.19916C22.7799 5.05874 22.9647 4.92997 23.146 4.79463L24.2347 3.98304L24.2706 3.95636C24.8824 3.49708 25.0581 2.63974 24.6534 1.97153C24.2224 1.2598 23.2958 1.03212 22.5839 1.46334Z" fill="#DD2A37"/>
</svg>
