<svg width="24" height="24" viewBox="0 0 24 24" fill="none" xmlns="http://www.w3.org/2000/svg">
<path d="M2.45401 16.0606C2.7353 16.3418 3.11676 16.4998 3.51451 16.4998C3.91226 16.4998 4.29372 16.3418 4.57501 16.0606L12 8.63557L19.425 16.0606C19.7079 16.3338 20.0868 16.485 20.4801 16.4816C20.8734 16.4782 21.2496 16.3204 21.5277 16.0423C21.8059 15.7642 21.9636 15.388 21.967 14.9947C21.9704 14.6014 21.8192 14.2225 21.546 13.9396L13.0605 5.45407C12.7792 5.17287 12.3978 5.01489 12 5.01489C11.6023 5.01489 11.2208 5.17287 10.9395 5.45407L2.45401 13.9396C2.1728 14.2209 2.01483 14.6023 2.01483 15.0001C2.01483 15.3978 2.1728 15.7793 2.45401 16.0606Z" fill="#131313" fill-opacity="0.8"/>
</svg>
