<svg width="66" height="57" viewBox="0 0 66 57" fill="none" xmlns="http://www.w3.org/2000/svg">
<rect x="15.9995" y="11" width="5" height="13" rx="1" transform="rotate(-90 15.9995 11)" fill="#FF7800"/>
<rect x="5.99951" y="6" width="7" height="5" rx="1" fill="#550EC5"/>
<path d="M37.1807 6.06901H43.1677C43.8733 6.06901 44.55 6.3493 45.049 6.84824C45.5479 7.34718 45.8282 8.02388 45.8282 8.72949V39.6964V40.1962L45.3284 40.1964C43.6449 40.197 42.003 40.7192 40.6286 41.6913C39.2541 42.6633 38.2146 44.0374 37.6531 45.6244L37.5352 45.9576H37.1817H30.4353H30.0817L29.9639 45.6242C29.4028 44.0366 28.3636 42.662 26.9891 41.6893C25.6147 40.7167 23.9725 40.194 22.2887 40.1931C20.605 40.1922 18.9623 40.7132 17.5868 41.6844C16.2113 42.6555 15.1706 44.0291 14.6079 45.6161L14.4763 45.9872L14.0846 45.9463C13.4298 45.8778 12.8237 45.569 12.3834 45.0796C11.9432 44.5902 11.7 43.955 11.7008 43.2968M37.1807 6.06901L12.2008 27.7936M37.1807 6.06901C37.1362 4.89034 36.8235 3.7583 36.2877 2.74805H43.1677C44.7541 2.74805 46.2755 3.37823 47.3972 4.49997C48.519 5.62171 49.1491 7.14311 49.1491 8.72949V10.89V11.39H49.6491H54.1141C56.4272 11.39 58.5326 12.7219 59.5214 14.8112L59.5215 14.8114L64.4185 25.147C64.7958 25.9441 64.9927 26.8216 64.9927 27.7071V43.2971C64.9927 44.8835 64.3625 46.4049 63.2407 47.5267C62.119 48.6484 60.5976 49.2786 59.0112 49.2786H53.852H53.4286L53.3588 49.6962C53.0414 51.5967 52.0602 53.323 50.5898 54.5681C49.1194 55.8133 47.255 56.4967 45.3282 56.4967C43.4014 56.4967 41.537 55.8133 40.0666 54.5681C38.5962 53.323 37.615 51.5967 37.2975 49.6962L37.2278 49.2786H36.8044H30.8098H30.3862L30.3166 49.6964C29.9993 51.5998 29.0163 53.3287 27.5429 54.5747C26.0695 55.8207 24.2014 56.5029 22.2717 56.4997C20.342 56.4964 18.4763 55.8079 17.007 54.5569C15.5378 53.3059 14.5607 51.5737 14.2499 49.6692L14.1876 49.288L13.8031 49.252C12.3199 49.1129 10.942 48.4255 9.93899 47.3241C8.93597 46.2228 8.38 44.7868 8.37988 43.2971V26.4421L11.7008 28.1026M37.1807 6.06901L12.2008 27.7936M11.7008 43.2968C11.7008 43.2967 11.7008 43.2966 11.7008 43.2964L12.2008 43.2971H11.7008V43.2968ZM11.7008 43.2968V28.1026M11.7008 28.1026L11.9772 28.2408L12.2008 27.7936M11.7008 28.1026V27.7936H12.2008M49.1491 40.8544V41.1429L49.399 41.2873C51.0794 42.2585 52.3592 43.7962 53.0093 45.6251L53.1275 45.9576H53.4804H59.0112C59.7168 45.9576 60.3935 45.6773 60.8925 45.1784C61.3914 44.6795 61.6717 44.0028 61.6717 43.2971V42.577V42.077H61.1717H57.5709C57.1305 42.077 56.7082 41.9021 56.3968 41.5907C56.0854 41.2793 55.9104 40.8569 55.9104 40.4165C55.9104 39.9761 56.0854 39.5538 56.3968 39.2424C56.7082 38.931 57.1305 38.756 57.5709 38.756H61.1717H61.6717V38.256V29.6141V29.1141H61.1717H49.6491H49.1491V29.6141V40.8544ZM49.6491 14.7109H49.1491V15.2109V25.2932V25.7932H49.6491H60.2585H61.0484L60.7105 25.0793L56.5252 16.2363C56.31 15.7802 55.9697 15.3947 55.5439 15.1247C55.1181 14.8546 54.6243 14.7111 54.1201 14.7109H54.1199H54.1141H49.6491ZM17.4621 48.3383C17.4621 48.9714 17.5868 49.5983 17.8291 50.1832C18.0714 50.7681 18.4265 51.2995 18.8741 51.7472C19.3218 52.1949 19.8533 52.55 20.4382 52.7923C21.0231 53.0345 21.65 53.1592 22.2831 53.1592C22.9162 53.1592 23.5431 53.0345 24.128 52.7923C24.7129 52.55 25.2443 52.1949 25.692 51.7472C26.1397 51.2995 26.4948 50.7681 26.7371 50.1832C26.9793 49.5983 27.104 48.9714 27.104 48.3383C27.104 47.0597 26.5961 45.8334 25.692 44.9293C24.7879 44.0252 23.5617 43.5173 22.2831 43.5173C21.0045 43.5173 19.7782 44.0252 18.8741 44.9293C17.97 45.8334 17.4621 47.0597 17.4621 48.3383ZM45.3282 53.1592C46.6068 53.1592 47.833 52.6513 48.7371 51.7472C49.6412 50.8431 50.1491 49.6169 50.1491 48.3383C50.1491 47.0597 49.6412 45.8334 48.7371 44.9293C47.833 44.0252 46.6068 43.5173 45.3282 43.5173C44.0496 43.5173 42.8234 44.0252 41.9193 44.9293C41.0152 45.8334 40.5072 47.0597 40.5072 48.3383C40.5072 49.6169 41.0152 50.8431 41.9193 51.7472C42.8234 52.6513 44.0496 53.1592 45.3282 53.1592Z" fill="#58595B" stroke="white"/>
<rect x="0.999512" y="1" width="33" height="23" rx="1" stroke="#58595B" stroke-width="2"/>
<rect width="5" height="13" rx="1" transform="matrix(0 -1 -1 0 18.9995 19)" fill="#FF7800"/>
<rect width="7" height="5" rx="1" transform="matrix(-1 0 0 1 28.9995 14)" fill="#550EC5"/>
<path d="M14.9995 28H35.9995C37.1041 28 37.9995 27.1046 37.9995 26V9.5" stroke="#58595B" stroke-width="1.5"/>
</svg>
