<svg width="86" height="62" viewBox="0 0 86 62" fill="none" xmlns="http://www.w3.org/2000/svg">
<mask id="path-1-inside-1_1603_9186" fill="white">
<path fill-rule="evenodd" clip-rule="evenodd" d="M51.4347 2C51.8436 2.00021 52.2438 2.11735 52.5882 2.3376C52.9326 2.55784 53.2068 2.872 53.3785 3.24301L56.7754 10.5725H67.776C68.0815 10.5722 68.3836 10.6373 68.6619 10.7633C68.9402 10.8894 69.1884 11.0734 69.3898 11.3033L78.7659 22.0188C79.0374 22.3287 79.2138 22.7103 79.274 23.1179C79.3343 23.5254 79.2757 23.9417 79.1055 24.3169C78.9352 24.6921 78.6604 25.0102 78.3139 25.2332C77.9675 25.4562 77.5641 25.5746 77.1521 25.5743H63.7276L67.9496 34.6825C71.3213 33.7125 74.9349 34.0505 78.0683 35.629C81.2016 37.2075 83.6239 39.9102 84.8512 43.1971C86.0784 46.4839 86.0202 50.1128 84.6881 53.3586C83.356 56.6044 80.8482 59.228 77.6659 60.7052C74.4835 62.1823 70.8609 62.4042 67.522 61.3265C64.1832 60.2489 61.3739 57.951 59.6556 54.892C57.9374 51.8331 57.4366 48.2384 58.2535 44.8264C59.0704 41.4143 61.1447 38.4361 64.062 36.487L60.8623 29.5862L53.9293 35.7476C53.8212 35.8444 53.7034 35.9298 53.5779 36.0026V44.8623C53.5779 46.5674 52.9005 48.2028 51.6947 49.4085C50.489 50.6142 48.8537 51.2916 47.1485 51.2916H38.5761C37.3111 51.2937 36.0738 50.9208 35.0206 50.2201H27.6976C27.1498 53.6804 25.3187 56.8074 22.5689 58.9782C19.8191 61.1491 16.3525 62.2045 12.8595 61.9342C9.36655 61.6639 6.10355 60.0878 3.72045 57.5198C1.33734 54.9518 0.00900262 51.5803 1.3274e-05 48.0769C-0.00483193 44.5651 1.31691 41.1811 3.70066 38.6022C6.08441 36.0233 9.35424 34.4399 12.8556 34.169C16.3569 33.8981 19.8314 34.9596 22.5835 37.1411C25.3356 39.3226 27.1622 42.4631 27.6976 45.9338H32.2346C32.1756 45.5797 32.1462 45.2213 32.1467 44.8623V38.4329C32.1467 37.2199 32.4832 36.0862 33.0661 35.1197L32.316 34.0653L1.92239 30.9213C1.39492 30.8667 0.906429 30.6185 0.551357 30.2246C0.196284 29.8307 -0.000155697 29.3192 1.3274e-05 28.7889V21.288C1.3274e-05 20.7196 0.225805 20.1745 0.627717 19.7726C1.02963 19.3707 1.57474 19.1449 2.14313 19.1449H24.8601C24.9164 19.1205 24.9736 19.0983 25.0316 19.0785L34.5041 15.8745C36.4939 15.2019 38.5802 14.8587 40.6806 14.8587H53.5779V13.8643L50.0653 6.28623H40.7192V2H51.4347ZM58.7642 14.8587L61.7431 21.288H72.4287L66.803 14.8587H58.7642ZM36.4329 38.4329C36.4329 37.8645 36.6587 37.3194 37.0606 36.9175C37.4626 36.5156 38.0077 36.2898 38.5761 36.2898H49.2916V44.8623C49.2916 45.4307 49.0658 45.9758 48.6639 46.3777C48.262 46.7796 47.7169 47.0054 47.1485 47.0054H38.5761C38.0077 47.0054 37.4626 46.7796 37.0606 46.3777C36.6587 45.9758 36.4329 45.4307 36.4329 44.8623V38.4329ZM58.9806 25.525L51.6919 32.0036H36.1093L29.1356 22.216L35.8757 19.9357C37.4243 19.412 39.048 19.1448 40.6827 19.1449H56.0253L58.9806 25.525ZM29.0006 29.4104L24.7401 23.4311H4.28624V26.8558L29.0006 29.4104ZM65.8965 40.4432C64.0207 41.8935 62.7449 43.984 62.3128 46.3154C61.8807 48.6467 62.3226 51.0556 63.5541 53.0818C64.7856 55.108 66.7204 56.6095 68.9889 57.2994C71.2574 57.9894 73.7005 57.8195 75.8517 56.8222C78.0028 55.8249 79.7112 54.0701 80.6504 51.893C81.5897 49.7158 81.6939 47.269 80.9433 45.0199C80.1927 42.7707 78.6399 40.8769 76.5814 39.7002C74.5229 38.5235 72.103 38.1463 69.7841 38.6408L73.7381 47.1747C73.9565 47.6871 73.9668 48.2643 73.7668 48.7841C73.5669 49.304 73.1725 49.7255 72.6671 49.9596C72.1617 50.1936 71.5851 50.2217 71.0593 50.0379C70.5336 49.8541 70.1 49.4728 69.8505 48.9749L65.8965 40.4432ZM13.9303 57.721C12.1149 57.7203 10.3366 57.2074 8.79986 56.2411C7.2631 55.2747 6.03028 53.8943 5.24317 52.2585C4.45607 50.6227 4.14665 48.7979 4.35049 46.994C4.55433 45.1902 5.26315 43.4805 6.39545 42.0616C7.52775 40.6427 9.03753 39.5721 10.7512 38.9731C12.4648 38.3741 14.3128 38.2709 16.0825 38.6754C17.8521 39.0799 19.4717 39.9757 20.755 41.2597C22.0382 42.5438 22.933 44.1639 23.3364 45.9338H13.9303C13.3619 45.9338 12.8168 46.1596 12.4148 46.5615C12.0129 46.9634 11.7871 47.5086 11.7871 48.0769C11.7871 48.6453 12.0129 49.1904 12.4148 49.5924C12.8168 49.9943 13.3619 50.2201 13.9303 50.2201H23.3364C22.8499 52.3509 21.6544 54.2534 19.9456 55.6161C18.2368 56.9788 16.1159 57.7209 13.9303 57.721Z"/>
</mask>
<path fill-rule="evenodd" clip-rule="evenodd" d="M51.4347 2C51.8436 2.00021 52.2438 2.11735 52.5882 2.3376C52.9326 2.55784 53.2068 2.872 53.3785 3.24301L56.7754 10.5725H67.776C68.0815 10.5722 68.3836 10.6373 68.6619 10.7633C68.9402 10.8894 69.1884 11.0734 69.3898 11.3033L78.7659 22.0188C79.0374 22.3287 79.2138 22.7103 79.274 23.1179C79.3343 23.5254 79.2757 23.9417 79.1055 24.3169C78.9352 24.6921 78.6604 25.0102 78.3139 25.2332C77.9675 25.4562 77.5641 25.5746 77.1521 25.5743H63.7276L67.9496 34.6825C71.3213 33.7125 74.9349 34.0505 78.0683 35.629C81.2016 37.2075 83.6239 39.9102 84.8512 43.1971C86.0784 46.4839 86.0202 50.1128 84.6881 53.3586C83.356 56.6044 80.8482 59.228 77.6659 60.7052C74.4835 62.1823 70.8609 62.4042 67.522 61.3265C64.1832 60.2489 61.3739 57.951 59.6556 54.892C57.9374 51.8331 57.4366 48.2384 58.2535 44.8264C59.0704 41.4143 61.1447 38.4361 64.062 36.487L60.8623 29.5862L53.9293 35.7476C53.8212 35.8444 53.7034 35.9298 53.5779 36.0026V44.8623C53.5779 46.5674 52.9005 48.2028 51.6947 49.4085C50.489 50.6142 48.8537 51.2916 47.1485 51.2916H38.5761C37.3111 51.2937 36.0738 50.9208 35.0206 50.2201H27.6976C27.1498 53.6804 25.3187 56.8074 22.5689 58.9782C19.8191 61.1491 16.3525 62.2045 12.8595 61.9342C9.36655 61.6639 6.10355 60.0878 3.72045 57.5198C1.33734 54.9518 0.00900262 51.5803 1.3274e-05 48.0769C-0.00483193 44.5651 1.31691 41.1811 3.70066 38.6022C6.08441 36.0233 9.35424 34.4399 12.8556 34.169C16.3569 33.8981 19.8314 34.9596 22.5835 37.1411C25.3356 39.3226 27.1622 42.4631 27.6976 45.9338H32.2346C32.1756 45.5797 32.1462 45.2213 32.1467 44.8623V38.4329C32.1467 37.2199 32.4832 36.0862 33.0661 35.1197L32.316 34.0653L1.92239 30.9213C1.39492 30.8667 0.906429 30.6185 0.551357 30.2246C0.196284 29.8307 -0.000155697 29.3192 1.3274e-05 28.7889V21.288C1.3274e-05 20.7196 0.225805 20.1745 0.627717 19.7726C1.02963 19.3707 1.57474 19.1449 2.14313 19.1449H24.8601C24.9164 19.1205 24.9736 19.0983 25.0316 19.0785L34.5041 15.8745C36.4939 15.2019 38.5802 14.8587 40.6806 14.8587H53.5779V13.8643L50.0653 6.28623H40.7192V2H51.4347ZM58.7642 14.8587L61.7431 21.288H72.4287L66.803 14.8587H58.7642ZM36.4329 38.4329C36.4329 37.8645 36.6587 37.3194 37.0606 36.9175C37.4626 36.5156 38.0077 36.2898 38.5761 36.2898H49.2916V44.8623C49.2916 45.4307 49.0658 45.9758 48.6639 46.3777C48.262 46.7796 47.7169 47.0054 47.1485 47.0054H38.5761C38.0077 47.0054 37.4626 46.7796 37.0606 46.3777C36.6587 45.9758 36.4329 45.4307 36.4329 44.8623V38.4329ZM58.9806 25.525L51.6919 32.0036H36.1093L29.1356 22.216L35.8757 19.9357C37.4243 19.412 39.048 19.1448 40.6827 19.1449H56.0253L58.9806 25.525ZM29.0006 29.4104L24.7401 23.4311H4.28624V26.8558L29.0006 29.4104ZM65.8965 40.4432C64.0207 41.8935 62.7449 43.984 62.3128 46.3154C61.8807 48.6467 62.3226 51.0556 63.5541 53.0818C64.7856 55.108 66.7204 56.6095 68.9889 57.2994C71.2574 57.9894 73.7005 57.8195 75.8517 56.8222C78.0028 55.8249 79.7112 54.0701 80.6504 51.893C81.5897 49.7158 81.6939 47.269 80.9433 45.0199C80.1927 42.7707 78.6399 40.8769 76.5814 39.7002C74.5229 38.5235 72.103 38.1463 69.7841 38.6408L73.7381 47.1747C73.9565 47.6871 73.9668 48.2643 73.7668 48.7841C73.5669 49.304 73.1725 49.7255 72.6671 49.9596C72.1617 50.1936 71.5851 50.2217 71.0593 50.0379C70.5336 49.8541 70.1 49.4728 69.8505 48.9749L65.8965 40.4432ZM13.9303 57.721C12.1149 57.7203 10.3366 57.2074 8.79986 56.2411C7.2631 55.2747 6.03028 53.8943 5.24317 52.2585C4.45607 50.6227 4.14665 48.7979 4.35049 46.994C4.55433 45.1902 5.26315 43.4805 6.39545 42.0616C7.52775 40.6427 9.03753 39.5721 10.7512 38.9731C12.4648 38.3741 14.3128 38.2709 16.0825 38.6754C17.8521 39.0799 19.4717 39.9757 20.755 41.2597C22.0382 42.5438 22.933 44.1639 23.3364 45.9338H13.9303C13.3619 45.9338 12.8168 46.1596 12.4148 46.5615C12.0129 46.9634 11.7871 47.5086 11.7871 48.0769C11.7871 48.6453 12.0129 49.1904 12.4148 49.5924C12.8168 49.9943 13.3619 50.2201 13.9303 50.2201H23.3364C22.8499 52.3509 21.6544 54.2534 19.9456 55.6161C18.2368 56.9788 16.1159 57.7209 13.9303 57.721Z" fill="#58595B" stroke="white" stroke-width="2" mask="url(#path-1-inside-1_1603_9186)"/>
<circle cx="63.5" cy="17.5" r="1.5" fill="#550EC5"/>
<circle cx="72" cy="48" r="2" fill="#FF7800"/>
<circle cx="14" cy="48" r="2" fill="#FF7800"/>
<circle cx="43" cy="4" r="4" fill="#550EC5"/>
<path d="M32.5 24L39.6424 21.143C39.8786 21.0486 40.1307 21 40.3852 21H54" stroke="#58595B" stroke-width="1.5"/>
</svg>
